SplineFontDB: 1.0
FontName: DejaVuSans-BoldOblique
FullName: DejaVu Sans Bold Oblique
FamilyName: DejaVu Sans
Weight: Bold
Copyright: Copyright (c) 2003 by Bitstream, Inc. All Rights Reserved.\nDejaVu changes are in public domain\n
Version: 1.15
ItalicAngle: -11
UnderlinePosition: -227
UnderlineWidth: 258
Ascent: 1556
Descent: 492
Order2: 1
NeedsXUIDChange: 1
FSType: 0
PfmFamily: 17
TTFWeight: 700
TTFWidth: 5
LineGap: 410
VLineGap: 0
Panose: 2 11 8 3 3 3 4 11 2 4
OS2TypoAscent: 1556
OS2TypoAOffset: 0
OS2TypoDescent: -492
OS2TypoDOffset: 0
OS2TypoLinegap: 0
OS2WinAscent: 1901
OS2WinAOffset: 0
OS2WinDescent: 483
OS2WinDOffset: 0
HheadAscent: 1901
HheadAOffset: 0
HheadDescent: -483
HheadDOffset: 0
OS2Vendor: 'PfEd'
ScriptLang: 2
 1 latn 1 dflt 
 1 DFLT 1 dflt 
TtfTable: prep 1387
\,q1Gs5*_Wh%9bE('E=F3X+:;"55d<fjk3;]*$[a"4eLqeJSJ=rWCXK"4I/NdJa6prWCKl%L(2X
"3qAYbK>5:bPhUdI07U4N!7?&"3J=]aN%EeaG^5BJ-<p4-3_Fm"33Y0`[1f,rWC+8"2k*?_YOAN
$j4=r"Mk!=^\S&HI07/H"2+U8]"'?q])DfB/-EE]"1P^/"h/m^[RUG-q?+,("1.t/ZMjs2]*#;:
"0WaJY5SO*X9o-5rWB5/"0=`jX/ZL1X"jdW$3R:("/o?<"fVD&VtpLmq?*Qs('UQ6"/PnuU](@i
q?*Fa(^6UD"/$J5T4f8LT4A%q5l[B$"ePPmSL"B.=V_12q?*4U'EssA".GVh"e$,-R1KIfQO<ta
+9Rr<".#2u"d\ueQ!"k+PpHNsP8"1b-3KHp&d=I5"-O9!O]`G'OW=Oc'EaDV]*48p"-/@H"cg1s
Ndq7lN$SXe>m$'O"H4W/MuEg9A-7Zj&-[pi",Ip!LP@hnL\_+-F;kC<3Wk(h)?kgM",):="b[cr
K7XU;K+S3;JID^6%g.@k"+XMi"b?RSJ,TP!'a&js"+:(MHi=+nrW@E^"*b[cG8::(F;kC,q?(k^
)[1B\"*@Z]"`t[cF'07^F+".2rW@-e"*"5ADuKiVrW@!E"$lm&rW?qN%L$YI")8;JC-Vo9BH@=k
q?(D6('S@m"(taP"_[Z6Am>`JAfLnarW?\@]*2aE"(PeG"_5.H@t4\k=!\#Z>m"P$"C_93?sbMi
@/^78/d#E_('S"c"'o.?"^N5Q>RU^==V_0F9*8@#('Rn@"'J_;"^)TC=:bR9,m.3I"',=&<;ltu
rW?'t"&]%":erA@:mM2Z,m-mR"&8as9`>,erW>dh"%i=k8-oAh5QjPFV?KHg"%B'h6phms7/@!Q
)ZrGm"@?W$69kZ>I02b6"$\t#"[4I>4o,7CrW>7]"$6D`3A_-J3AL[rrW>)7"#`"D"ZAXGrW>"b
"#W=H1c#IB1^jIB$3N'_"#0oj"YkE-0J=@K0Ot8=";(ej)Zq_l""j?O/1VSA/5$'q";(ef)$;>k
&HsXW"">W."Xt8j-mo?*-k6>,$3MUd"!o3&"XPo+,Rso$+qOo&'E]Nj"!J1$"X3^E+9;fQ+>O$@

StartChar: .notdef
Encoding: 0 -1 0
AltUni: 0
Width: 1229
Flags: W
Fore
102 -362 m 1,0,-1
 102 1444 l 1,1,-1
 1126 1444 l 1,2,-1
 1126 -362 l 1,3,-1
 102 -362 l 1,0,-1
217 -248 m 1,4,-1
 1012 -248 l 1,5,-1
 1012 1329 l 1,6,-1
 217 1329 l 1,7,-1
 217 -248 l 1,4,-1
EndSplineSet
EndChar
StartChar: exclam
Encoding: 33 33 33
Width: 934
Flags: W
Fore
432 1493 m 1,0,-1
 793 1493 l 1,1,-1
 680 920 l 1,2,-1
 549 502 l 1,3,-1
 291 502 l 1,4,-1
 319 920 l 1,5,-1
 432 1493 l 1,0,-1
211 356 m 1,6,-1
 571 356 l 1,7,-1
 502 0 l 1,8,-1
 141 0 l 1,9,-1
 211 356 l 1,6,-1
EndSplineSet
EndChar
StartChar: quotedbl
Encoding: 34 34 34
Width: 1067
Flags: W
Fore
872 1493 m 1,0,-1
 872 938 l 1,1,-1
 635 938 l 1,2,-1
 635 1493 l 1,3,-1
 872 1493 l 1,0,-1
432 1493 m 1,4,-1
 432 938 l 1,5,-1
 195 938 l 1,6,-1
 195 1493 l 1,7,-1
 432 1493 l 1,4,-1
EndSplineSet
EndChar
StartChar: numbersign
Encoding: 35 35 35
Width: 1425
Flags: W
Fore
1024 872 m 1,0,-1
 760 872 l 1,1,-1
 690 598 l 1,2,-1
 954 598 l 1,3,-1
 1024 872 l 1,0,-1
911 1470 m 1,4,-1
 815 1085 l 1,5,-1
 1079 1085 l 1,6,-1
 1176 1470 l 1,7,-1
 1397 1470 l 1,8,-1
 1300 1085 l 1,9,-1
 1597 1085 l 1,10,-1
 1544 872 l 1,11,-1
 1247 872 l 1,12,-1
 1178 598 l 1,13,-1
 1475 598 l 1,14,-1
 1421 383 l 1,15,-1
 1126 383 l 1,16,-1
 1030 0 l 1,17,-1
 809 0 l 1,18,-1
 905 383 l 1,19,-1
 641 383 l 1,20,-1
 545 0 l 1,21,-1
 322 0 l 1,22,-1
 418 383 l 1,23,-1
 133 383 l 1,24,-1
 186 598 l 1,25,-1
 467 598 l 1,26,-1
 537 872 l 1,27,-1
 254 872 l 1,28,-1
 307 1085 l 1,29,-1
 592 1085 l 1,30,-1
 688 1470 l 1,31,-1
 911 1470 l 1,4,-1
EndSplineSet
EndChar
StartChar: dollar
Encoding: 36 36 36
Width: 1425
Flags: W
Fore
596 -301 m 1,0,-1
 434 -301 l 1,1,-1
 493 0 l 1,2,3
 366 5 366 5 257 26.5 c 128,-1,4
 148 48 148 48 55 86 c 1,5,-1
 104 348 l 1,6,7
 200 293 200 293 308.5 262.5 c 128,-1,8
 417 232 417 232 537 228 c 1,9,-1
 598 539 l 1,10,11
 388 570 388 570 292.5 650.5 c 128,-1,12
 197 731 197 731 197 874 c 0,13,14
 197 1073 197 1073 346.5 1195.5 c 128,-1,15
 496 1318 496 1318 751 1327 c 1,16,-1
 795 1556 l 1,17,-1
 956 1556 l 1,18,-1
 913 1329 l 1,19,20
 1014 1323 1014 1323 1108 1306 c 128,-1,21
 1202 1289 1202 1289 1290 1262 c 1,22,-1
 1241 1008 l 1,23,24
 1178 1045 1178 1045 1082.5 1068.5 c 128,-1,25
 987 1092 987 1092 868 1099 c 1,26,-1
 811 811 l 1,27,28
 1024 775 1024 775 1126.5 694 c 128,-1,29
 1229 613 1229 613 1229 479 c 0,30,31
 1229 259 1229 259 1078.5 134 c 128,-1,32
 928 9 928 9 654 0 c 1,33,-1
 596 -301 l 1,0,-1
655 836 m 1,34,-1
 706 1098 l 1,35,36
 622 1090 622 1090 572 1049.5 c 128,-1,37
 522 1009 522 1009 522 948 c 0,38,39
 522 900 522 900 554.5 872.5 c 128,-1,40
 587 845 587 845 655 836 c 1,34,-1
754 512 m 1,41,-1
 699 227 l 1,42,43
 798 232 798 232 851.5 275 c 128,-1,44
 905 318 905 318 905 393 c 0,45,46
 905 444 905 444 868.5 472.5 c 128,-1,47
 832 501 832 501 754 512 c 1,41,-1
EndSplineSet
EndChar
StartChar: percent
Encoding: 37 37 37
Width: 2052
Flags: W
Fore
1565 616 m 0,0,1
 1479 616 1479 616 1423.5 532 c 128,-1,2
 1368 448 1368 448 1368 315 c 0,3,4
 1368 228 1368 228 1398.5 184.5 c 128,-1,5
 1429 141 1429 141 1491 141 c 0,6,7
 1578 141 1578 141 1633 225 c 128,-1,8
 1688 309 1688 309 1688 444 c 0,9,10
 1688 529 1688 529 1656.5 572.5 c 128,-1,11
 1625 616 1625 616 1565 616 c 0,0,1
1593 784 m 0,12,13
 1750 784 1750 784 1844.5 698.5 c 128,-1,14
 1939 613 1939 613 1939 473 c 0,15,16
 1939 249 1939 249 1806.5 110 c 128,-1,17
 1674 -29 1674 -29 1460 -29 c 0,18,19
 1303 -29 1303 -29 1208.5 57.5 c 128,-1,20
 1114 144 1114 144 1114 285 c 0,21,22
 1114 507 1114 507 1246.5 645.5 c 128,-1,23
 1379 784 1379 784 1593 784 c 0,12,13
532 -29 m 1,24,-1
 287 -29 l 1,25,-1
 1522 1520 l 1,26,-1
 1767 1520 l 1,27,-1
 532 -29 l 1,24,-1
594 1520 m 0,28,29
 750 1520 750 1520 845 1434 c 128,-1,30
 940 1348 940 1348 940 1208 c 0,31,32
 940 985 940 985 806.5 846 c 128,-1,33
 673 707 673 707 459 707 c 0,34,35
 302 707 302 707 207.5 792 c 128,-1,36
 113 877 113 877 113 1018 c 0,37,38
 113 1240 113 1240 246.5 1380 c 128,-1,39
 380 1520 380 1520 594 1520 c 0,28,29
563 1352 m 0,40,41
 477 1352 477 1352 422 1267.5 c 128,-1,42
 367 1183 367 1183 367 1051 c 0,43,44
 367 963 367 963 397.5 918.5 c 128,-1,45
 428 874 428 874 489 874 c 0,46,47
 576 874 576 874 631 959 c 128,-1,48
 686 1044 686 1044 686 1180 c 0,49,50
 686 1264 686 1264 654.5 1308 c 128,-1,51
 623 1352 623 1352 563 1352 c 0,40,41
EndSplineSet
EndChar
StartChar: ampersand
Encoding: 38 38 38
Width: 1786
Flags: W
Fore
877 915 m 2,0,-1
 1174 541 l 1,1,2
 1236 604 1236 604 1281 692 c 128,-1,3
 1326 780 1326 780 1354 895 c 1,4,-1
 1665 895 l 1,5,6
 1622 720 1622 720 1542.5 577 c 128,-1,7
 1463 434 1463 434 1343 322 c 1,8,-1
 1599 0 l 1,9,-1
 1161 0 l 1,10,-1
 1077 106 l 1,11,12
 959 38 959 38 841 4.5 c 128,-1,13
 723 -29 723 -29 600 -29 c 0,14,15
 355 -29 355 -29 206 94 c 128,-1,16
 57 217 57 217 57 416 c 0,17,18
 57 567 57 567 152.5 693.5 c 128,-1,19
 248 820 248 820 449 934 c 1,20,21
 423 978 423 978 410 1023 c 128,-1,22
 397 1068 397 1068 397 1116 c 0,23,24
 397 1292 397 1292 548 1406 c 128,-1,25
 699 1520 699 1520 938 1520 c 0,26,27
 1029 1520 1029 1520 1124.5 1505.5 c 128,-1,28
 1220 1491 1220 1491 1321 1462 c 1,29,-1
 1268 1184 l 1,30,31
 1181 1232 1181 1232 1102 1255 c 128,-1,32
 1023 1278 1023 1278 944 1278 c 0,33,34
 858 1278 858 1278 808 1242 c 128,-1,35
 758 1206 758 1206 758 1145 c 0,36,37
 758 1107 758 1107 788 1048.5 c 128,-1,38
 818 990 818 990 877 915 c 2,0,-1
575 743 m 1,39,40
 495 692 495 692 453.5 625.5 c 128,-1,41
 412 559 412 559 412 483 c 0,42,43
 412 376 412 376 488 302.5 c 128,-1,44
 564 229 564 229 678 229 c 0,45,46
 738 229 738 229 797 250 c 128,-1,47
 856 271 856 271 915 313 c 1,48,-1
 575 743 l 1,39,40
EndSplineSet
EndChar
StartChar: quotesingle
Encoding: 39 39 39
Width: 627
Flags: W
Fore
432 1493 m 1,0,-1
 432 938 l 1,1,-1
 195 938 l 1,2,-1
 195 1493 l 1,3,-1
 432 1493 l 1,0,-1
EndSplineSet
EndChar
StartChar: parenleft
Encoding: 40 40 40
Width: 936
Flags: W
Fore
604 -270 m 1,0,-1
 313 -270 l 1,1,2
 235 -104 235 -104 196.5 55.5 c 128,-1,3
 158 215 158 215 158 373 c 0,4,5
 158 668 158 668 285 962.5 c 128,-1,6
 412 1257 412 1257 668 1554 c 1,7,-1
 958 1554 l 1,8,9
 725 1244 725 1244 610.5 940.5 c 128,-1,10
 496 637 496 637 496 332 c 0,11,12
 496 182 496 182 523 32.5 c 128,-1,13
 550 -117 550 -117 604 -270 c 1,0,-1
EndSplineSet
EndChar
StartChar: parenright
Encoding: 41 41 41
Width: 936
Flags: W
Fore
299 1554 m 1,0,-1
 592 1554 l 1,1,2
 669 1390 669 1390 707 1230.5 c 128,-1,3
 745 1071 745 1071 745 911 c 0,4,5
 745 613 745 613 618.5 318.5 c 128,-1,6
 492 24 492 24 238 -270 c 1,7,-1
 -55 -270 l 1,8,9
 178 40 178 40 293 344 c 128,-1,10
 408 648 408 648 408 954 c 0,11,12
 408 1104 408 1104 381 1252.5 c 128,-1,13
 354 1401 354 1401 299 1554 c 1,0,-1
EndSplineSet
EndChar
StartChar: asterisk
Encoding: 42 42 42
Width: 1071
Flags: W
Fore
1030 1217 m 1,0,-1
 700 1044 l 1,1,-1
 1030 870 l 1,2,-1
 954 729 l 1,3,-1
 621 913 l 1,4,-1
 621 569 l 1,5,-1
 451 569 l 1,6,-1
 451 913 l 1,7,-1
 117 729 l 1,8,-1
 41 870 l 1,9,-1
 375 1044 l 1,10,-1
 41 1217 l 1,11,-1
 117 1358 l 1,12,-1
 451 1176 l 1,13,-1
 451 1520 l 1,14,-1
 621 1520 l 1,15,-1
 621 1176 l 1,16,-1
 954 1358 l 1,17,-1
 1030 1217 l 1,0,-1
EndSplineSet
EndChar
StartChar: plus
Encoding: 43 43 43
Width: 1716
Flags: W
Fore
977 1284 m 1,0,-1
 977 760 l 1,1,-1
 1499 760 l 1,2,-1
 1499 524 l 1,3,-1
 977 524 l 1,4,-1
 977 0 l 1,5,-1
 739 0 l 1,6,-1
 739 524 l 1,7,-1
 217 524 l 1,8,-1
 217 760 l 1,9,-1
 739 760 l 1,10,-1
 739 1284 l 1,11,-1
 977 1284 l 1,0,-1
EndSplineSet
EndChar
StartChar: comma
Encoding: 44 44 44
Width: 778
Flags: W
Fore
164 387 m 1,0,-1
 524 387 l 1,1,-1
 465 82 l 1,2,-1
 143 -291 l 1,3,-1
 -70 -291 l 1,4,-1
 104 82 l 1,5,-1
 164 387 l 1,0,-1
EndSplineSet
EndChar
StartChar: hyphen
Encoding: 45 45 45
Width: 850
Flags: W
Fore
109 735 m 1,0,-1
 737 735 l 1,1,-1
 680 444 l 1,2,-1
 51 444 l 1,3,-1
 109 735 l 1,0,-1
EndSplineSet
KernsSLIFO: 356 -301 0 0 221 -339 0 0 376 -339 0 0 89 -339 0 0 88 -206 0 0 87 -92 0 0 86 -149 0 0 84 -301 0 0
EndChar
StartChar: period
Encoding: 46 46 46
Width: 778
Flags: W
Fore
170 387 m 1,0,-1
 530 387 l 1,1,-1
 455 0 l 1,2,-1
 94 0 l 1,3,-1
 170 387 l 1,0,-1
EndSplineSet
EndChar
StartChar: slash
Encoding: 47 47 47
Width: 748
Flags: W
Fore
657 1493 m 1,0,-1
 889 1493 l 1,1,-1
 35 -190 l 1,2,-1
 -197 -190 l 1,3,-1
 657 1493 l 1,0,-1
EndSplineSet
EndChar
StartChar: zero
Encoding: 48 48 48
Width: 1425
Flags: W
Fore
612 233 m 0,0,1
 689 233 689 233 748.5 279 c 128,-1,2
 808 325 808 325 848 414 c 0,3,4
 876 477 876 477 899 557.5 c 128,-1,5
 922 638 922 638 942 748 c 0,6,7
 959 837 959 837 968 912 c 128,-1,8
 977 987 977 987 977 1040 c 0,9,10
 977 1152 977 1152 937 1204.5 c 128,-1,11
 897 1257 897 1257 813 1257 c 0,12,13
 735 1257 735 1257 676 1212.5 c 128,-1,14
 617 1168 617 1168 578 1077 c 1,15,16
 548 1012 548 1012 523.5 929 c 128,-1,17
 499 846 499 846 481 748 c 0,18,19
 464 658 464 658 455 581 c 128,-1,20
 446 504 446 504 446 451 c 0,21,22
 446 340 446 340 487 286.5 c 128,-1,23
 528 233 528 233 612 233 c 0,0,1
1352 983 m 0,24,25
 1352 784 1352 784 1297 596 c 128,-1,26
 1242 408 1242 408 1143 266 c 0,27,28
 1042 120 1042 120 899 45.5 c 128,-1,29
 756 -29 756 -29 580 -29 c 0,30,31
 335 -29 335 -29 204.5 110 c 128,-1,32
 74 249 74 249 74 510 c 0,33,34
 74 706 74 706 128.5 894.5 c 128,-1,35
 183 1083 183 1083 281 1223 c 0,36,37
 384 1370 384 1370 526 1445 c 128,-1,38
 668 1520 668 1520 846 1520 c 0,39,40
 1089 1520 1089 1520 1220.5 1380.5 c 128,-1,41
 1352 1241 1352 1241 1352 983 c 0,24,25
EndSplineSet
EndChar
StartChar: one
Encoding: 49 49 49
Width: 1425
Flags: W
Fore
141 266 m 1,0,-1
 481 266 l 1,1,-1
 668 1231 l 1,2,-1
 305 1159 l 1,3,-1
 356 1421 l 1,4,-1
 717 1493 l 1,5,-1
 1083 1493 l 1,6,-1
 846 266 l 1,7,-1
 1184 266 l 1,8,-1
 1133 0 l 1,9,-1
 88 0 l 1,10,-1
 141 266 l 1,0,-1
EndSplineSet
EndChar
StartChar: two
Encoding: 50 50 50
Width: 1425
Flags: W
Fore
506 283 m 1,0,-1
 1155 283 l 1,1,-1
 1100 0 l 1,2,-1
 16 0 l 1,3,-1
 72 285 l 1,4,-1
 707 764 l 1,5,6
 811 844 811 844 865.5 926 c 128,-1,7
 920 1008 920 1008 920 1085 c 0,8,9
 920 1167 920 1167 864 1212 c 128,-1,10
 808 1257 808 1257 707 1257 c 0,11,12
 612 1257 612 1257 495 1219.5 c 128,-1,13
 378 1182 378 1182 231 1104 c 1,14,-1
 295 1421 l 1,15,16
 431 1471 431 1471 562 1495.5 c 128,-1,17
 693 1520 693 1520 821 1520 c 0,18,19
 1049 1520 1049 1520 1180 1421.5 c 128,-1,20
 1311 1323 1311 1323 1311 1153 c 0,21,22
 1311 1007 1311 1007 1231 887 c 128,-1,23
 1151 767 1151 767 879 563 c 2,24,-1
 506 283 l 1,0,-1
EndSplineSet
EndChar
StartChar: three
Encoding: 51 51 51
Width: 1425
Flags: W
Fore
967 805 m 1,0,1
 1080 779 1080 779 1143 700 c 128,-1,2
 1206 621 1206 621 1206 506 c 0,3,4
 1206 258 1206 258 1009.5 114.5 c 128,-1,5
 813 -29 813 -29 469 -29 c 0,6,7
 339 -29 339 -29 221.5 -10.5 c 128,-1,8
 104 8 104 8 0 45 c 1,9,-1
 57 342 l 1,10,11
 146 290 146 290 251 261.5 c 128,-1,12
 356 233 356 233 461 233 c 0,13,14
 630 233 630 233 728.5 296.5 c 128,-1,15
 827 360 827 360 827 467 c 0,16,17
 827 556 827 556 752 600.5 c 128,-1,18
 677 645 677 645 526 645 c 2,19,-1
 373 645 l 1,20,-1
 422 893 l 1,21,-1
 584 893 l 2,22,23
 741 893 741 893 832.5 950 c 128,-1,24
 924 1007 924 1007 924 1104 c 0,25,26
 924 1180 924 1180 860.5 1220 c 128,-1,27
 797 1260 797 1260 676 1260 c 0,28,29
 591 1260 591 1260 491 1238 c 128,-1,30
 391 1216 391 1216 283 1174 c 1,31,-1
 338 1456 l 1,32,33
 456 1488 456 1488 570.5 1504 c 128,-1,34
 685 1520 685 1520 797 1520 c 0,35,36
 1050 1520 1050 1520 1177.5 1436 c 128,-1,37
 1305 1352 1305 1352 1305 1186 c 0,38,39
 1305 1037 1305 1037 1216.5 937.5 c 128,-1,40
 1128 838 1128 838 967 805 c 1,0,1
EndSplineSet
EndChar
StartChar: four
Encoding: 52 52 52
Width: 1425
Flags: W
Fore
844 1165 m 1,0,-1
 313 551 l 1,1,-1
 723 551 l 1,2,-1
 844 1165 l 1,0,-1
834 1493 m 1,3,-1
 1272 1493 l 1,4,-1
 1087 551 l 1,5,-1
 1300 551 l 1,6,-1
 1247 272 l 1,7,-1
 1034 272 l 1,8,-1
 981 0 l 1,9,-1
 616 0 l 1,10,-1
 670 272 l 1,11,-1
 -2 272 l 1,12,-1
 63 602 l 1,13,-1
 834 1493 l 1,3,-1
EndSplineSet
EndChar
StartChar: five
Encoding: 53 53 53
Width: 1425
Flags: W
Fore
362 1493 m 1,0,-1
 1319 1493 l 1,1,-1
 1264 1210 l 1,2,-1
 614 1210 l 1,3,-1
 569 979 l 1,4,5
 613 991 613 991 660.5 997.5 c 128,-1,6
 708 1004 708 1004 756 1004 c 0,7,8
 985 1004 985 1004 1114 899.5 c 128,-1,9
 1243 795 1243 795 1243 610 c 0,10,11
 1243 316 1243 316 1044 143.5 c 128,-1,12
 845 -29 845 -29 504 -29 c 0,13,14
 379 -29 379 -29 261 -4.5 c 128,-1,15
 143 20 143 20 27 70 c 1,16,-1
 86 373 l 1,17,18
 197 301 197 301 301.5 267 c 128,-1,19
 406 233 406 233 514 233 c 0,20,21
 672 233 672 233 767 315.5 c 128,-1,22
 862 398 862 398 862 532 c 0,23,24
 862 628 862 628 790 684.5 c 128,-1,25
 718 741 718 741 594 741 c 0,26,27
 510 741 510 741 412.5 719.5 c 128,-1,28
 315 698 315 698 199 653 c 1,29,-1
 362 1493 l 1,0,-1
EndSplineSet
EndChar
StartChar: six
Encoding: 54 54 54
Width: 1425
Flags: W
Fore
741 737 m 0,0,1
 627 737 627 737 554 643 c 128,-1,2
 481 549 481 549 481 401 c 0,3,4
 481 312 481 312 526 262.5 c 128,-1,5
 571 213 571 213 651 213 c 0,6,7
 764 213 764 213 837.5 305.5 c 128,-1,8
 911 398 911 398 911 539 c 0,9,10
 911 635 911 635 867 686 c 128,-1,11
 823 737 823 737 741 737 c 0,0,1
1352 1454 m 1,12,-1
 1298 1178 l 1,13,14
 1212 1222 1212 1222 1131 1244 c 128,-1,15
 1050 1266 1050 1266 969 1266 c 0,16,17
 783 1266 783 1266 668 1166 c 128,-1,18
 553 1066 553 1066 528 885 c 1,19,20
 606 936 606 936 688.5 960.5 c 128,-1,21
 771 985 771 985 864 985 c 0,22,23
 1048 985 1048 985 1165 876 c 128,-1,24
 1282 767 1282 767 1282 598 c 0,25,26
 1282 322 1282 322 1101.5 145.5 c 128,-1,27
 921 -31 921 -31 637 -31 c 0,28,29
 382 -31 382 -31 242 113.5 c 128,-1,30
 102 258 102 258 102 522 c 0,31,32
 102 726 102 726 164 911.5 c 128,-1,33
 226 1097 226 1097 338 1231 c 0,34,35
 458 1374 458 1374 621.5 1446 c 128,-1,36
 785 1518 785 1518 989 1518 c 0,37,38
 1083 1518 1083 1518 1172 1502 c 128,-1,39
 1261 1486 1261 1486 1352 1454 c 1,12,-1
EndSplineSet
EndChar
StartChar: seven
Encoding: 55 55 55
Width: 1425
Flags: W
Fore
295 1493 m 1,0,-1
 1421 1493 l 1,1,-1
 1376 1274 l 1,2,-1
 545 0 l 1,3,-1
 160 0 l 1,4,-1
 950 1210 l 1,5,-1
 242 1210 l 1,6,-1
 295 1493 l 1,0,-1
EndSplineSet
EndChar
StartChar: eight
Encoding: 56 56 56
Width: 1425
Flags: W
Fore
688 668 m 0,0,1
 571 668 571 668 492.5 588.5 c 128,-1,2
 414 509 414 509 414 393 c 0,3,4
 414 310 414 310 465 261.5 c 128,-1,5
 516 213 516 213 604 213 c 0,6,7
 723 213 723 213 801 291.5 c 128,-1,8
 879 370 879 370 879 487 c 0,9,10
 879 570 879 570 827.5 619 c 128,-1,11
 776 668 776 668 688 668 c 0,0,1
442 795 m 1,12,13
 334 840 334 840 280.5 912 c 128,-1,14
 227 984 227 984 227 1085 c 0,15,16
 227 1288 227 1288 393.5 1404 c 128,-1,17
 560 1520 560 1520 854 1520 c 0,18,19
 1090 1520 1090 1520 1220 1432 c 128,-1,20
 1350 1344 1350 1344 1350 1184 c 0,21,22
 1350 1042 1350 1042 1259.5 941 c 128,-1,23
 1169 840 1169 840 1001 795 c 1,24,25
 1123 748 1123 748 1181 669 c 128,-1,26
 1239 590 1239 590 1239 469 c 0,27,28
 1239 239 1239 239 1059.5 105 c 128,-1,29
 880 -29 880 -29 567 -29 c 0,30,31
 320 -29 320 -29 182.5 69.5 c 128,-1,32
 45 168 45 168 45 344 c 0,33,34
 45 503 45 503 150.5 622.5 c 128,-1,35
 256 742 256 742 442 795 c 1,12,13
819 1278 m 0,36,37
 717 1278 717 1278 655.5 1218.5 c 128,-1,38
 594 1159 594 1159 594 1061 c 0,39,40
 594 993 594 993 638.5 951 c 128,-1,41
 683 909 683 909 756 909 c 0,42,43
 858 909 858 909 919.5 968.5 c 128,-1,44
 981 1028 981 1028 981 1126 c 0,45,46
 981 1195 981 1195 936.5 1236.5 c 128,-1,47
 892 1278 892 1278 819 1278 c 0,36,37
EndSplineSet
EndChar
StartChar: nine
Encoding: 57 57 57
Width: 1425
Flags: W
Fore
84 33 m 1,0,-1
 137 309 l 1,1,2
 224 264 224 264 305 242.5 c 128,-1,3
 386 221 386 221 467 221 c 0,4,5
 653 221 653 221 768 321 c 128,-1,6
 883 421 883 421 907 602 c 1,7,8
 830 551 830 551 748 526.5 c 128,-1,9
 666 502 666 502 573 502 c 0,10,11
 390 502 390 502 273 611 c 128,-1,12
 156 720 156 720 156 889 c 0,13,14
 156 1165 156 1165 336.5 1341.5 c 128,-1,15
 517 1518 517 1518 801 1518 c 0,16,17
 1056 1518 1056 1518 1195.5 1373.5 c 128,-1,18
 1335 1229 1335 1229 1335 965 c 0,19,20
 1335 762 1335 762 1273 576.5 c 128,-1,21
 1211 391 1211 391 1098 256 c 0,22,23
 978 113 978 113 815.5 41 c 128,-1,24
 653 -31 653 -31 449 -31 c 0,25,26
 354 -31 354 -31 264 -15 c 128,-1,27
 174 1 174 1 84 33 c 1,0,-1
694 750 m 0,28,29
 808 750 808 750 881 844 c 128,-1,30
 954 938 954 938 954 1085 c 0,31,32
 954 1176 954 1176 910.5 1225 c 128,-1,33
 867 1274 867 1274 786 1274 c 0,34,35
 673 1274 673 1274 598.5 1181 c 128,-1,36
 524 1088 524 1088 524 948 c 0,37,38
 524 852 524 852 568 801 c 128,-1,39
 612 750 612 750 694 750 c 0,28,29
EndSplineSet
EndChar
StartChar: colon
Encoding: 58 58 58
Width: 819
Flags: W
Fore
301 1120 m 1,0,-1
 662 1120 l 1,1,-1
 588 733 l 1,2,-1
 227 733 l 1,3,-1
 301 1120 l 1,0,-1
160 387 m 1,4,-1
 520 387 l 1,5,-1
 444 0 l 1,6,-1
 84 0 l 1,7,-1
 160 387 l 1,4,-1
EndSplineSet
EndChar
StartChar: semicolon
Encoding: 59 59 59
Width: 819
Flags: W
Fore
160 387 m 1,0,-1
 520 387 l 1,1,-1
 461 82 l 1,2,-1
 141 -291 l 1,3,-1
 -72 -291 l 1,4,-1
 100 82 l 1,5,-1
 160 387 l 1,0,-1
301 1120 m 1,6,-1
 662 1120 l 1,7,-1
 588 733 l 1,8,-1
 227 733 l 1,9,-1
 301 1120 l 1,6,-1
EndSplineSet
EndChar
StartChar: less
Encoding: 60 60 60
Width: 1716
Flags: W
Fore
1499 973 m 1,0,-1
 535 641 l 1,1,-1
 1499 311 l 1,2,-1
 1499 61 l 1,3,-1
 217 524 l 1,4,-1
 217 760 l 1,5,-1
 1499 1223 l 1,6,-1
 1499 973 l 1,0,-1
EndSplineSet
EndChar
StartChar: equal
Encoding: 61 61 61
Width: 1716
Flags: W
Fore
217 987 m 1,0,-1
 1499 987 l 1,1,-1
 1499 752 l 1,2,-1
 217 752 l 1,3,-1
 217 987 l 1,0,-1
217 532 m 1,4,-1
 1499 532 l 1,5,-1
 1499 295 l 1,6,-1
 217 295 l 1,7,-1
 217 532 l 1,4,-1
EndSplineSet
EndChar
StartChar: greater
Encoding: 62 62 62
Width: 1716
Flags: W
Fore
217 973 m 1,0,-1
 217 1223 l 1,1,-1
 1499 760 l 1,2,-1
 1499 524 l 1,3,-1
 217 61 l 1,4,-1
 217 311 l 1,5,-1
 1182 641 l 1,6,-1
 217 973 l 1,0,-1
EndSplineSet
EndChar
StartChar: question
Encoding: 63 63 63
Width: 1188
Flags: W
Fore
283 356 m 1,0,-1
 643 356 l 1,1,-1
 573 0 l 1,2,-1
 213 0 l 1,3,-1
 283 356 l 1,0,-1
672 504 m 1,4,-1
 311 504 l 1,5,-1
 319 553 l 1,6,7
 335 633 335 633 378.5 695.5 c 128,-1,8
 422 758 422 758 553 860 c 2,9,-1
 627 918 l 2,10,11
 706 979 706 979 742 1032 c 128,-1,12
 778 1085 778 1085 778 1139 c 0,13,14
 778 1196 778 1196 737.5 1226.5 c 128,-1,15
 697 1257 697 1257 621 1257 c 0,16,17
 541 1257 541 1257 440.5 1223.5 c 128,-1,18
 340 1190 340 1190 225 1124 c 1,19,-1
 287 1438 l 1,20,21
 414 1480 414 1480 519 1500 c 128,-1,22
 624 1520 624 1520 721 1520 c 0,23,24
 915 1520 915 1520 1025 1434.5 c 128,-1,25
 1135 1349 1135 1349 1135 1200 c 0,26,27
 1135 1081 1135 1081 1082 987 c 128,-1,28
 1029 893 1029 893 901 791 c 2,29,-1
 825 731 l 2,30,31
 745 669 745 669 716.5 630.5 c 128,-1,32
 688 592 688 592 680 549 c 1,33,-1
 672 504 l 1,4,-1
EndSplineSet
EndChar
StartChar: at
Encoding: 64 64 64
Width: 2048
Flags: W
Fore
1034 801 m 0,0,1
 928 801 928 801 852 696 c 128,-1,2
 776 591 776 591 776 446 c 0,3,4
 776 362 776 362 816.5 318 c 128,-1,5
 857 274 857 274 934 274 c 0,6,7
 1040 274 1040 274 1114 374.5 c 128,-1,8
 1188 475 1188 475 1188 621 c 0,9,10
 1188 707 1188 707 1148 754 c 128,-1,11
 1108 801 1108 801 1034 801 c 0,0,1
1147 246 m 1,12,13
 1102 171 1102 171 1027 129.5 c 128,-1,14
 952 88 952 88 862 88 c 0,15,16
 719 88 719 88 637 182.5 c 128,-1,17
 555 277 555 277 555 444 c 0,18,19
 555 665 555 665 697 826 c 128,-1,20
 839 987 839 987 1036 987 c 0,21,22
 1119 987 1119 987 1181.5 945 c 128,-1,23
 1244 903 1244 903 1264 834 c 1,24,-1
 1288 967 l 1,25,-1
 1491 967 l 1,26,-1
 1358 274 l 1,27,28
 1509 296 1509 296 1610.5 437.5 c 128,-1,29
 1712 579 1712 579 1712 770 c 0,30,31
 1712 983 1712 983 1547.5 1118 c 128,-1,32
 1383 1253 1383 1253 1120 1253 c 0,33,34
 924 1253 924 1253 755.5 1177 c 128,-1,35
 587 1101 587 1101 469 958 c 0,36,37
 377 848 377 848 329 716 c 128,-1,38
 281 584 281 584 281 442 c 0,39,40
 281 173 281 173 446.5 2.5 c 128,-1,41
 612 -168 612 -168 872 -168 c 0,42,43
 990 -168 990 -168 1105.5 -124.5 c 128,-1,44
 1221 -81 1221 -81 1325 2 c 1,45,-1
 1434 -156 l 1,46,47
 1288 -254 1288 -254 1145 -303 c 128,-1,48
 1002 -352 1002 -352 860 -352 c 0,49,50
 725 -352 725 -352 600 -311 c 128,-1,51
 475 -270 475 -270 377 -193 c 0,52,53
 237 -85 237 -85 164.5 74 c 128,-1,54
 92 233 92 233 92 434 c 0,55,56
 92 610 92 610 152 774 c 128,-1,57
 212 938 212 938 326 1075 c 0,58,59
 472 1251 472 1251 677.5 1345.5 c 128,-1,60
 883 1440 883 1440 1120 1440 c 0,61,62
 1286 1440 1286 1440 1427 1393.5 c 128,-1,63
 1568 1347 1568 1347 1679 1255 c 1,64,65
 1784 1166 1784 1166 1841 1046.5 c 128,-1,66
 1898 927 1898 927 1898 797 c 0,67,68
 1898 482 1898 482 1693.5 285 c 128,-1,69
 1489 88 1489 88 1157 88 c 0,70,71
 1152 88 1152 88 1143 87 c 128,-1,72
 1134 86 1134 86 1130 86 c 0,73,74
 1125 86 1125 86 1121.5 86.5 c 128,-1,75
 1118 87 1118 87 1116 88 c 1,76,-1
 1147 246 l 1,12,13
EndSplineSet
EndChar
StartChar: A
Encoding: 65 65 65
Width: 1585
Flags: W
Fore
1006 272 m 1,0,-1
 410 272 l 1,1,-1
 262 0 l 1,2,-1
 -133 0 l 1,3,-1
 711 1493 l 1,4,-1
 1151 1493 l 1,5,-1
 1415 0 l 1,6,-1
 1049 0 l 1,7,-1
 1006 272 l 1,0,-1
555 543 m 1,8,-1
 956 543 l 1,9,-1
 866 1118 l 1,10,-1
 555 543 l 1,8,-1
EndSplineSet
KernsSLIFO: 7923 -149 0 0 563 -149 0 0 375 -149 0 0 7813 -92 0 0 7811 -92 0 0 7809 -92 0 0 373 -92 0 0 539 -112 0 0 355 -112 0 0 267 -63 0 0 265 -63 0 0 562 -235 0 0 7922 -235 0 0 374 -235 0 0 7812 -112 0 0 7810 -112 0 0 7808 -112 0 0 372 -112 0 0 370 -92 0 0 368 -92 0 0 364 -92 0 0 362 -92 0 0 360 -92 0 0 538 -196 0 0 354 -196 0 0 558 -63 0 0 492 -63 0 0 490 -63 0 0 336 -63 0 0 334 -63 0 0 332 -63 0 0 266 -63 0 0 264 -63 0 0 366 -92 0 0 357 -112 0 0 356 -196 0 0 271 -63 0 0 273 -63 0 0 269 -63 0 0 268 -63 0 0 263 -63 0 0 262 -63 0 0 253 -149 0 0 221 -235 0 0 217 -92 0 0 219 -92 0 0 218 -92 0 0 210 -63 0 0 212 -63 0 0 211 -63 0 0 8222 104 0 0 8218 104 0 0 376 -235 0 0 255 -149 0 0 8217 -253 0 0 8221 -253 0 0 338 -63 0 0 213 -63 0 0 216 -63 0 0 231 -63 0 0 220 -92 0 0 214 -63 0 0 199 -63 0 0 121 -149 0 0 119 -92 0 0 118 -112 0 0 116 -112 0 0 100 -63 0 0 99 -63 0 0 89 -235 0 0 87 -112 0 0 86 -139 0 0 85 -92 0 0 84 -196 0 0 79 -63 0 0 67 -63 0 0 59 38 0 0 58 38 0 0 46 38 0 0 44 38 0 0
EndChar
StartChar: B
Encoding: 66 66 66
Width: 1561
Flags: W
Fore
819 915 m 2,0,1
 922 915 922 915 980 967 c 128,-1,2
 1038 1019 1038 1019 1038 1110 c 0,3,4
 1038 1169 1038 1169 997.5 1200 c 128,-1,5
 957 1231 957 1231 881 1231 c 2,6,-1
 666 1231 l 1,7,-1
 604 915 l 1,8,-1
 819 915 l 2,0,1
705 262 m 2,9,10
 837 262 837 262 908 325 c 128,-1,11
 979 388 979 388 979 506 c 0,12,13
 979 581 979 581 930 617 c 128,-1,14
 881 653 881 653 780 653 c 2,15,-1
 553 653 l 1,16,-1
 477 262 l 1,17,-1
 705 262 l 2,9,10
1161 799 m 1,18,19
 1259 771 1259 771 1312.5 696.5 c 128,-1,20
 1366 622 1366 622 1366 512 c 0,21,22
 1366 271 1366 271 1186.5 135.5 c 128,-1,23
 1007 0 1007 0 682 0 c 2,24,-1
 43 0 l 1,25,-1
 334 1493 l 1,26,-1
 911 1493 l 2,27,28
 1177 1493 1177 1493 1304.5 1415 c 128,-1,29
 1432 1337 1432 1337 1432 1174 c 0,30,31
 1432 1037 1432 1037 1357 933.5 c 128,-1,32
 1282 830 1282 830 1161 799 c 1,18,19
EndSplineSet
KernsSLIFO: 7922 -112 0 0 562 -112 0 0 374 -112 0 0 7812 -112 0 0 7810 -112 0 0 7808 -112 0 0 372 -112 0 0 221 -112 0 0 376 -112 0 0 89 -112 0 0 87 -112 0 0 86 -83 0 0
EndChar
StartChar: C
Encoding: 67 67 67
Width: 1503
Flags: W
Fore
1241 70 m 1,0,1
 1103 21 1103 21 976 -4 c 128,-1,2
 849 -29 849 -29 735 -29 c 0,3,4
 434 -29 434 -29 254 136 c 128,-1,5
 74 301 74 301 74 573 c 0,6,7
 74 752 74 752 131 910.5 c 128,-1,8
 188 1069 188 1069 299 1200 c 0,9,10
 430 1354 430 1354 614.5 1437 c 128,-1,11
 799 1520 799 1520 1012 1520 c 0,12,13
 1128 1520 1128 1520 1245 1492.5 c 128,-1,14
 1362 1465 1362 1465 1483 1409 c 1,15,-1
 1421 1100 l 1,16,17
 1325 1173 1325 1173 1228 1207 c 128,-1,18
 1131 1241 1131 1241 1020 1241 c 0,19,20
 789 1241 789 1241 633 1063 c 128,-1,21
 477 885 477 885 477 618 c 0,22,23
 477 446 477 446 573 348 c 128,-1,24
 669 250 669 250 838 250 c 0,25,26
 939 250 939 250 1052.5 286.5 c 128,-1,27
 1166 323 1166 323 1307 401 c 1,28,-1
 1241 70 l 1,0,1
EndSplineSet
KernsSLIFO: 536 -73 0 0 348 -73 0 0 346 -73 0 0 350 -73 0 0 352 -73 0 0 83 -73 0 0
EndChar
StartChar: D
Encoding: 68 68 68
Width: 1700
Flags: W
Fore
664 1202 m 1,0,-1
 485 291 l 1,1,-1
 623 291 l 2,2,3
 892 291 892 291 1049 442 c 128,-1,4
 1206 593 1206 593 1206 850 c 0,5,6
 1206 1024 1206 1024 1103.5 1113 c 128,-1,7
 1001 1202 1001 1202 799 1202 c 2,8,-1
 664 1202 l 1,0,-1
334 1493 m 1,9,-1
 739 1493 l 2,10,11
 1029 1493 1029 1493 1174 1458.5 c 128,-1,12
 1319 1424 1319 1424 1415 1343 c 0,13,14
 1512 1262 1512 1262 1561 1146.5 c 128,-1,15
 1610 1031 1610 1031 1610 885 c 0,16,17
 1610 682 1610 682 1526.5 502.5 c 128,-1,18
 1443 323 1443 323 1292 201 c 1,19,20
 1160 92 1160 92 985.5 46 c 128,-1,21
 811 0 811 0 449 0 c 2,22,-1
 43 0 l 1,23,-1
 334 1493 l 1,9,-1
EndSplineSet
KernsSLIFO: 7922 -159 0 0 562 -159 0 0 374 -159 0 0 221 -159 0 0 8222 -36 0 0 8218 -36 0 0 376 -159 0 0 89 -159 0 0 45 38 0 0
EndChar
StartChar: E
Encoding: 69 69 69
Width: 1399
Flags: W
Fore
334 1493 m 1,0,-1
 1372 1493 l 1,1,-1
 1315 1202 l 1,2,-1
 662 1202 l 1,3,-1
 608 924 l 1,4,-1
 1223 924 l 1,5,-1
 1165 633 l 1,6,-1
 551 633 l 1,7,-1
 485 291 l 1,8,-1
 1159 291 l 1,9,-1
 1104 0 l 1,10,-1
 43 0 l 1,11,-1
 334 1493 l 1,0,-1
EndSplineSet
EndChar
StartChar: F
Encoding: 70 70 70
Width: 1399
Flags: W
Fore
334 1493 m 1,0,-1
 1372 1493 l 1,1,-1
 1315 1202 l 1,2,-1
 662 1202 l 1,3,-1
 608 924 l 1,4,-1
 1223 924 l 1,5,-1
 1165 633 l 1,6,-1
 551 633 l 1,7,-1
 428 0 l 1,8,-1
 43 0 l 1,9,-1
 334 1493 l 1,0,-1
EndSplineSet
KernsSLIFO: 483 -235 0 0 7923 -188 0 0 563 -188 0 0 375 -188 0 0 371 -196 0 0 369 -196 0 0 365 -196 0 0 363 -196 0 0 361 -196 0 0 343 -225 0 0 559 -159 0 0 493 -159 0 0 491 -159 0 0 337 -159 0 0 335 -159 0 0 333 -159 0 0 281 -159 0 0 279 -159 0 0 277 -159 0 0 275 -159 0 0 261 -235 0 0 259 -235 0 0 257 -235 0 0 260 -264 0 0 258 -264 0 0 256 -264 0 0 252 -196 0 0 229 -235 0 0 230 -235 0 0 59 -112 0 0 242 -159 0 0 45 -102 0 0 8222 -452 0 0 367 -196 0 0 245 -159 0 0 235 -159 0 0 249 -196 0 0 44 -444 0 0 224 -235 0 0 195 -264 0 0 234 -159 0 0 341 -225 0 0 232 -159 0 0 196 -264 0 0 193 -264 0 0 8217 -36 0 0 251 -196 0 0 253 -188 0 0 8218 -452 0 0 227 -235 0 0 194 -264 0 0 248 -159 0 0 244 -159 0 0 65 -264 0 0 97 -235 0 0 228 -235 0 0 246 -159 0 0 250 -196 0 0 225 -235 0 0 345 -225 0 0 46 -452 0 0 226 -235 0 0 233 -159 0 0 283 -159 0 0 101 -159 0 0 339 -159 0 0 255 -188 0 0 111 -159 0 0 114 -225 0 0 117 -196 0 0 192 -264 0 0 121 -188 0 0 58 -112 0 0 243 -159 0 0
EndChar
StartChar: G
Encoding: 71 71 71
Width: 1681
Flags: W
Fore
1395 111 m 1,0,1
 1249 40 1249 40 1092 5.5 c 128,-1,2
 935 -29 935 -29 756 -29 c 0,3,4
 438 -29 438 -29 256 132.5 c 128,-1,5
 74 294 74 294 74 573 c 0,6,7
 74 754 74 754 131 912.5 c 128,-1,8
 188 1071 188 1071 301 1202 c 0,9,10
 439 1362 439 1362 626.5 1441 c 128,-1,11
 814 1520 814 1520 1055 1520 c 0,12,13
 1189 1520 1189 1520 1325 1492 c 128,-1,14
 1461 1464 1461 1464 1593 1409 c 1,15,-1
 1534 1100 l 1,16,17
 1412 1171 1412 1171 1295.5 1206 c 128,-1,18
 1179 1241 1179 1241 1061 1241 c 0,19,20
 803 1241 803 1241 641 1069 c 128,-1,21
 479 897 479 897 479 627 c 0,22,23
 479 448 479 448 573.5 349 c 128,-1,24
 668 250 668 250 840 250 c 0,25,26
 896 250 896 250 952 257.5 c 128,-1,27
 1008 265 1008 265 1065 281 c 1,28,-1
 1122 571 l 1,29,-1
 887 571 l 1,30,-1
 936 829 l 1,31,-1
 1534 829 l 1,32,-1
 1395 111 l 1,0,1
EndSplineSet
KernsSLIFO: 356 -36 0 0 221 -83 0 0 376 -83 0 0 89 -83 0 0 84 -36 0 0
EndChar
StartChar: H
Encoding: 72 72 72
Width: 1714
Flags: W
Fore
334 1493 m 1,0,-1
 719 1493 l 1,1,-1
 608 924 l 1,2,-1
 1176 924 l 1,3,-1
 1286 1493 l 1,4,-1
 1671 1493 l 1,5,-1
 1380 0 l 1,6,-1
 995 0 l 1,7,-1
 1118 633 l 1,8,-1
 551 633 l 1,9,-1
 428 0 l 1,10,-1
 43 0 l 1,11,-1
 334 1493 l 1,0,-1
EndSplineSet
EndChar
StartChar: I
Encoding: 73 73 73
Width: 762
Flags: W
Fore
334 1493 m 1,0,-1
 719 1493 l 1,1,-1
 428 0 l 1,2,-1
 43 0 l 1,3,-1
 334 1493 l 1,0,-1
EndSplineSet
EndChar
StartChar: J
Encoding: 74 74 74
Width: 762
Flags: W
Fore
334 1493 m 1,0,-1
 719 1493 l 1,1,-1
 457 145 l 1,2,3
 399 -147 399 -147 229.5 -278.5 c 128,-1,4
 60 -410 60 -410 -262 -410 c 2,5,-1
 -340 -410 l 1,6,-1
 -283 -119 l 1,7,-1
 -223 -119 l 2,8,9
 -104 -119 -104 -119 -28.5 -51.5 c 128,-1,10
 47 16 47 16 72 145 c 2,11,-1
 334 1493 l 1,0,-1
EndSplineSet
EndChar
StartChar: K
Encoding: 75 75 75
Width: 1587
Flags: W
Fore
334 1493 m 1,0,-1
 719 1493 l 1,1,-1
 614 956 l 1,2,-1
 1249 1493 l 1,3,-1
 1714 1493 l 1,4,-1
 858 768 l 1,5,-1
 1503 0 l 1,6,-1
 1051 0 l 1,7,-1
 549 623 l 1,8,-1
 428 0 l 1,9,-1
 43 0 l 1,10,-1
 334 1493 l 1,0,-1
EndSplineSet
KernsSLIFO: 367 -112 0 0 366 -73 0 0 283 -112 0 0 268 -131 0 0 262 -131 0 0 253 -206 0 0 217 -73 0 0 219 -73 0 0 218 -73 0 0 210 -131 0 0 212 -131 0 0 211 -131 0 0 8222 38 0 0 8218 38 0 0 255 -206 0 0 339 -112 0 0 338 -178 0 0 213 -131 0 0 248 -112 0 0 216 -55 0 0 252 -112 0 0 251 -112 0 0 249 -112 0 0 250 -112 0 0 245 -112 0 0 246 -112 0 0 244 -112 0 0 242 -112 0 0 243 -112 0 0 235 -112 0 0 234 -112 0 0 232 -112 0 0 233 -112 0 0 220 -73 0 0 214 -131 0 0 199 -131 0 0 121 -206 0 0 117 -112 0 0 111 -112 0 0 101 -112 0 0 87 -55 0 0 85 -73 0 0 79 -131 0 0 67 -131 0 0 45 -253 0 0
EndChar
StartChar: L
Encoding: 76 76 76
Width: 1305
Flags: W
Fore
334 1493 m 1,0,-1
 719 1493 l 1,1,-1
 485 291 l 1,2,-1
 1159 291 l 1,3,-1
 1104 0 l 1,4,-1
 43 0 l 1,5,-1
 334 1493 l 1,0,-1
EndSplineSet
KernsSLIFO: 366 -112 0 0 356 -339 0 0 253 -253 0 0 221 -319 0 0 217 -112 0 0 219 -112 0 0 218 -112 0 0 210 -73 0 0 212 -73 0 0 211 -73 0 0 376 -319 0 0 255 -253 0 0 8217 -509 0 0 8221 -528 0 0 338 -73 0 0 213 -73 0 0 216 -73 0 0 220 -112 0 0 214 -73 0 0 121 -253 0 0 89 -319 0 0 87 -178 0 0 86 -282 0 0 85 -112 0 0 84 -339 0 0 79 -73 0 0
EndChar
StartChar: M
Encoding: 77 77 77
Width: 2038
Flags: W
Fore
334 1493 m 1,0,-1
 807 1493 l 1,1,-1
 999 700 l 1,2,-1
 1503 1493 l 1,3,-1
 1995 1493 l 1,4,-1
 1704 0 l 1,5,-1
 1339 0 l 1,6,-1
 1552 1102 l 1,7,-1
 1034 287 l 1,8,-1
 827 287 l 1,9,-1
 621 1102 l 1,10,-1
 408 0 l 1,11,-1
 43 0 l 1,12,-1
 334 1493 l 1,0,-1
EndSplineSet
EndChar
StartChar: N
Encoding: 78 78 78
Width: 1714
Flags: W
Fore
334 1493 m 1,0,-1
 764 1493 l 1,1,-1
 1106 459 l 1,2,-1
 1307 1493 l 1,3,-1
 1671 1493 l 1,4,-1
 1380 0 l 1,5,-1
 950 0 l 1,6,-1
 608 1034 l 1,7,-1
 408 0 l 1,8,-1
 43 0 l 1,9,-1
 334 1493 l 1,0,-1
EndSplineSet
EndChar
StartChar: O
Encoding: 79 79 79
Width: 1741
Flags: W
Fore
1260 881 m 0,0,1
 1260 1057 1260 1057 1180.5 1149 c 128,-1,2
 1101 1241 1101 1241 950 1241 c 0,3,4
 750 1241 750 1241 614.5 1061.5 c 128,-1,5
 479 882 479 882 479 612 c 0,6,7
 479 440 479 440 558 345 c 128,-1,8
 637 250 637 250 778 250 c 0,9,10
 893 250 893 250 982.5 298.5 c 128,-1,11
 1072 347 1072 347 1135 442 c 0,12,13
 1195 533 1195 533 1227.5 647 c 128,-1,14
 1260 761 1260 761 1260 881 c 0,0,1
1006 1520 m 0,15,16
 1304 1520 1304 1520 1485.5 1354.5 c 128,-1,17
 1667 1189 1667 1189 1667 922 c 0,18,19
 1667 740 1667 740 1611.5 578 c 128,-1,20
 1556 416 1556 416 1450 287 c 0,21,22
 1320 128 1320 128 1142.5 49.5 c 128,-1,23
 965 -29 965 -29 733 -29 c 0,24,25
 436 -29 436 -29 255 136 c 128,-1,26
 74 301 74 301 74 569 c 0,27,28
 74 752 74 752 129 914 c 128,-1,29
 184 1076 184 1076 291 1206 c 0,30,31
 419 1364 419 1364 596.5 1442 c 128,-1,32
 774 1520 774 1520 1006 1520 c 0,15,16
EndSplineSet
KernsSLIFO: 221 -149 0 0 376 -149 0 0 89 -149 0 0 88 -73 0 0 86 -73 0 0 46 -45 0 0 45 38 0 0 44 -45 0 0
EndChar
StartChar: P
Encoding: 80 80 80
Width: 1501
Flags: W
Fore
334 1493 m 1,0,-1
 973 1493 l 2,1,2
 1208 1493 1208 1493 1340.5 1385.5 c 128,-1,3
 1473 1278 1473 1278 1473 1087 c 0,4,5
 1473 970 1473 970 1429 864.5 c 128,-1,6
 1385 759 1385 759 1303 680 c 0,7,8
 1214 595 1214 595 1091 556.5 c 128,-1,9
 968 518 968 518 782 518 c 2,10,-1
 528 518 l 1,11,-1
 428 0 l 1,12,-1
 43 0 l 1,13,-1
 334 1493 l 1,0,-1
666 1214 m 1,14,-1
 584 797 l 1,15,-1
 797 797 l 2,16,17
 933 797 933 797 1005 861 c 128,-1,18
 1077 925 1077 925 1077 1047 c 0,19,20
 1077 1128 1077 1128 1025.5 1171 c 128,-1,21
 974 1214 974 1214 877 1214 c 2,22,-1
 666 1214 l 1,14,-1
EndSplineSet
KernsSLIFO: 252 -73 0 0 229 -131 0 0 230 -131 0 0 45 -36 0 0 8222 -415 0 0 367 -73 0 0 235 -55 0 0 249 -73 0 0 44 -528 0 0 224 -131 0 0 195 -188 0 0 234 -55 0 0 341 -63 0 0 8221 38 0 0 232 -55 0 0 196 -188 0 0 193 -188 0 0 8217 57 0 0 251 -73 0 0 8218 -415 0 0 227 -131 0 0 194 -188 0 0 117 -73 0 0 353 -73 0 0 65 -188 0 0 97 -131 0 0 228 -131 0 0 250 -73 0 0 351 -73 0 0 225 -131 0 0 345 -63 0 0 226 -131 0 0 233 -55 0 0 283 -55 0 0 101 -55 0 0 115 -73 0 0 114 -63 0 0 46 -528 0 0 192 -188 0 0
EndChar
StartChar: Q
Encoding: 81 81 81
Width: 1741
Flags: W
Fore
760 -27 m 1,0,1
 749 -28 749 -28 738 -28.5 c 128,-1,2
 727 -29 727 -29 702 -29 c 0,3,4
 589 -29 589 -29 489 2 c 128,-1,5
 389 33 389 33 307 94 c 0,6,7
 197 175 197 175 135.5 300.5 c 128,-1,8
 74 426 74 426 74 569 c 0,9,10
 74 752 74 752 129.5 914.5 c 128,-1,11
 185 1077 185 1077 291 1206 c 0,12,13
 420 1365 420 1365 596.5 1442.5 c 128,-1,14
 773 1520 773 1520 1006 1520 c 0,15,16
 1304 1520 1304 1520 1485.5 1354.5 c 128,-1,17
 1667 1189 1667 1189 1667 922 c 0,18,19
 1667 608 1667 608 1514.5 371.5 c 128,-1,20
 1362 135 1362 135 1090 27 c 1,21,-1
 1319 -299 l 1,22,-1
 952 -299 l 1,23,-1
 760 -27 l 1,0,1
1260 881 m 0,24,25
 1260 1057 1260 1057 1180.5 1149 c 128,-1,26
 1101 1241 1101 1241 950 1241 c 0,27,28
 750 1241 750 1241 614.5 1061.5 c 128,-1,29
 479 882 479 882 479 612 c 0,30,31
 479 440 479 440 558 345 c 128,-1,32
 637 250 637 250 778 250 c 0,33,34
 893 250 893 250 982.5 298.5 c 128,-1,35
 1072 347 1072 347 1135 442 c 0,36,37
 1195 533 1195 533 1227.5 647 c 128,-1,38
 1260 761 1260 761 1260 881 c 0,24,25
EndSplineSet
KernsSLIFO: 45 38 0 0
EndChar
StartChar: R
Encoding: 82 82 82
Width: 1577
Flags: W
Fore
752 831 m 2,0,1
 883 831 883 831 950.5 892 c 128,-1,2
 1018 953 1018 953 1018 1071 c 0,3,4
 1018 1145 1018 1145 971.5 1179.5 c 128,-1,5
 925 1214 925 1214 825 1214 c 2,6,-1
 666 1214 l 1,7,-1
 590 831 l 1,8,-1
 752 831 l 2,0,1
539 565 m 1,9,-1
 428 0 l 1,10,-1
 43 0 l 1,11,-1
 334 1493 l 1,12,-1
 903 1493 l 2,13,14
 1149 1493 1149 1493 1276 1401 c 128,-1,15
 1403 1309 1403 1309 1403 1130 c 0,16,17
 1403 949 1403 949 1303 832 c 128,-1,18
 1203 715 1203 715 1032 698 c 1,19,20
 1110 682 1110 682 1162 618.5 c 128,-1,21
 1214 555 1214 555 1253 424 c 2,22,-1
 1380 0 l 1,23,-1
 997 0 l 1,24,-1
 885 371 l 1,25,26
 851 482 851 482 802.5 523.5 c 128,-1,27
 754 565 754 565 662 565 c 2,28,-1
 539 565 l 1,9,-1
EndSplineSet
KernsSLIFO: 367 -112 0 0 356 -92 0 0 283 -102 0 0 253 -131 0 0 221 -188 0 0 376 -188 0 0 255 -131 0 0 339 -102 0 0 248 -102 0 0 252 -112 0 0 251 -112 0 0 249 -112 0 0 250 -112 0 0 245 -102 0 0 246 -102 0 0 244 -102 0 0 242 -102 0 0 243 -102 0 0 235 -102 0 0 234 -102 0 0 232 -102 0 0 233 -102 0 0 121 -131 0 0 117 -112 0 0 111 -102 0 0 101 -102 0 0 89 -188 0 0 84 -92 0 0 46 38 0 0 44 38 0 0
EndChar
StartChar: S
Encoding: 83 83 83
Width: 1475
Flags: W
Fore
1362 1446 m 1,0,-1
 1300 1130 l 1,1,2
 1187 1186 1187 1186 1077 1213.5 c 128,-1,3
 967 1241 967 1241 862 1241 c 0,4,5
 718 1241 718 1241 637.5 1196 c 128,-1,6
 557 1151 557 1151 557 1071 c 0,7,8
 557 1020 557 1020 592.5 991.5 c 128,-1,9
 628 963 628 963 739 936 c 2,10,-1
 897 897 l 2,11,12
 1095 847 1095 847 1187.5 752.5 c 128,-1,13
 1280 658 1280 658 1280 508 c 0,14,15
 1280 265 1280 265 1095.5 118 c 128,-1,16
 911 -29 911 -29 600 -29 c 0,17,18
 455 -29 455 -29 311.5 -2 c 128,-1,19
 168 25 168 25 31 78 c 1,20,-1
 92 403 l 1,21,22
 225 326 225 326 350.5 288 c 128,-1,23
 476 250 476 250 598 250 c 0,24,25
 730 250 730 250 812.5 304 c 128,-1,26
 895 358 895 358 895 442 c 0,27,28
 895 497 895 497 858 527.5 c 128,-1,29
 821 558 821 558 696 590 c 2,30,-1
 539 629 l 2,31,32
 365 672 365 672 280 765 c 128,-1,33
 195 858 195 858 195 1006 c 0,34,35
 195 1239 195 1239 373.5 1379.5 c 128,-1,36
 552 1520 552 1520 854 1520 c 0,37,38
 975 1520 975 1520 1102.5 1501.5 c 128,-1,39
 1230 1483 1230 1483 1362 1446 c 1,0,-1
EndSplineSet
KernsSLIFO: 350 -73 0 0 352 -73 0 0 83 -73 0 0
EndChar
StartChar: T
Encoding: 84 84 84
Width: 1397
Flags: W
Fore
156 1493 m 1,0,-1
 1532 1493 l 1,1,-1
 1475 1202 l 1,2,-1
 979 1202 l 1,3,-1
 745 0 l 1,4,-1
 360 0 l 1,5,-1
 594 1202 l 1,6,-1
 98 1202 l 1,7,-1
 156 1493 l 1,0,-1
EndSplineSet
KernsSLIFO: 252 -264 0 0 229 -243 0 0 230 -243 0 0 59 -112 0 0 242 -264 0 0 45 -301 0 0 8222 -301 0 0 367 -264 0 0 245 -264 0 0 235 -264 0 0 249 -264 0 0 58 -112 0 0 224 -243 0 0 195 -159 0 0 234 -264 0 0 231 -264 0 0 341 -225 0 0 232 -264 0 0 196 -159 0 0 193 -159 0 0 269 -264 0 0 345 -225 0 0 251 -264 0 0 253 -339 0 0 8218 -301 0 0 227 -243 0 0 194 -159 0 0 248 -264 0 0 244 -264 0 0 353 -243 0 0 65 -159 0 0 283 -264 0 0 351 -243 0 0 228 -243 0 0 119 -282 0 0 246 -264 0 0 250 -264 0 0 263 -264 0 0 225 -243 0 0 46 -348 0 0 84 47 0 0 226 -243 0 0 233 -264 0 0 356 47 0 0 97 -243 0 0 99 -264 0 0 101 -264 0 0 339 -264 0 0 255 -339 0 0 111 -264 0 0 115 -243 0 0 114 -225 0 0 117 -264 0 0 192 -159 0 0 121 -339 0 0 44 -329 0 0 243 -264 0 0
EndChar
StartChar: U
Encoding: 85 85 85
Width: 1663
Flags: W
Fore
334 1493 m 1,0,-1
 719 1493 l 1,1,-1
 545 599 l 1,2,3
 535 551 535 551 530.5 514 c 128,-1,4
 526 477 526 477 526 449 c 0,5,6
 526 351 526 351 578.5 302.5 c 128,-1,7
 631 254 631 254 735 254 c 0,8,9
 875 254 875 254 950 332.5 c 128,-1,10
 1025 411 1025 411 1061 598 c 1,11,-1
 1235 1493 l 1,12,-1
 1620 1493 l 1,13,-1
 1446 598 l 1,14,15
 1381 268 1381 268 1199.5 119.5 c 128,-1,16
 1018 -29 1018 -29 680 -29 c 0,17,18
 415 -29 415 -29 277 84.5 c 128,-1,19
 139 198 139 198 139 414 c 0,20,21
 139 450 139 450 144 494.5 c 128,-1,22
 149 539 149 539 160 598 c 1,23,-1
 334 1493 l 1,0,-1
EndSplineSet
KernsSLIFO: 193 -92 0 0 194 -92 0 0 195 -92 0 0 192 -92 0 0 196 -92 0 0 65 -92 0 0
EndChar
StartChar: V
Encoding: 86 86 86
Width: 1585
Flags: W
Fore
156 1493 m 1,0,-1
 522 1493 l 1,1,-1
 705 377 l 1,2,-1
 1323 1493 l 1,3,-1
 1720 1493 l 1,4,-1
 877 0 l 1,5,-1
 418 0 l 1,6,-1
 156 1493 l 1,0,-1
EndSplineSet
KernsSLIFO: 367 -149 0 0 283 -149 0 0 210 -36 0 0 212 -36 0 0 211 -36 0 0 193 -139 0 0 194 -139 0 0 8222 -272 0 0 8218 -272 0 0 339 -149 0 0 338 -45 0 0 213 -36 0 0 195 -139 0 0 192 -139 0 0 248 -149 0 0 230 -159 0 0 216 -36 0 0 252 -149 0 0 251 -149 0 0 249 -149 0 0 250 -149 0 0 245 -149 0 0 246 -149 0 0 244 -149 0 0 242 -149 0 0 243 -149 0 0 235 -149 0 0 234 -149 0 0 232 -149 0 0 233 -149 0 0 229 -159 0 0 227 -159 0 0 228 -159 0 0 226 -159 0 0 224 -159 0 0 225 -159 0 0 214 -36 0 0 196 -139 0 0 117 -149 0 0 111 -149 0 0 105 -36 0 0 101 -149 0 0 97 -159 0 0 79 -36 0 0 65 -139 0 0 59 -92 0 0 58 -92 0 0 46 -319 0 0 45 -149 0 0 44 -319 0 0
EndChar
StartChar: W
Encoding: 87 87 87
Width: 2259
Flags: W
Fore
219 1493 m 1,0,-1
 575 1493 l 1,1,-1
 621 408 l 1,2,-1
 1090 1493 l 1,3,-1
 1456 1493 l 1,4,-1
 1505 408 l 1,5,-1
 1958 1493 l 1,6,-1
 2341 1493 l 1,7,-1
 1698 0 l 1,8,-1
 1262 0 l 1,9,-1
 1212 1135 l 1,10,-1
 729 0 l 1,11,-1
 283 0 l 1,12,-1
 219 1493 l 1,0,-1
EndSplineSet
KernsSLIFO: 229 -139 0 0 230 -139 0 0 59 -63 0 0 242 -112 0 0 45 -92 0 0 46 -178 0 0 245 -112 0 0 235 -131 0 0 44 -178 0 0 224 -139 0 0 195 -73 0 0 234 -131 0 0 341 -120 0 0 232 -131 0 0 196 -73 0 0 193 -73 0 0 227 -139 0 0 194 -73 0 0 248 -112 0 0 244 -112 0 0 65 -73 0 0 97 -139 0 0 228 -139 0 0 246 -112 0 0 225 -139 0 0 345 -120 0 0 226 -139 0 0 233 -131 0 0 283 -131 0 0 101 -131 0 0 339 -112 0 0 111 -112 0 0 114 -120 0 0 192 -73 0 0 58 -63 0 0 243 -112 0 0
EndChar
StartChar: X
Encoding: 88 88 88
Width: 1579
Flags: W
Fore
1016 756 m 1,0,-1
 1382 0 l 1,1,-1
 991 0 l 1,2,-1
 748 500 l 1,3,-1
 311 0 l 1,4,-1
 -104 0 l 1,5,-1
 567 766 l 1,6,-1
 213 1493 l 1,7,-1
 606 1493 l 1,8,-1
 836 1024 l 1,9,-1
 1245 1493 l 1,10,-1
 1663 1493 l 1,11,-1
 1016 756 l 1,0,-1
EndSplineSet
KernsSLIFO: 283 -131 0 0 268 -73 0 0 262 -73 0 0 210 -73 0 0 212 -73 0 0 211 -73 0 0 338 -112 0 0 213 -73 0 0 216 -73 0 0 235 -131 0 0 234 -131 0 0 232 -131 0 0 233 -131 0 0 214 -73 0 0 199 -73 0 0 101 -131 0 0 79 -73 0 0 67 -73 0 0 45 -243 0 0
EndChar
StartChar: Y
Encoding: 89 89 89
Width: 1483
Flags: W
Fore
129 1493 m 1,0,-1
 514 1493 l 1,1,-1
 768 940 l 1,2,-1
 1212 1493 l 1,3,-1
 1657 1493 l 1,4,-1
 920 623 l 1,5,-1
 799 0 l 1,6,-1
 414 0 l 1,7,-1
 535 623 l 1,8,-1
 129 1493 l 1,0,-1
EndSplineSet
KernsSLIFO: 367 -225 0 0 283 -264 0 0 268 -73 0 0 262 -73 0 0 210 -73 0 0 212 -73 0 0 211 -73 0 0 193 -196 0 0 194 -196 0 0 8222 -405 0 0 8218 -376 0 0 339 -264 0 0 338 -120 0 0 213 -73 0 0 195 -196 0 0 192 -196 0 0 248 -264 0 0 230 -243 0 0 216 -73 0 0 252 -225 0 0 251 -225 0 0 249 -225 0 0 250 -225 0 0 245 -264 0 0 246 -264 0 0 244 -264 0 0 242 -264 0 0 243 -264 0 0 235 -264 0 0 234 -264 0 0 232 -264 0 0 233 -264 0 0 229 -243 0 0 227 -243 0 0 228 -243 0 0 226 -243 0 0 224 -243 0 0 225 -243 0 0 214 -73 0 0 199 -73 0 0 196 -196 0 0 117 -225 0 0 111 -264 0 0 101 -264 0 0 97 -243 0 0 79 -73 0 0 67 -73 0 0 65 -196 0 0 59 -178 0 0 58 -178 0 0 46 -339 0 0 45 -301 0 0 44 -339 0 0
EndChar
StartChar: Z
Encoding: 90 90 90
Width: 1485
Flags: W
Fore
260 1493 m 1,0,-1
 1516 1493 l 1,1,-1
 1468 1255 l 1,2,-1
 500 291 l 1,3,-1
 1305 291 l 1,4,-1
 1247 0 l 1,5,-1
 -53 0 l 1,6,-1
 -8 238 l 1,7,-1
 963 1202 l 1,8,-1
 203 1202 l 1,9,-1
 260 1493 l 1,0,-1
EndSplineSet
KernsSLIFO: 45 -149 0 0
EndChar
StartChar: bracketleft
Encoding: 91 91 91
Width: 936
Flags: W
Fore
334 1556 m 1,0,-1
 954 1556 l 1,1,-1
 909 1331 l 1,2,-1
 631 1331 l 1,3,-1
 362 -45 l 1,4,-1
 643 -45 l 1,5,-1
 598 -270 l 1,6,-1
 -20 -270 l 1,7,-1
 334 1556 l 1,0,-1
EndSplineSet
EndChar
StartChar: backslash
Encoding: 92 92 92
Width: 748
Flags: W
Fore
344 -190 m 1,0,-1
 145 1493 l 1,1,-1
 367 1493 l 1,2,-1
 565 -190 l 1,3,-1
 344 -190 l 1,0,-1
EndSplineSet
EndChar
StartChar: bracketright
Encoding: 93 93 93
Width: 936
Flags: W
Fore
563 -270 m 1,0,-1
 -57 -270 l 1,1,-1
 -14 -45 l 1,2,-1
 266 -45 l 1,3,-1
 535 1331 l 1,4,-1
 254 1331 l 1,5,-1
 297 1556 l 1,6,-1
 918 1556 l 1,7,-1
 563 -270 l 1,0,-1
EndSplineSet
EndChar
StartChar: asciicircum
Encoding: 94 94 94
Width: 1716
Flags: W
Fore
981 1493 m 1,0,-1
 1509 936 l 1,1,-1
 1268 936 l 1,2,-1
 858 1237 l 1,3,-1
 449 936 l 1,4,-1
 207 936 l 1,5,-1
 735 1493 l 1,6,-1
 981 1493 l 1,0,-1
EndSplineSet
EndChar
StartChar: underscore
Encoding: 95 95 95
Width: 1024
Flags: W
Fore
1044 -225 m 1,0,-1
 1044 -483 l 1,1,-1
 -20 -483 l 1,2,-1
 -20 -225 l 1,3,-1
 1044 -225 l 1,0,-1
EndSplineSet
EndChar
StartChar: grave
Encoding: 96 96 96
Width: 1024
Flags: W
Fore
551 1638 m 1,0,-1
 760 1262 l 1,1,-1
 563 1262 l 1,2,-1
 268 1638 l 1,3,-1
 551 1638 l 1,0,-1
EndSplineSet
EndChar
StartChar: a
Encoding: 97 97 97
Width: 1382
Flags: W
Fore
674 504 m 2,0,1
 540 504 540 504 471.5 462.5 c 128,-1,2
 403 421 403 421 403 340 c 0,3,4
 403 279 403 279 443.5 244 c 128,-1,5
 484 209 484 209 555 209 c 0,6,7
 665 209 665 209 739 275.5 c 128,-1,8
 813 342 813 342 838 463 c 1,9,-1
 846 504 l 1,10,-1
 674 504 l 2,0,1
1233 639 m 2,11,-1
 1108 0 l 1,12,-1
 750 0 l 1,13,-1
 780 166 l 1,14,15
 692 66 692 66 594 18.5 c 128,-1,16
 496 -29 496 -29 381 -29 c 0,17,18
 222 -29 222 -29 128.5 53.5 c 128,-1,19
 35 136 35 136 35 276 c 0,20,21
 35 490 35 490 200.5 603.5 c 128,-1,22
 366 717 366 717 678 717 c 2,23,-1
 889 717 l 1,24,-1
 893 745 l 1,25,26
 896 759 896 759 896.5 765 c 128,-1,27
 897 771 897 771 897 776 c 0,28,29
 897 842 897 842 834.5 875.5 c 128,-1,30
 772 909 772 909 649 909 c 0,31,32
 538 909 538 909 434 886 c 128,-1,33
 330 863 330 863 233 817 c 1,34,-1
 287 1090 l 1,35,36
 399 1118 399 1118 516.5 1132.5 c 128,-1,37
 634 1147 634 1147 760 1147 c 0,38,39
 1009 1147 1009 1147 1130 1061.5 c 128,-1,40
 1251 976 1251 976 1251 801 c 0,41,42
 1251 767 1251 767 1246.5 726.5 c 128,-1,43
 1242 686 1242 686 1233 639 c 2,11,-1
EndSplineSet
KernsSLIFO: 253 -63 0 0 255 -63 0 0 121 -63 0 0
EndChar
StartChar: b
Encoding: 98 98 98
Width: 1466
Flags: W
Fore
831 887 m 0,0,1
 693 887 693 887 605.5 759.5 c 128,-1,2
 518 632 518 632 518 428 c 0,3,4
 518 336 518 336 567.5 283.5 c 128,-1,5
 617 231 617 231 705 231 c 0,6,7
 840 231 840 231 928 356.5 c 128,-1,8
 1016 482 1016 482 1016 678 c 0,9,10
 1016 780 1016 780 968.5 833.5 c 128,-1,11
 921 887 921 887 831 887 c 0,0,1
455 162 m 1,12,-1
 422 0 l 1,13,-1
 63 0 l 1,14,-1
 365 1556 l 1,15,-1
 725 1556 l 1,16,-1
 608 956 l 1,17,18
 690 1054 690 1054 780 1100.5 c 128,-1,19
 870 1147 870 1147 977 1147 c 0,20,21
 1166 1147 1166 1147 1276 1027 c 128,-1,22
 1386 907 1386 907 1386 700 c 0,23,24
 1386 571 1386 571 1347.5 449 c 128,-1,25
 1309 327 1309 327 1237 227 c 0,26,27
 1146 101 1146 101 1031.5 36 c 128,-1,28
 917 -29 917 -29 786 -29 c 0,29,30
 671 -29 671 -29 590.5 17.5 c 128,-1,31
 510 64 510 64 455 162 c 1,12,-1
EndSplineSet
EndChar
StartChar: c
Encoding: 99 99 99
Width: 1214
Flags: W
Fore
1190 1085 m 1,0,-1
 1133 793 l 1,1,2
 1061 841 1061 841 991 866 c 128,-1,3
 921 891 921 891 854 891 c 0,4,5
 679 891 679 891 568 773.5 c 128,-1,6
 457 656 457 656 457 473 c 0,7,8
 457 356 457 356 526 291.5 c 128,-1,9
 595 227 595 227 721 227 c 0,10,11
 805 227 805 227 886 252 c 128,-1,12
 967 277 967 277 1040 326 c 1,13,-1
 985 33 l 1,14,15
 896 2 896 2 806 -13.5 c 128,-1,16
 716 -29 716 -29 625 -29 c 0,17,18
 361 -29 361 -29 218.5 89.5 c 128,-1,19
 76 208 76 208 76 426 c 0,20,21
 76 563 76 563 128.5 692 c 128,-1,22
 181 821 181 821 279 924 c 0,23,24
 388 1037 388 1037 529 1092 c 128,-1,25
 670 1147 670 1147 854 1147 c 0,26,27
 939 1147 939 1147 1023 1131.5 c 128,-1,28
 1107 1116 1107 1116 1190 1085 c 1,0,-1
EndSplineSet
EndChar
StartChar: d
Encoding: 100 100 100
Width: 1466
Flags: W
Fore
629 231 m 0,0,1
 767 231 767 231 853.5 358 c 128,-1,2
 940 485 940 485 940 690 c 0,3,4
 940 783 940 783 891.5 835 c 128,-1,5
 843 887 843 887 756 887 c 0,6,7
 620 887 620 887 532 761.5 c 128,-1,8
 444 636 444 636 444 440 c 0,9,10
 444 338 444 338 491.5 284.5 c 128,-1,11
 539 231 539 231 629 231 c 0,0,1
1006 956 m 1,12,-1
 1122 1556 l 1,13,-1
 1483 1556 l 1,14,-1
 1180 0 l 1,15,-1
 819 0 l 1,16,-1
 852 162 l 1,17,18
 770 64 770 64 680 17.5 c 128,-1,19
 590 -29 590 -29 483 -29 c 0,20,21
 294 -29 294 -29 184 91 c 128,-1,22
 74 211 74 211 74 418 c 0,23,24
 74 547 74 547 112.5 669 c 128,-1,25
 151 791 151 791 223 891 c 0,26,27
 314 1017 314 1017 428.5 1082 c 128,-1,28
 543 1147 543 1147 674 1147 c 0,29,30
 789 1147 789 1147 869.5 1100.5 c 128,-1,31
 950 1054 950 1054 1006 956 c 1,12,-1
EndSplineSet
EndChar
StartChar: e
Encoding: 101 101 101
Width: 1389
Flags: W
Fore
1288 518 m 1,0,-1
 1276 461 l 1,1,-1
 438 461 l 1,2,3
 438 455 438 455 437 443.5 c 128,-1,4
 436 432 436 432 436 426 c 0,5,6
 436 317 436 317 501.5 263 c 128,-1,7
 567 209 567 209 698 209 c 0,8,9
 811 209 811 209 936.5 243 c 128,-1,10
 1062 277 1062 277 1200 344 c 1,11,-1
 1145 66 l 1,12,13
 1014 18 1014 18 884.5 -5.5 c 128,-1,14
 755 -29 755 -29 621 -29 c 0,15,16
 359 -29 359 -29 216.5 92 c 128,-1,17
 74 213 74 213 74 434 c 0,18,19
 74 562 74 562 119.5 682.5 c 128,-1,20
 165 803 165 803 252 903 c 0,21,22
 355 1023 355 1023 498.5 1085 c 128,-1,23
 642 1147 642 1147 817 1147 c 0,24,25
 1044 1147 1044 1147 1177.5 1026 c 128,-1,26
 1311 905 1311 905 1311 700 c 0,27,28
 1311 660 1311 660 1305.5 615.5 c 128,-1,29
 1300 571 1300 571 1288 518 c 1,0,-1
950 682 m 1,30,31
 953 695 953 695 954.5 708.5 c 128,-1,32
 956 722 956 722 956 735 c 0,33,34
 956 815 956 815 908 862 c 128,-1,35
 860 909 860 909 778 909 c 0,36,37
 673 909 673 909 599.5 851.5 c 128,-1,38
 526 794 526 794 487 682 c 1,39,-1
 950 682 l 1,30,31
EndSplineSet
EndChar
StartChar: f
Encoding: 102 102 102
Width: 891
Flags: W
Fore
1106 1556 m 1,0,-1
 1059 1321 l 1,1,-1
 862 1321 l 2,2,3
 787 1321 787 1321 752.5 1293.5 c 128,-1,4
 718 1266 718 1266 705 1199 c 1,5,-1
 688 1120 l 1,6,-1
 991 1120 l 1,7,-1
 942 864 l 1,8,-1
 639 864 l 1,9,-1
 471 0 l 1,10,-1
 111 0 l 1,11,-1
 279 864 l 1,12,-1
 102 864 l 1,13,-1
 152 1120 l 1,14,-1
 328 1120 l 1,15,-1
 344 1198 l 1,16,17
 381 1384 381 1384 498 1470 c 128,-1,18
 615 1556 615 1556 831 1556 c 2,19,-1
 1106 1556 l 1,0,-1
EndSplineSet
KernsSLIFO: 8217 141 0 0 8221 86 0 0 46 -112 0 0 45 -36 0 0 44 -112 0 0
EndChar
StartChar: g
Encoding: 103 103 103
Width: 1466
Flags: W
Fore
856 190 m 1,0,1
 770 92 770 92 681 46 c 128,-1,2
 592 0 592 0 487 0 c 0,3,4
 297 0 297 0 186.5 122.5 c 128,-1,5
 76 245 76 245 76 457 c 0,6,7
 76 570 76 570 114.5 683.5 c 128,-1,8
 153 797 153 797 225 897 c 0,9,10
 313 1018 313 1018 427 1081.5 c 128,-1,11
 541 1145 541 1145 672 1145 c 0,12,13
 790 1145 790 1145 870.5 1099 c 128,-1,14
 951 1053 951 1053 1006 954 c 1,15,-1
 1036 1120 l 1,16,-1
 1397 1120 l 1,17,-1
 1208 147 l 1,18,19
 1150 -154 1150 -154 960 -298 c 128,-1,20
 770 -442 770 -442 432 -442 c 0,21,22
 328 -442 328 -442 231.5 -426 c 128,-1,23
 135 -410 135 -410 41 -377 c 1,24,-1
 94 -98 l 1,25,26
 179 -152 179 -152 264 -178.5 c 128,-1,27
 349 -205 349 -205 438 -205 c 0,28,29
 616 -205 616 -205 711.5 -129 c 128,-1,30
 807 -53 807 -53 840 113 c 1,31,-1
 856 190 l 1,0,1
756 887 m 0,32,33
 624 887 624 887 536.5 768 c 128,-1,34
 449 649 449 649 449 469 c 0,35,36
 449 367 449 367 496 313.5 c 128,-1,37
 543 260 543 260 633 260 c 0,38,39
 764 260 764 260 852 378.5 c 128,-1,40
 940 497 940 497 940 674 c 0,41,42
 940 778 940 778 893 832.5 c 128,-1,43
 846 887 846 887 756 887 c 0,32,33
EndSplineSet
EndChar
StartChar: h
Encoding: 104 104 104
Width: 1458
Flags: W
Fore
1321 682 m 2,0,-1
 1188 0 l 1,1,-1
 829 0 l 1,2,-1
 942 584 l 1,3,4
 954 641 954 641 960.5 680.5 c 128,-1,5
 967 720 967 720 967 743 c 0,6,7
 967 807 967 807 931.5 842 c 128,-1,8
 896 877 896 877 831 877 c 0,9,10
 720 877 720 877 640.5 790.5 c 128,-1,11
 561 704 561 704 530 551 c 1,12,-1
 422 0 l 1,13,-1
 63 0 l 1,14,-1
 365 1556 l 1,15,-1
 725 1556 l 1,16,-1
 608 956 l 1,17,18
 707 1053 707 1053 807 1100 c 128,-1,19
 907 1147 907 1147 1016 1147 c 0,20,21
 1171 1147 1171 1147 1255 1066 c 128,-1,22
 1339 985 1339 985 1339 838 c 0,23,24
 1339 806 1339 806 1334.5 767 c 128,-1,25
 1330 728 1330 728 1321 682 c 2,0,-1
EndSplineSet
EndChar
StartChar: i
Encoding: 105 105 105
Width: 702
Flags: W
Fore
281 1120 m 1,0,-1
 641 1120 l 1,1,-1
 422 0 l 1,2,-1
 63 0 l 1,3,-1
 281 1120 l 1,0,-1
365 1556 m 1,4,-1
 725 1556 l 1,5,-1
 668 1264 l 1,6,-1
 307 1264 l 1,7,-1
 365 1556 l 1,4,-1
EndSplineSet
EndChar
StartChar: j
Encoding: 106 106 106
Width: 702
Flags: W
Fore
281 1120 m 1,0,-1
 641 1120 l 1,1,-1
 426 20 l 2,2,3
 380 -215 380 -215 254.5 -328.5 c 128,-1,4
 129 -442 129 -442 -84 -442 c 2,5,-1
 -262 -442 l 1,6,-1
 -217 -207 l 1,7,-1
 -154 -207 l 2,8,9
 -53 -207 -53 -207 -6.5 -161.5 c 128,-1,10
 40 -116 40 -116 66 20 c 1,11,-1
 281 1120 l 1,0,-1
365 1556 m 1,12,-1
 725 1556 l 1,13,-1
 668 1264 l 1,14,-1
 307 1264 l 1,15,-1
 365 1556 l 1,12,-1
EndSplineSet
EndChar
StartChar: k
Encoding: 107 107 107
Width: 1362
Flags: W
Fore
365 1556 m 1,0,-1
 725 1556 l 1,1,-1
 561 713 l 1,2,-1
 1044 1120 l 1,3,-1
 1466 1120 l 1,4,-1
 815 602 l 1,5,-1
 1288 0 l 1,6,-1
 879 0 l 1,7,-1
 516 483 l 1,8,-1
 422 0 l 1,9,-1
 63 0 l 1,10,-1
 365 1556 l 1,0,-1
EndSplineSet
KernsSLIFO: 283 -73 0 0 339 -73 0 0 248 -45 0 0 245 -73 0 0 246 -73 0 0 244 -73 0 0 242 -73 0 0 243 -73 0 0 235 -73 0 0 234 -73 0 0 232 -73 0 0 233 -73 0 0 111 -73 0 0 101 -73 0 0
EndChar
StartChar: l
Encoding: 108 108 108
Width: 702
Flags: W
Fore
365 1556 m 1,0,-1
 725 1556 l 1,1,-1
 422 0 l 1,2,-1
 63 0 l 1,3,-1
 365 1556 l 1,0,-1
EndSplineSet
EndChar
StartChar: m
Encoding: 109 109 109
Width: 2134
Flags: W
Fore
1284 934 m 1,0,1
 1367 1037 1367 1037 1472.5 1092 c 128,-1,2
 1578 1147 1578 1147 1692 1147 c 0,3,4
 1842 1147 1842 1147 1928.5 1064.5 c 128,-1,5
 2015 982 2015 982 2015 838 c 0,6,7
 2015 808 2015 808 2010.5 769.5 c 128,-1,8
 2006 731 2006 731 1997 682 c 1,9,-1
 1864 0 l 1,10,-1
 1503 0 l 1,11,-1
 1616 584 l 1,12,-1
 1619 599 l 2,13,14
 1645 723 1645 723 1645 758 c 0,15,16
 1645 813 1645 813 1613.5 845 c 128,-1,17
 1582 877 1582 877 1528 877 c 0,18,19
 1425 877 1425 877 1353.5 792.5 c 128,-1,20
 1282 708 1282 708 1251 551 c 2,21,-1
 1143 0 l 1,22,-1
 782 0 l 1,23,-1
 897 584 l 1,24,25
 912 659 912 659 918 697.5 c 128,-1,26
 924 736 924 736 924 758 c 0,27,28
 924 814 924 814 893 845.5 c 128,-1,29
 862 877 862 877 807 877 c 0,30,31
 708 877 708 877 633.5 789.5 c 128,-1,32
 559 702 559 702 530 551 c 1,33,-1
 422 0 l 1,34,-1
 63 0 l 1,35,-1
 281 1120 l 1,36,-1
 641 1120 l 1,37,-1
 608 956 l 1,38,39
 692 1051 692 1051 787 1099 c 128,-1,40
 882 1147 882 1147 985 1147 c 0,41,42
 1101 1147 1101 1147 1184 1087.5 c 128,-1,43
 1267 1028 1267 1028 1284 934 c 1,0,1
EndSplineSet
EndChar
StartChar: n
Encoding: 110 110 110
Width: 1458
Flags: W
Fore
1321 682 m 2,0,-1
 1188 0 l 1,1,-1
 829 0 l 1,2,-1
 942 584 l 1,3,4
 954 641 954 641 960.5 680.5 c 128,-1,5
 967 720 967 720 967 743 c 0,6,7
 967 807 967 807 931.5 842 c 128,-1,8
 896 877 896 877 831 877 c 0,9,10
 720 877 720 877 640.5 790.5 c 128,-1,11
 561 704 561 704 530 551 c 1,12,-1
 422 0 l 1,13,-1
 63 0 l 1,14,-1
 281 1120 l 1,15,-1
 641 1120 l 1,16,-1
 608 956 l 1,17,18
 707 1053 707 1053 807 1100 c 128,-1,19
 907 1147 907 1147 1016 1147 c 0,20,21
 1171 1147 1171 1147 1255 1066 c 128,-1,22
 1339 985 1339 985 1339 838 c 0,23,24
 1339 806 1339 806 1334.5 767 c 128,-1,25
 1330 728 1330 728 1321 682 c 2,0,-1
EndSplineSet
EndChar
StartChar: o
Encoding: 111 111 111
Width: 1407
Flags: W
Fore
768 891 m 0,0,1
 629 891 629 891 539 765 c 128,-1,2
 449 639 449 639 449 444 c 0,3,4
 449 338 449 338 497.5 282.5 c 128,-1,5
 546 227 546 227 639 227 c 0,6,7
 778 227 778 227 868 353.5 c 128,-1,8
 958 480 958 480 958 676 c 0,9,10
 958 781 958 781 909.5 836 c 128,-1,11
 861 891 861 891 768 891 c 0,0,1
797 1147 m 0,12,13
 1047 1147 1047 1147 1190 1020 c 128,-1,14
 1333 893 1333 893 1333 674 c 0,15,16
 1333 547 1333 547 1288 427.5 c 128,-1,17
 1243 308 1243 308 1157 209 c 0,18,19
 1055 91 1055 91 916 31 c 128,-1,20
 777 -29 777 -29 606 -29 c 0,21,22
 359 -29 359 -29 216.5 98 c 128,-1,23
 74 225 74 225 74 444 c 0,24,25
 74 570 74 570 120 690.5 c 128,-1,26
 166 811 166 811 252 911 c 0,27,28
 352 1027 352 1027 490.5 1087 c 128,-1,29
 629 1147 629 1147 797 1147 c 0,12,13
EndSplineSet
EndChar
StartChar: p
Encoding: 112 112 112
Width: 1466
Flags: W
Fore
455 162 m 1,0,-1
 340 -426 l 1,1,-1
 -20 -426 l 1,2,-1
 281 1120 l 1,3,-1
 641 1120 l 1,4,-1
 608 956 l 1,5,6
 690 1054 690 1054 780 1100.5 c 128,-1,7
 870 1147 870 1147 977 1147 c 0,8,9
 1166 1147 1166 1147 1276 1027 c 128,-1,10
 1386 907 1386 907 1386 700 c 0,11,12
 1386 571 1386 571 1347.5 449 c 128,-1,13
 1309 327 1309 327 1237 227 c 0,14,15
 1146 101 1146 101 1031.5 36 c 128,-1,16
 917 -29 917 -29 786 -29 c 0,17,18
 671 -29 671 -29 590.5 17.5 c 128,-1,19
 510 64 510 64 455 162 c 1,0,-1
831 887 m 0,20,21
 693 887 693 887 605.5 759.5 c 128,-1,22
 518 632 518 632 518 428 c 0,23,24
 518 336 518 336 567.5 283.5 c 128,-1,25
 617 231 617 231 705 231 c 0,26,27
 840 231 840 231 928 356.5 c 128,-1,28
 1016 482 1016 482 1016 678 c 0,29,30
 1016 780 1016 780 968.5 833.5 c 128,-1,31
 921 887 921 887 831 887 c 0,20,21
EndSplineSet
EndChar
StartChar: q
Encoding: 113 113 113
Width: 1466
Flags: W
Fore
1006 956 m 1,0,-1
 1036 1120 l 1,1,-1
 1397 1120 l 1,2,-1
 1096 -426 l 1,3,-1
 735 -426 l 1,4,-1
 850 162 l 1,5,6
 770 64 770 64 680 17.5 c 128,-1,7
 590 -29 590 -29 483 -29 c 0,8,9
 294 -29 294 -29 184 91 c 128,-1,10
 74 211 74 211 74 418 c 0,11,12
 74 547 74 547 112.5 669 c 128,-1,13
 151 791 151 791 223 891 c 0,14,15
 314 1017 314 1017 428.5 1082 c 128,-1,16
 543 1147 543 1147 674 1147 c 0,17,18
 789 1147 789 1147 869.5 1100.5 c 128,-1,19
 950 1054 950 1054 1006 956 c 1,0,-1
629 231 m 0,20,21
 767 231 767 231 853.5 358 c 128,-1,22
 940 485 940 485 940 690 c 0,23,24
 940 783 940 783 891.5 835 c 128,-1,25
 843 887 843 887 756 887 c 0,26,27
 620 887 620 887 532 761.5 c 128,-1,28
 444 636 444 636 444 440 c 0,29,30
 444 338 444 338 491.5 284.5 c 128,-1,31
 539 231 539 231 629 231 c 0,20,21
EndSplineSet
EndChar
StartChar: r
Encoding: 114 114 114
Width: 1010
Flags: W
Fore
1053 815 m 1,0,1
 1016 836 1016 836 971 847 c 128,-1,2
 926 858 926 858 874 858 c 0,3,4
 737 858 737 858 646.5 770 c 128,-1,5
 556 682 556 682 524 516 c 1,6,-1
 422 0 l 1,7,-1
 63 0 l 1,8,-1
 281 1120 l 1,9,-1
 641 1120 l 1,10,-1
 602 928 l 1,11,12
 673 1034 673 1034 779.5 1090.5 c 128,-1,13
 886 1147 886 1147 1016 1147 c 0,14,15
 1035 1147 1035 1147 1059 1145 c 128,-1,16
 1083 1143 1083 1143 1116 1139 c 1,17,-1
 1053 815 l 1,0,1
EndSplineSet
KernsSLIFO: 8217 86 0 0 8221 38 0 0 46 -292 0 0 44 -301 0 0
EndChar
StartChar: s
Encoding: 115 115 115
Width: 1219
Flags: W
Fore
1147 1085 m 1,0,-1
 1094 807 l 1,1,2
 989 857 989 857 885 883 c 128,-1,3
 781 909 781 909 688 909 c 0,4,5
 582 909 582 909 524.5 881.5 c 128,-1,6
 467 854 467 854 467 803 c 0,7,8
 467 773 467 773 499 755 c 128,-1,9
 531 737 531 737 625 717 c 1,10,-1
 690 705 l 1,11,12
 907 659 907 659 994 586.5 c 128,-1,13
 1081 514 1081 514 1081 385 c 0,14,15
 1081 190 1081 190 928 80.5 c 128,-1,16
 775 -29 775 -29 500 -29 c 0,17,18
 385 -29 385 -29 265 -11 c 128,-1,19
 145 7 145 7 20 43 c 1,20,-1
 74 324 l 1,21,22
 171 267 171 267 281.5 238 c 128,-1,23
 392 209 392 209 508 209 c 0,24,25
 621 209 621 209 678 236 c 128,-1,26
 735 263 735 263 735 315 c 0,27,28
 735 351 735 351 703 371 c 128,-1,29
 671 391 671 391 571 412 c 1,30,-1
 506 424 l 1,31,32
 314 464 314 464 232 542 c 128,-1,33
 150 620 150 620 150 758 c 0,34,35
 150 945 150 945 291.5 1046 c 128,-1,36
 433 1147 433 1147 696 1147 c 0,37,38
 811 1147 811 1147 922.5 1131.5 c 128,-1,39
 1034 1116 1034 1116 1147 1085 c 1,0,-1
EndSplineSet
EndChar
StartChar: t
Encoding: 116 116 116
Width: 979
Flags: W
Fore
737 1438 m 1,0,-1
 676 1120 l 1,1,-1
 1042 1120 l 1,2,-1
 991 864 l 1,3,-1
 625 864 l 1,4,-1
 533 390 l 1,5,6
 529 374 529 374 527.5 363 c 128,-1,7
 526 352 526 352 526 342 c 0,8,9
 526 296 526 296 556.5 276 c 128,-1,10
 587 256 587 256 659 256 c 2,11,-1
 844 256 l 1,12,-1
 793 0 l 1,13,-1
 492 0 l 2,14,15
 330 0 330 0 245 68 c 128,-1,16
 160 136 160 136 160 264 c 0,17,18
 160 292 160 292 163 324 c 128,-1,19
 166 356 166 356 172 389 c 1,20,-1
 264 864 l 1,21,-1
 88 864 l 1,22,-1
 137 1120 l 1,23,-1
 315 1120 l 1,24,-1
 377 1438 l 1,25,-1
 737 1438 l 1,0,-1
EndSplineSet
EndChar
StartChar: u
Encoding: 117 117 117
Width: 1458
Flags: W
Fore
139 436 m 2,0,-1
 270 1120 l 1,1,-1
 629 1120 l 1,2,-1
 516 537 l 1,3,4
 504 480 504 480 498 440 c 128,-1,5
 492 400 492 400 492 377 c 0,6,7
 492 314 492 314 527 279 c 128,-1,8
 562 244 562 244 627 244 c 0,9,10
 738 244 738 244 818 330 c 128,-1,11
 898 416 898 416 928 569 c 2,12,-1
 1036 1120 l 1,13,-1
 1395 1120 l 1,14,-1
 1178 0 l 1,15,-1
 817 0 l 1,16,-1
 850 164 l 1,17,18
 758 67 758 67 657 19 c 128,-1,19
 556 -29 556 -29 444 -29 c 0,20,21
 291 -29 291 -29 207 52 c 128,-1,22
 123 133 123 133 123 281 c 0,23,24
 123 316 123 316 127 355 c 128,-1,25
 131 394 131 394 139 436 c 2,0,-1
EndSplineSet
EndChar
StartChar: v
Encoding: 118 118 118
Width: 1335
Flags: W
Fore
129 1120 m 1,0,-1
 459 1120 l 1,1,-1
 604 338 l 1,2,-1
 1026 1120 l 1,3,-1
 1389 1120 l 1,4,-1
 731 0 l 1,5,-1
 352 0 l 1,6,-1
 129 1120 l 1,0,-1
EndSplineSet
KernsSLIFO: 46 -167 0 0 44 -167 0 0
EndChar
StartChar: w
Encoding: 119 119 119
Width: 1892
Flags: W
Fore
178 1120 m 1,0,-1
 508 1120 l 1,1,-1
 547 350 l 1,2,-1
 885 1120 l 1,3,-1
 1169 1120 l 1,4,-1
 1210 352 l 1,5,-1
 1546 1120 l 1,6,-1
 1898 1120 l 1,7,-1
 1386 0 l 1,8,-1
 1006 0 l 1,9,-1
 969 770 l 1,10,-1
 627 0 l 1,11,-1
 256 0 l 1,12,-1
 178 1120 l 1,0,-1
EndSplineSet
KernsSLIFO: 46 -131 0 0 44 -131 0 0
EndChar
StartChar: x
Encoding: 120 120 120
Width: 1321
Flags: W
Fore
453 573 m 1,0,-1
 156 1120 l 1,1,-1
 528 1120 l 1,2,-1
 694 788 l 1,3,-1
 985 1120 l 1,4,-1
 1374 1120 l 1,5,-1
 864 575 l 1,6,-1
 1176 0 l 1,7,-1
 803 0 l 1,8,-1
 627 354 l 1,9,-1
 305 0 l 1,10,-1
 -84 0 l 1,11,-1
 453 573 l 1,0,-1
EndSplineSet
EndChar
StartChar: y
Encoding: 121 121 121
Width: 1335
Flags: W
Fore
135 1120 m 1,0,-1
 473 1120 l 1,1,-1
 627 344 l 1,2,-1
 1024 1120 l 1,3,-1
 1407 1120 l 1,4,-1
 698 -106 l 1,5,6
 579 -313 579 -313 478 -377.5 c 128,-1,7
 377 -442 377 -442 217 -442 c 2,8,-1
 0 -442 l 1,9,-1
 37 -207 l 1,10,-1
 150 -207 l 2,11,12
 238 -207 238 -207 286.5 -177.5 c 128,-1,13
 335 -148 335 -148 373 -74 c 1,14,-1
 406 -14 l 1,15,-1
 135 1120 l 1,0,-1
EndSplineSet
KernsSLIFO: 46 -188 0 0 44 -159 0 0
EndChar
StartChar: z
Encoding: 122 122 122
Width: 1192
Flags: W
Fore
223 1120 m 1,0,-1
 1200 1120 l 1,1,-1
 1151 870 l 1,2,-1
 453 256 l 1,3,-1
 1032 256 l 1,4,-1
 983 0 l 1,5,-1
 -18 0 l 1,6,-1
 29 250 l 1,7,-1
 729 864 l 1,8,-1
 174 864 l 1,9,-1
 223 1120 l 1,0,-1
EndSplineSet
EndChar
StartChar: braceleft
Encoding: 123 123 123
Width: 1458
Flags: W
Fore
1047 -109 m 1,0,-1
 1004 -334 l 1,1,-1
 786 -334 l 2,2,3
 607 -334 607 -334 516.5 -272.5 c 128,-1,4
 426 -211 426 -211 426 -88 c 0,5,6
 426 -66 426 -66 429.5 -36 c 128,-1,7
 433 -6 433 -6 440 34 c 1,8,-1
 477 227 l 1,9,10
 483 257 483 257 486 284.5 c 128,-1,11
 489 312 489 312 489 334 c 0,12,13
 489 422 489 422 443.5 458 c 128,-1,14
 398 494 398 494 281 494 c 2,15,-1
 217 494 l 1,16,-1
 262 717 l 1,17,-1
 324 717 l 2,18,19
 465 717 465 717 530.5 775 c 128,-1,20
 596 833 596 833 625 983 c 1,21,-1
 664 1188 l 2,22,23
 701 1381 701 1381 817.5 1468.5 c 128,-1,24
 934 1556 934 1556 1153 1556 c 2,25,-1
 1370 1556 l 1,26,-1
 1327 1331 l 1,27,-1
 1257 1331 l 2,28,29
 1118 1331 1118 1331 1066.5 1287.5 c 128,-1,30
 1015 1244 1015 1244 987 1102 c 2,31,-1
 954 936 l 1,32,33
 924 780 924 780 865 708.5 c 128,-1,34
 806 637 806 637 692 612 c 1,35,36
 772 591 772 591 809 546 c 128,-1,37
 846 501 846 501 846 424 c 0,38,39
 846 394 846 394 842 360.5 c 128,-1,40
 838 327 838 327 829 287 c 1,41,-1
 797 121 l 2,42,43
 788 75 788 75 785 51 c 128,-1,44
 782 27 782 27 782 10 c 0,45,46
 782 -57 782 -57 822.5 -83 c 128,-1,47
 863 -109 863 -109 979 -109 c 2,48,-1
 1047 -109 l 1,0,-1
EndSplineSet
EndChar
StartChar: bar
Encoding: 124 124 124
Width: 748
Flags: W
Fore
487 1565 m 1,0,-1
 487 -483 l 1,1,-1
 260 -483 l 1,2,-1
 260 1565 l 1,3,-1
 487 1565 l 1,0,-1
EndSplineSet
EndChar
StartChar: braceright
Encoding: 125 125 125
Width: 1458
Flags: W
Fore
133 -109 m 1,0,-1
 203 -109 l 2,1,2
 343 -109 343 -109 394.5 -64.5 c 128,-1,3
 446 -20 446 -20 473 121 c 1,4,-1
 506 287 l 1,5,6
 536 442 536 442 595.5 514 c 128,-1,7
 655 586 655 586 770 612 c 1,8,9
 690 631 690 631 652 676 c 128,-1,10
 614 721 614 721 614 799 c 0,11,12
 614 823 614 823 618.5 857 c 128,-1,13
 623 891 623 891 631 936 c 1,14,-1
 664 1102 l 1,15,16
 672 1144 672 1144 675 1169 c 128,-1,17
 678 1194 678 1194 678 1212 c 0,18,19
 678 1280 678 1280 637.5 1305.5 c 128,-1,20
 597 1331 597 1331 481 1331 c 2,21,-1
 414 1331 l 1,22,-1
 457 1556 l 1,23,-1
 676 1556 l 2,24,25
 855 1556 855 1556 944.5 1495 c 128,-1,26
 1034 1434 1034 1434 1034 1311 c 0,27,28
 1034 1283 1034 1283 1030.5 1252.5 c 128,-1,29
 1027 1222 1027 1222 1020 1188 c 1,30,-1
 981 983 l 1,31,32
 975 953 975 953 972 926 c 128,-1,33
 969 899 969 899 969 877 c 0,34,35
 969 789 969 789 1015.5 753 c 128,-1,36
 1062 717 1062 717 1178 717 c 2,37,-1
 1241 717 l 1,38,-1
 1196 494 l 1,39,-1
 1135 494 l 2,40,41
 994 494 994 494 928.5 435.5 c 128,-1,42
 863 377 863 377 834 227 c 2,43,-1
 797 35 l 2,44,45
 760 -158 760 -158 643 -246 c 128,-1,46
 526 -334 526 -334 307 -334 c 2,47,-1
 90 -334 l 1,48,-1
 133 -109 l 1,0,-1
EndSplineSet
EndChar
StartChar: asciitilde
Encoding: 126 126 126
Width: 1716
Flags: W
Fore
1499 850 m 1,0,-1
 1499 606 l 1,1,2
 1393 526 1393 526 1303.5 491.5 c 128,-1,3
 1214 457 1214 457 1118 457 c 0,4,5
 1011 457 1011 457 868 515 c 0,6,7
 854 521 854 521 846 524 c 0,8,9
 839 527 839 527 824 533 c 0,10,11
 669 594 669 594 575 594 c 0,12,13
 487 594 487 594 401 555.5 c 128,-1,14
 315 517 315 517 217 434 c 1,15,-1
 217 678 l 1,16,17
 324 758 324 758 413 792.5 c 128,-1,18
 502 827 502 827 598 827 c 0,19,20
 705 827 705 827 848 769 c 0,21,22
 863 763 863 763 870 760 c 0,23,24
 877 757 877 757 892 751 c 0,25,26
 1047 690 1047 690 1141 690 c 0,27,28
 1227 690 1227 690 1311.5 727.5 c 128,-1,29
 1396 765 1396 765 1499 850 c 1,0,-1
EndSplineSet
EndChar
StartChar: exclamdown
Encoding: 161 161 161
Width: 934
Flags: W
Fore
723 1137 m 1,0,-1
 362 1137 l 1,1,-1
 432 1493 l 1,2,-1
 793 1493 l 1,3,-1
 723 1137 l 1,0,-1
502 0 m 1,4,-1
 141 0 l 1,5,-1
 254 573 l 1,6,-1
 385 991 l 1,7,-1
 643 991 l 1,8,-1
 614 573 l 1,9,-1
 502 0 l 1,4,-1
EndSplineSet
EndChar
StartChar: cent
Encoding: 162 162 162
Width: 1425
Flags: W
Fore
741 856 m 1,0,1
 639 810 639 810 577.5 705.5 c 128,-1,2
 516 601 516 601 516 473 c 0,3,4
 516 399 516 399 544.5 344.5 c 128,-1,5
 573 290 573 290 625 264 c 1,6,-1
 741 856 l 1,0,1
1249 1085 m 1,7,-1
 1192 793 l 1,8,9
 1117 843 1117 843 1049.5 867 c 128,-1,10
 982 891 982 891 918 891 c 2,11,-1
 909 891 l 1,12,-1
 781 227 l 1,13,14
 870 229 870 229 949.5 253.5 c 128,-1,15
 1029 278 1029 278 1100 326 c 1,16,-1
 1044 33 l 1,17,18
 972 8 972 8 894 -7 c 128,-1,19
 816 -22 816 -22 731 -27 c 1,20,-1
 676 -313 l 1,21,-1
 514 -313 l 1,22,-1
 569 -23 l 1,23,24
 368 -1 368 -1 252.5 115.5 c 128,-1,25
 137 232 137 232 137 414 c 0,26,27
 137 705 137 705 319 906 c 128,-1,28
 501 1107 501 1107 797 1141 c 1,29,-1
 852 1432 l 1,30,-1
 1014 1432 l 1,31,-1
 959 1145 l 1,32,33
 1027 1143 1027 1143 1100 1128 c 128,-1,34
 1173 1113 1173 1113 1249 1085 c 1,7,-1
EndSplineSet
EndChar
StartChar: sterling
Encoding: 163 163 163
Width: 1425
Flags: W
Fore
1415 1466 m 1,0,-1
 1360 1180 l 1,1,2
 1301 1217 1301 1217 1231 1237 c 128,-1,3
 1161 1257 1161 1257 1090 1257 c 0,4,5
 965 1257 965 1257 895 1195.5 c 128,-1,6
 825 1134 825 1134 799 1001 c 2,7,-1
 766 831 l 1,8,-1
 1139 831 l 1,9,-1
 1094 592 l 1,10,-1
 719 592 l 1,11,-1
 655 266 l 1,12,-1
 1196 266 l 1,13,-1
 1145 0 l 1,14,-1
 14 0 l 1,15,-1
 66 266 l 1,16,-1
 291 266 l 1,17,-1
 354 592 l 1,18,-1
 162 592 l 1,19,-1
 207 831 l 1,20,-1
 401 831 l 1,21,-1
 434 1001 l 2,22,23
 486 1271 486 1271 637 1395.5 c 128,-1,24
 788 1520 788 1520 1063 1520 c 0,25,26
 1155 1520 1155 1520 1243 1506.5 c 128,-1,27
 1331 1493 1331 1493 1415 1466 c 1,0,-1
EndSplineSet
EndChar
StartChar: currency
Encoding: 164 164 164
Width: 1303
Flags: W
Fore
434 268 m 1,0,-1
 227 61 l 1,1,-1
 74 215 l 1,2,-1
 281 422 l 1,3,4
 253 471 253 471 239 524.5 c 128,-1,5
 225 578 225 578 225 641 c 0,6,7
 225 704 225 704 240 758 c 128,-1,8
 255 812 255 812 285 858 c 1,9,-1
 76 1063 l 1,10,-1
 229 1217 l 1,11,-1
 436 1010 l 1,12,13
 484 1040 484 1040 538 1054.5 c 128,-1,14
 592 1069 592 1069 653 1069 c 0,15,16
 707 1069 707 1069 761 1055.5 c 128,-1,17
 815 1042 815 1042 872 1014 c 1,18,-1
 1079 1221 l 1,19,-1
 1231 1067 l 1,20,-1
 1024 860 l 1,21,22
 1053 805 1053 805 1067 750 c 128,-1,23
 1081 695 1081 695 1081 641 c 0,24,25
 1081 578 1081 578 1066.5 525.5 c 128,-1,26
 1052 473 1052 473 1022 426 c 1,27,-1
 1229 219 l 1,28,-1
 1075 66 l 1,29,-1
 868 272 l 1,30,31
 822 242 822 242 769 227.5 c 128,-1,32
 716 213 716 213 653 213 c 0,33,34
 595 213 595 213 541 226.5 c 128,-1,35
 487 240 487 240 434 268 c 1,0,-1
653 422 m 0,36,37
 744 422 744 422 808 485.5 c 128,-1,38
 872 549 872 549 872 641 c 0,39,40
 872 733 872 733 808.5 796.5 c 128,-1,41
 745 860 745 860 653 860 c 0,42,43
 562 860 562 860 498 796.5 c 128,-1,44
 434 733 434 733 434 641 c 0,45,46
 434 548 434 548 497 485 c 128,-1,47
 560 422 560 422 653 422 c 0,36,37
EndSplineSet
EndChar
StartChar: yen
Encoding: 165 165 165
Width: 1425
Flags: W
Fore
1294 416 m 1,0,-1
 840 416 l 1,1,-1
 758 0 l 1,2,-1
 377 0 l 1,3,-1
 459 416 l 1,4,-1
 12 416 l 1,5,-1
 51 610 l 1,6,-1
 496 610 l 1,7,-1
 510 686 l 1,8,-1
 481 762 l 1,9,-1
 80 762 l 1,10,-1
 117 954 l 1,11,-1
 408 954 l 1,12,-1
 193 1493 l 1,13,-1
 561 1493 l 1,14,-1
 756 993 l 1,15,-1
 1141 1493 l 1,16,-1
 1546 1493 l 1,17,-1
 1106 954 l 1,18,-1
 1399 954 l 1,19,-1
 1362 762 l 1,20,-1
 954 762 l 1,21,-1
 895 686 l 1,22,-1
 877 610 l 1,23,-1
 1331 610 l 1,24,-1
 1294 416 l 1,0,-1
EndSplineSet
EndChar
StartChar: brokenbar
Encoding: 166 166 166
Width: 748
Flags: W
Fore
487 1432 m 1,0,-1
 487 674 l 1,1,-1
 260 674 l 1,2,-1
 260 1432 l 1,3,-1
 487 1432 l 1,0,-1
487 408 m 1,4,-1
 487 -350 l 1,5,-1
 260 -350 l 1,6,-1
 260 408 l 1,7,-1
 487 408 l 1,4,-1
EndSplineSet
EndChar
StartChar: section
Encoding: 167 167 167
Width: 1024
Flags: W
Fore
1012 1462 m 1,0,-1
 969 1235 l 1,1,2
 879 1275 879 1275 807 1294 c 128,-1,3
 735 1313 735 1313 674 1313 c 0,4,5
 594 1313 594 1313 547 1282.5 c 128,-1,6
 500 1252 500 1252 500 1202 c 0,7,8
 500 1172 500 1172 524.5 1147 c 128,-1,9
 549 1122 549 1122 606 1096 c 2,10,-1
 696 1055 l 2,11,12
 871 977 871 977 935 901.5 c 128,-1,13
 999 826 999 826 999 715 c 0,14,15
 999 592 999 592 922 497 c 128,-1,16
 845 402 845 402 698 344 c 1,17,18
 755 308 755 308 782 264 c 128,-1,19
 809 220 809 220 809 166 c 0,20,21
 809 4 809 4 668 -95.5 c 128,-1,22
 527 -195 527 -195 291 -195 c 0,23,24
 207 -195 207 -195 117 -180.5 c 128,-1,25
 27 -166 27 -166 -68 -137 c 1,26,-1
 -20 100 l 1,27,28
 82 57 82 57 162 35.5 c 128,-1,29
 242 14 242 14 303 14 c 0,30,31
 380 14 380 14 428.5 45.5 c 128,-1,32
 477 77 477 77 477 125 c 0,33,34
 477 156 477 156 453 179.5 c 128,-1,35
 429 203 429 203 350 240 c 2,36,-1
 215 301 l 2,37,38
 96 355 96 355 40 428.5 c 128,-1,39
 -16 502 -16 502 -16 604 c 0,40,41
 -16 727 -16 727 57.5 822.5 c 128,-1,42
 131 918 131 918 272 977 c 1,43,44
 220 1018 220 1018 195 1064 c 128,-1,45
 170 1110 170 1110 170 1163 c 0,46,47
 170 1319 170 1319 308.5 1419.5 c 128,-1,48
 447 1520 447 1520 668 1520 c 0,49,50
 751 1520 751 1520 837 1505.5 c 128,-1,51
 923 1491 923 1491 1012 1462 c 1,0,-1
444 854 m 1,52,53
 364 833 364 833 321.5 788.5 c 128,-1,54
 279 744 279 744 279 682 c 0,55,56
 279 621 279 621 327.5 578 c 128,-1,57
 376 535 376 535 539 471 c 1,58,59
 619 498 619 498 663 543.5 c 128,-1,60
 707 589 707 589 707 645 c 0,61,62
 707 706 707 706 650 752.5 c 128,-1,63
 593 799 593 799 444 854 c 1,52,53
EndSplineSet
EndChar
StartChar: dieresis
Encoding: 168 168 168
Width: 1024
Flags: W
Fore
358 1585 m 1,0,-1
 596 1585 l 1,1,-1
 547 1339 l 1,2,-1
 311 1339 l 1,3,-1
 358 1585 l 1,0,-1
756 1585 m 1,4,-1
 991 1585 l 1,5,-1
 942 1339 l 1,6,-1
 707 1339 l 1,7,-1
 756 1585 l 1,4,-1
EndSplineSet
Ligature: 0 1 'liga' space uni0308
EndChar
StartChar: copyright
Encoding: 169 169 169
Width: 2048
Flags: W
Fore
1323 1126 m 1,0,-1
 1323 911 l 1,1,2
 1266 948 1266 948 1210.5 965.5 c 128,-1,3
 1155 983 1155 983 1098 983 c 0,4,5
 985 983 985 983 921.5 919 c 128,-1,6
 858 855 858 855 858 741 c 0,7,8
 858 626 858 626 921 563 c 128,-1,9
 984 500 984 500 1098 500 c 0,10,11
 1162 500 1162 500 1219.5 518 c 128,-1,12
 1277 536 1277 536 1323 571 c 1,13,-1
 1323 358 l 1,14,15
 1258 336 1258 336 1192.5 324.5 c 128,-1,16
 1127 313 1127 313 1065 313 c 0,17,18
 854 313 854 313 727 430 c 128,-1,19
 600 547 600 547 600 741 c 0,20,21
 600 936 600 936 727 1052.5 c 128,-1,22
 854 1169 854 1169 1065 1169 c 0,23,24
 1134 1169 1134 1169 1198 1158.5 c 128,-1,25
 1262 1148 1262 1148 1323 1126 c 1,0,-1
1024 1331 m 0,26,27
 903 1331 903 1331 799 1287.5 c 128,-1,28
 695 1244 695 1244 608 1157 c 0,29,30
 521 1070 521 1070 477.5 966.5 c 128,-1,31
 434 863 434 863 434 741 c 0,32,33
 434 620 434 620 477.5 516.5 c 128,-1,34
 521 413 521 413 608 326 c 0,35,36
 694 240 694 240 798.5 197 c 128,-1,37
 903 154 903 154 1024 154 c 0,38,39
 1147 154 1147 154 1250 196.5 c 128,-1,40
 1353 239 1353 239 1440 326 c 0,41,42
 1527 413 1527 413 1570.5 516.5 c 128,-1,43
 1614 620 1614 620 1614 741 c 0,44,45
 1614 863 1614 863 1570.5 966.5 c 128,-1,46
 1527 1070 1527 1070 1440 1157 c 0,47,48
 1352 1245 1352 1245 1248.5 1288 c 128,-1,49
 1145 1331 1145 1331 1024 1331 c 0,26,27
1024 1485 m 0,50,51
 1176 1485 1176 1485 1307.5 1430 c 128,-1,52
 1439 1375 1439 1375 1548 1266 c 0,53,54
 1657 1157 1657 1157 1711 1026 c 128,-1,55
 1765 895 1765 895 1765 741 c 0,56,57
 1765 589 1765 589 1711 458.5 c 128,-1,58
 1657 328 1657 328 1548 219 c 0,59,60
 1439 110 1439 110 1307.5 55 c 128,-1,61
 1176 0 1176 0 1024 0 c 0,62,63
 872 0 872 0 740.5 55 c 128,-1,64
 609 110 609 110 500 219 c 0,65,66
 391 328 391 328 337 458.5 c 128,-1,67
 283 589 283 589 283 741 c 0,68,69
 283 895 283 895 337 1026 c 128,-1,70
 391 1157 391 1157 500 1266 c 0,71,72
 609 1375 609 1375 740.5 1430 c 128,-1,73
 872 1485 872 1485 1024 1485 c 0,50,51
EndSplineSet
EndChar
StartChar: ordfeminine
Encoding: 170 170 170
Width: 1155
Flags: W
Fore
127 573 m 1,0,-1
 942 573 l 1,1,-1
 903 373 l 1,2,-1
 88 373 l 1,3,-1
 127 573 l 1,0,-1
692 1081 m 2,4,5
 544 1081 544 1081 488 1052.5 c 128,-1,6
 432 1024 432 1024 432 954 c 0,7,8
 432 910 432 910 463 884 c 128,-1,9
 494 858 494 858 547 858 c 0,10,11
 631 858 631 858 696 914.5 c 128,-1,12
 761 971 761 971 778 1059 c 1,13,-1
 782 1081 l 1,14,-1
 692 1081 l 2,4,5
1069 1165 m 1,15,-1
 983 717 l 1,16,-1
 735 717 l 1,17,-1
 760 842 l 1,18,19
 694 766 694 766 618.5 731 c 128,-1,20
 543 696 543 696 442 696 c 0,21,22
 317 696 317 696 247.5 751.5 c 128,-1,23
 178 807 178 807 178 907 c 0,24,25
 178 1062 178 1062 301.5 1140.5 c 128,-1,26
 425 1219 425 1219 668 1219 c 2,27,-1
 809 1219 l 1,28,-1
 813 1239 l 2,29,30
 814 1243 814 1243 814.5 1248 c 128,-1,31
 815 1253 815 1253 815 1264 c 0,32,33
 815 1308 815 1308 776.5 1331 c 128,-1,34
 738 1354 738 1354 662 1354 c 0,35,36
 574 1354 574 1354 487 1336.5 c 128,-1,37
 400 1319 400 1319 315 1284 c 1,38,-1
 350 1464 l 1,39,40
 448 1492 448 1492 535.5 1506 c 128,-1,41
 623 1520 623 1520 698 1520 c 0,42,43
 884 1520 884 1520 981.5 1456 c 128,-1,44
 1079 1392 1079 1392 1079 1270 c 0,45,46
 1079 1239 1079 1239 1076.5 1213.5 c 128,-1,47
 1074 1188 1074 1188 1069 1165 c 1,15,-1
EndSplineSet
EndChar
StartChar: guillemotleft
Encoding: 171 171 171
Width: 1331
Flags: W
Fore
1217 1063 m 1,0,-1
 1167 811 l 1,1,-1
 821 582 l 1,2,-1
 1079 360 l 1,3,-1
 1036 137 l 1,4,-1
 614 506 l 1,5,-1
 651 692 l 1,6,-1
 1217 1063 l 1,0,-1
727 1063 m 1,7,-1
 678 811 l 1,8,-1
 332 582 l 1,9,-1
 590 360 l 1,10,-1
 547 137 l 1,11,-1
 125 506 l 1,12,-1
 162 692 l 1,13,-1
 727 1063 l 1,7,-1
EndSplineSet
EndChar
StartChar: logicalnot
Encoding: 172 172 172
Width: 1716
Flags: W
Fore
217 909 m 1,0,-1
 1499 909 l 1,1,-1
 1499 287 l 1,2,-1
 1264 287 l 1,3,-1
 1264 672 l 1,4,-1
 217 672 l 1,5,-1
 217 909 l 1,0,-1
EndSplineSet
EndChar
StartChar: sfthyphen
Encoding: 173 173 173
Width: 850
Flags: W
Fore
109 735 m 1,0,-1
 737 735 l 1,1,-1
 680 444 l 1,2,-1
 51 444 l 1,3,-1
 109 735 l 1,0,-1
EndSplineSet
EndChar
StartChar: registered
Encoding: 174 174 174
Width: 2048
Flags: W
Fore
1024 1331 m 0,0,1
 903 1331 903 1331 799 1287.5 c 128,-1,2
 695 1244 695 1244 608 1157 c 0,3,4
 521 1070 521 1070 477.5 966.5 c 128,-1,5
 434 863 434 863 434 741 c 0,6,7
 434 620 434 620 477.5 516.5 c 128,-1,8
 521 413 521 413 608 326 c 0,9,10
 694 240 694 240 798.5 197 c 128,-1,11
 903 154 903 154 1024 154 c 0,12,13
 1147 154 1147 154 1250 196.5 c 128,-1,14
 1353 239 1353 239 1440 326 c 0,15,16
 1527 413 1527 413 1570.5 516.5 c 128,-1,17
 1614 620 1614 620 1614 741 c 0,18,19
 1614 863 1614 863 1570.5 966.5 c 128,-1,20
 1527 1070 1527 1070 1440 1157 c 0,21,22
 1352 1245 1352 1245 1248.5 1288 c 128,-1,23
 1145 1331 1145 1331 1024 1331 c 0,0,1
967 1036 m 2,24,-1
 932 1036 l 1,25,-1
 932 829 l 1,26,-1
 967 829 l 2,27,28
 1045 829 1045 829 1084.5 855.5 c 128,-1,29
 1124 882 1124 882 1124 934 c 0,30,31
 1124 986 1124 986 1085.5 1011 c 128,-1,32
 1047 1036 1047 1036 967 1036 c 2,24,-1
1004 1174 m 2,33,34
 1180 1174 1180 1174 1267 1114.5 c 128,-1,35
 1354 1055 1354 1055 1354 934 c 0,36,37
 1354 848 1354 848 1301.5 792 c 128,-1,38
 1249 736 1249 736 1153 719 c 1,39,40
 1194 697 1194 697 1229.5 657 c 128,-1,41
 1265 617 1265 617 1294 559 c 2,42,-1
 1405 338 l 1,43,-1
 1176 338 l 1,44,-1
 1069 551 l 1,45,46
 1031 629 1031 629 1002 661.5 c 128,-1,47
 973 694 973 694 944 694 c 2,48,-1
 932 694 l 1,49,-1
 932 338 l 1,50,-1
 719 338 l 1,51,-1
 719 1174 l 1,52,-1
 1004 1174 l 2,33,34
1024 1485 m 0,53,54
 1176 1485 1176 1485 1307.5 1430 c 128,-1,55
 1439 1375 1439 1375 1548 1266 c 0,56,57
 1657 1157 1657 1157 1711 1026 c 128,-1,58
 1765 895 1765 895 1765 741 c 0,59,60
 1765 589 1765 589 1711 458.5 c 128,-1,61
 1657 328 1657 328 1548 219 c 0,62,63
 1439 110 1439 110 1307.5 55 c 128,-1,64
 1176 0 1176 0 1024 0 c 0,65,66
 872 0 872 0 740.5 55 c 128,-1,67
 609 110 609 110 500 219 c 0,68,69
 391 328 391 328 337 458.5 c 128,-1,70
 283 589 283 589 283 741 c 0,71,72
 283 895 283 895 337 1026 c 128,-1,73
 391 1157 391 1157 500 1266 c 0,74,75
 609 1375 609 1375 740.5 1430 c 128,-1,76
 872 1485 872 1485 1024 1485 c 0,53,54
EndSplineSet
EndChar
StartChar: macron
Encoding: 175 175 175
Width: 1024
Flags: W
Fore
354 1556 m 1,0,-1
 985 1556 l 1,1,-1
 948 1368 l 1,2,-1
 317 1368 l 1,3,-1
 354 1556 l 1,0,-1
EndSplineSet
Ligature: 0 1 'liga' space uni0304
EndChar
StartChar: degree
Encoding: 176 176 176
Width: 1024
Flags: W
Fore
512 1372 m 0,0,1
 440 1372 440 1372 390 1322 c 128,-1,2
 340 1272 340 1272 340 1200 c 0,3,4
 340 1128 340 1128 389.5 1079 c 128,-1,5
 439 1030 439 1030 512 1030 c 0,6,7
 584 1030 584 1030 634 1079.5 c 128,-1,8
 684 1129 684 1129 684 1200 c 0,9,10
 684 1272 684 1272 633.5 1322 c 128,-1,11
 583 1372 583 1372 512 1372 c 0,0,1
512 1534 m 0,12,13
 578 1534 578 1534 639 1508.5 c 128,-1,14
 700 1483 700 1483 748 1436 c 1,15,16
 795 1388 795 1388 819.5 1328 c 128,-1,17
 844 1268 844 1268 844 1200 c 0,18,19
 844 1133 844 1133 819.5 1072.5 c 128,-1,20
 795 1012 795 1012 750 967 c 0,21,22
 702 919 702 919 640 893.5 c 128,-1,23
 578 868 578 868 510 868 c 0,24,25
 369 868 369 868 273.5 963.5 c 128,-1,26
 178 1059 178 1059 178 1200 c 0,27,28
 178 1341 178 1341 274.5 1437.5 c 128,-1,29
 371 1534 371 1534 512 1534 c 0,12,13
EndSplineSet
EndChar
StartChar: plusminus
Encoding: 177 177 177
Width: 1716
Flags: W
Fore
977 1284 m 1,0,-1
 977 930 l 1,1,-1
 1499 930 l 1,2,-1
 1499 694 l 1,3,-1
 977 694 l 1,4,-1
 977 340 l 1,5,-1
 739 340 l 1,6,-1
 739 694 l 1,7,-1
 217 694 l 1,8,-1
 217 930 l 1,9,-1
 739 930 l 1,10,-1
 739 1284 l 1,11,-1
 977 1284 l 1,0,-1
217 238 m 1,12,-1
 1499 238 l 1,13,-1
 1499 0 l 1,14,-1
 217 0 l 1,15,-1
 217 238 l 1,12,-1
EndSplineSet
EndChar
StartChar: twosuperior
Encoding: 178 178 178
Width: 897
Flags: W
Fore
424 836 m 1,0,-1
 801 836 l 1,1,-1
 768 668 l 1,2,-1
 92 668 l 1,3,-1
 123 821 l 1,4,-1
 489 1087 l 2,5,6
 569 1145 569 1145 608 1194.5 c 128,-1,7
 647 1244 647 1244 647 1286 c 0,8,9
 647 1326 647 1326 614.5 1349 c 128,-1,10
 582 1372 582 1372 524 1372 c 0,11,12
 456 1372 456 1372 382.5 1349 c 128,-1,13
 309 1326 309 1326 238 1282 c 1,14,-1
 274 1468 l 1,15,16
 357 1494 357 1494 431.5 1507 c 128,-1,17
 506 1520 506 1520 575 1520 c 0,18,19
 724 1520 724 1520 803.5 1465.5 c 128,-1,20
 883 1411 883 1411 883 1311 c 0,21,22
 883 1232 883 1232 829 1157.5 c 128,-1,23
 775 1083 775 1083 655 999 c 2,24,-1
 424 836 l 1,0,-1
EndSplineSet
EndChar
StartChar: threesuperior
Encoding: 179 179 179
Width: 897
Flags: W
Fore
666 1120 m 1,0,1
 741 1107 741 1107 780 1060.5 c 128,-1,2
 819 1014 819 1014 819 938 c 0,3,4
 819 801 819 801 702 727 c 128,-1,5
 585 653 585 653 369 653 c 0,6,7
 289 653 289 653 216.5 665 c 128,-1,8
 144 677 144 677 82 700 c 1,9,-1
 115 872 l 1,10,11
 173 836 173 836 232.5 817.5 c 128,-1,12
 292 799 292 799 352 799 c 0,13,14
 461 799 461 799 522.5 837 c 128,-1,15
 584 875 584 875 584 942 c 0,16,17
 584 996 584 996 534.5 1021.5 c 128,-1,18
 485 1047 485 1047 381 1047 c 2,19,-1
 305 1047 l 1,20,-1
 332 1184 l 1,21,-1
 418 1184 l 2,22,23
 524 1184 524 1184 580.5 1213 c 128,-1,24
 637 1242 637 1242 637 1296 c 0,25,26
 637 1334 637 1334 599 1353 c 128,-1,27
 561 1372 561 1372 487 1372 c 0,28,29
 433 1372 433 1372 369.5 1359 c 128,-1,30
 306 1346 306 1346 229 1319 c 1,31,-1
 260 1485 l 1,32,33
 332 1502 332 1502 406 1511 c 128,-1,34
 480 1520 480 1520 553 1520 c 0,35,36
 708 1520 708 1520 791 1470 c 128,-1,37
 874 1420 874 1420 874 1327 c 0,38,39
 874 1246 874 1246 817.5 1190 c 128,-1,40
 761 1134 761 1134 666 1120 c 1,0,1
EndSplineSet
EndChar
StartChar: acute
Encoding: 180 180 180
Width: 1024
Flags: W
Fore
811 1638 m 1,0,-1
 1104 1638 l 1,1,-1
 666 1262 l 1,2,-1
 465 1262 l 1,3,-1
 811 1638 l 1,0,-1
EndSplineSet
LCarets: 0 65535 '    ' 1 0 
Ligature: 0 1 'liga' space acutecomb
EndChar
StartChar: mu
Encoding: 181 181 181
Width: 1507
Flags: W
Fore
-55 -428 m 1,0,-1
 246 1120 l 1,1,-1
 606 1120 l 1,2,-1
 479 469 l 2,3,4
 475 448 475 448 473 428 c 128,-1,5
 471 408 471 408 471 391 c 0,6,7
 471 318 471 318 514 279 c 128,-1,8
 557 240 557 240 639 240 c 0,9,10
 741 240 741 240 801 296 c 128,-1,11
 861 352 861 352 885 469 c 1,12,-1
 1012 1120 l 1,13,-1
 1372 1120 l 1,14,-1
 1227 371 l 2,15,16
 1223 350 1223 350 1221 332.5 c 128,-1,17
 1219 315 1219 315 1219 301 c 0,18,19
 1219 272 1219 272 1232.5 258 c 128,-1,20
 1246 244 1246 244 1274 244 c 0,21,22
 1291 244 1291 244 1310.5 249.5 c 128,-1,23
 1330 255 1330 255 1350 266 c 1,24,-1
 1300 16 l 1,25,26
 1243 -7 1243 -7 1194 -18 c 128,-1,27
 1145 -29 1145 -29 1100 -29 c 0,28,29
 1012 -29 1012 -29 962.5 9 c 128,-1,30
 913 47 913 47 893 129 c 1,31,32
 831 50 831 50 755.5 10.5 c 128,-1,33
 680 -29 680 -29 592 -29 c 0,34,35
 518 -29 518 -29 471.5 -5.5 c 128,-1,36
 425 18 425 18 403 66 c 1,37,-1
 307 -428 l 1,38,-1
 -55 -428 l 1,0,-1
EndSplineSet
EndChar
StartChar: paragraph
Encoding: 182 182 182
Width: 1303
Flags: W
Fore
715 1493 m 2,0,-1
 1235 1493 l 1,1,-1
 907 -197 l 1,2,-1
 717 -197 l 1,3,-1
 1016 1346 l 1,4,-1
 827 1346 l 1,5,-1
 526 -197 l 1,6,-1
 338 -197 l 1,7,-1
 502 649 l 1,8,9
 334 669 334 669 243 761 c 128,-1,10
 152 853 152 853 152 1001 c 0,11,12
 152 1216 152 1216 308.5 1354.5 c 128,-1,13
 465 1493 465 1493 715 1493 c 2,0,-1
EndSplineSet
EndChar
StartChar: periodcentered
Encoding: 183 183 183
Width: 778
Flags: W
Fore
248 905 m 1,0,-1
 608 905 l 1,1,-1
 532 518 l 1,2,-1
 172 518 l 1,3,-1
 248 905 l 1,0,-1
EndSplineSet
EndChar
StartChar: cedilla
Encoding: 184 184 184
Width: 1024
Flags: W
Fore
459 0 m 1,0,1
 496 -52 496 -52 513 -96 c 128,-1,2
 530 -140 530 -140 530 -182 c 0,3,4
 530 -286 530 -286 454.5 -343.5 c 128,-1,5
 379 -401 379 -401 242 -401 c 0,6,7
 193 -401 193 -401 144.5 -394.5 c 128,-1,8
 96 -388 96 -388 45 -375 c 1,9,-1
 74 -219 l 1,10,11
 114 -236 114 -236 154.5 -245 c 128,-1,12
 195 -254 195 -254 233 -254 c 0,13,14
 299 -254 299 -254 337 -225.5 c 128,-1,15
 375 -197 375 -197 375 -150 c 0,16,17
 375 -124 375 -124 361.5 -89.5 c 128,-1,18
 348 -55 348 -55 317 0 c 1,19,-1
 459 0 l 1,0,1
EndSplineSet
Ligature: 0 1 'liga' space uni0327
EndChar
StartChar: onesuperior
Encoding: 185 185 185
Width: 897
Flags: W
Fore
168 825 m 1,0,-1
 373 825 l 1,1,-1
 475 1346 l 1,2,-1
 242 1294 l 1,3,-1
 272 1454 l 1,4,-1
 516 1503 l 1,5,-1
 735 1503 l 1,6,-1
 602 825 l 1,7,-1
 809 825 l 1,8,-1
 778 668 l 1,9,-1
 137 668 l 1,10,-1
 168 825 l 1,0,-1
EndSplineSet
EndChar
StartChar: ordmasculine
Encoding: 186 186 186
Width: 1155
Flags: W
Fore
719 1520 m 0,0,1
 902 1520 902 1520 1009 1429.5 c 128,-1,2
 1116 1339 1116 1339 1116 1186 c 0,3,4
 1116 967 1116 967 968.5 832.5 c 128,-1,5
 821 698 821 698 578 698 c 0,6,7
 396 698 396 698 287 789.5 c 128,-1,8
 178 881 178 881 178 1032 c 0,9,10
 178 1249 178 1249 327 1384.5 c 128,-1,11
 476 1520 476 1520 719 1520 c 0,0,1
133 573 m 1,12,-1
 956 573 l 1,13,-1
 918 373 l 1,14,-1
 94 373 l 1,15,-1
 133 573 l 1,12,-1
694 1350 m 0,16,17
 595 1350 595 1350 530 1257.5 c 128,-1,18
 465 1165 465 1165 465 1024 c 0,19,20
 465 948 465 948 500 908 c 128,-1,21
 535 868 535 868 602 868 c 0,22,23
 701 868 701 868 766 960 c 128,-1,24
 831 1052 831 1052 831 1194 c 0,25,26
 831 1269 831 1269 795.5 1309.5 c 128,-1,27
 760 1350 760 1350 694 1350 c 0,16,17
EndSplineSet
EndChar
StartChar: guillemotright
Encoding: 187 187 187
Width: 1331
Flags: W
Fore
117 135 m 1,0,-1
 166 389 l 1,1,-1
 510 618 l 1,2,-1
 254 840 l 1,3,-1
 297 1063 l 1,4,-1
 717 692 l 1,5,-1
 682 506 l 1,6,-1
 117 135 l 1,0,-1
606 135 m 1,7,-1
 655 389 l 1,8,-1
 999 618 l 1,9,-1
 741 840 l 1,10,-1
 786 1063 l 1,11,-1
 1206 692 l 1,12,-1
 1171 506 l 1,13,-1
 606 135 l 1,7,-1
EndSplineSet
EndChar
StartChar: onequarter
Encoding: 188 188 188
Width: 2181
Flags: W
Fore
1700 651 m 1,0,-1
 1393 317 l 1,1,-1
 1632 317 l 1,2,-1
 1700 651 l 1,0,-1
1712 836 m 1,3,-1
 1962 836 l 1,4,-1
 1862 317 l 1,5,-1
 1997 317 l 1,6,-1
 1968 162 l 1,7,-1
 1831 162 l 1,8,-1
 1798 0 l 1,9,-1
 1569 0 l 1,10,-1
 1602 162 l 1,11,-1
 1210 162 l 1,12,-1
 1243 330 l 1,13,-1
 1712 836 l 1,3,-1
616 -29 m 1,14,-1
 371 -29 l 1,15,-1
 1606 1520 l 1,16,-1
 1851 1520 l 1,17,-1
 616 -29 l 1,14,-1
168 825 m 1,18,-1
 373 825 l 1,19,-1
 475 1346 l 1,20,-1
 242 1294 l 1,21,-1
 272 1454 l 1,22,-1
 516 1503 l 1,23,-1
 735 1503 l 1,24,-1
 602 825 l 1,25,-1
 809 825 l 1,26,-1
 778 668 l 1,27,-1
 137 668 l 1,28,-1
 168 825 l 1,18,-1
EndSplineSet
Ligature: 0 1 'frac' one slash four
Ligature: 0 1 'frac' one fraction four
EndChar
StartChar: onehalf
Encoding: 189 189 189
Width: 2181
Flags: W
Fore
1604 168 m 1,0,-1
 1978 168 l 1,1,-1
 1946 0 l 1,2,-1
 1272 0 l 1,3,-1
 1303 154 l 1,4,-1
 1669 420 l 2,5,6
 1750 478 1750 478 1788.5 526.5 c 128,-1,7
 1827 575 1827 575 1827 616 c 0,8,9
 1827 657 1827 657 1794 681 c 128,-1,10
 1761 705 1761 705 1704 705 c 0,11,12
 1636 705 1636 705 1561 681.5 c 128,-1,13
 1486 658 1486 658 1415 614 c 1,14,-1
 1452 801 l 1,15,16
 1535 827 1535 827 1609 839.5 c 128,-1,17
 1683 852 1683 852 1753 852 c 0,18,19
 1902 852 1902 852 1982 797.5 c 128,-1,20
 2062 743 2062 743 2062 643 c 0,21,22
 2062 564 2062 564 2008 490 c 128,-1,23
 1954 416 1954 416 1835 332 c 2,24,-1
 1604 168 l 1,0,-1
616 -29 m 1,25,-1
 371 -29 l 1,26,-1
 1606 1520 l 1,27,-1
 1851 1520 l 1,28,-1
 616 -29 l 1,25,-1
168 825 m 1,29,-1
 373 825 l 1,30,-1
 475 1346 l 1,31,-1
 242 1294 l 1,32,-1
 272 1454 l 1,33,-1
 516 1503 l 1,34,-1
 735 1503 l 1,35,-1
 602 825 l 1,36,-1
 809 825 l 1,37,-1
 778 668 l 1,38,-1
 137 668 l 1,39,-1
 168 825 l 1,29,-1
EndSplineSet
Ligature: 0 1 'frac' one slash two
Ligature: 0 1 'frac' one fraction two
EndChar
StartChar: threequarters
Encoding: 190 190 190
Width: 2181
Flags: W
Fore
674 1120 m 1,0,1
 750 1106 750 1106 789.5 1060 c 128,-1,2
 829 1014 829 1014 829 938 c 0,3,4
 829 801 829 801 712.5 727 c 128,-1,5
 596 653 596 653 379 653 c 0,6,7
 298 653 298 653 225 665 c 128,-1,8
 152 677 152 677 90 700 c 1,9,-1
 125 872 l 1,10,11
 183 836 183 836 242.5 817.5 c 128,-1,12
 302 799 302 799 362 799 c 0,13,14
 471 799 471 799 532.5 837 c 128,-1,15
 594 875 594 875 594 942 c 0,16,17
 594 996 594 996 545 1021.5 c 128,-1,18
 496 1047 496 1047 391 1047 c 2,19,-1
 315 1047 l 1,20,-1
 342 1184 l 1,21,-1
 428 1184 l 2,22,23
 534 1184 534 1184 589.5 1213 c 128,-1,24
 645 1242 645 1242 645 1296 c 0,25,26
 645 1334 645 1334 607.5 1353 c 128,-1,27
 570 1372 570 1372 498 1372 c 0,28,29
 442 1372 442 1372 377.5 1359 c 128,-1,30
 313 1346 313 1346 238 1319 c 1,31,-1
 270 1485 l 1,32,33
 342 1502 342 1502 416 1511 c 128,-1,34
 490 1520 490 1520 563 1520 c 0,35,36
 718 1520 718 1520 800.5 1470 c 128,-1,37
 883 1420 883 1420 883 1327 c 0,38,39
 883 1246 883 1246 826.5 1190 c 128,-1,40
 770 1134 770 1134 674 1120 c 1,0,1
1704 651 m 1,41,-1
 1399 317 l 1,42,-1
 1638 317 l 1,43,-1
 1704 651 l 1,41,-1
1718 836 m 1,44,-1
 1966 836 l 1,45,-1
 1866 317 l 1,46,-1
 2003 317 l 1,47,-1
 1972 162 l 1,48,-1
 1835 162 l 1,49,-1
 1804 0 l 1,50,-1
 1575 0 l 1,51,-1
 1606 162 l 1,52,-1
 1217 162 l 1,53,-1
 1247 330 l 1,54,-1
 1718 836 l 1,44,-1
631 -29 m 1,55,-1
 385 -29 l 1,56,-1
 1620 1520 l 1,57,-1
 1866 1520 l 1,58,-1
 631 -29 l 1,55,-1
EndSplineSet
Ligature: 0 1 'frac' three slash four
Ligature: 0 1 'frac' three fraction four
EndChar
StartChar: questiondown
Encoding: 191 191 191
Width: 1188
Flags: W
Fore
541 989 m 1,0,-1
 901 989 l 1,1,-1
 891 938 l 1,2,3
 876 858 876 858 833 796.5 c 128,-1,4
 790 735 790 735 659 633 c 1,5,-1
 584 573 l 1,6,7
 504 512 504 512 469 460 c 128,-1,8
 434 408 434 408 434 354 c 0,9,10
 434 297 434 297 474 266.5 c 128,-1,11
 514 236 514 236 590 236 c 0,12,13
 670 236 670 236 771.5 270 c 128,-1,14
 873 304 873 304 987 369 c 1,15,-1
 926 55 l 1,16,17
 799 13 799 13 693.5 -7 c 128,-1,18
 588 -27 588 -27 492 -27 c 0,19,20
 297 -27 297 -27 186.5 58.5 c 128,-1,21
 76 144 76 144 76 293 c 0,22,23
 76 412 76 412 129 506 c 128,-1,24
 182 600 182 600 309 702 c 2,25,-1
 385 762 l 2,26,27
 468 827 468 827 496 864.5 c 128,-1,28
 524 902 524 902 532 944 c 1,29,-1
 541 989 l 1,0,-1
930 1137 m 1,30,-1
 569 1137 l 1,31,-1
 639 1493 l 1,32,-1
 999 1493 l 1,33,-1
 930 1137 l 1,30,-1
EndSplineSet
EndChar
StartChar: Aring
Encoding: 197 197 197
Width: 1585
Flags: W
Fore
795 1616 m 0,0,1
 795 1562 795 1562 833.5 1523.5 c 128,-1,2
 872 1485 872 1485 926 1485 c 0,3,4
 980 1485 980 1485 1018.5 1523.5 c 128,-1,5
 1057 1562 1057 1562 1057 1616 c 0,6,7
 1057 1670 1057 1670 1018 1708.5 c 128,-1,8
 979 1747 979 1747 926 1747 c 0,9,10
 872 1747 872 1747 833.5 1708.5 c 128,-1,11
 795 1670 795 1670 795 1616 c 0,0,1
1155 1456 m 1,12,-1
 1415 0 l 1,13,-1
 1049 0 l 1,14,-1
 1006 272 l 1,15,-1
 410 272 l 1,16,-1
 262 0 l 1,17,-1
 -133 0 l 1,18,-1
 692 1458 l 1,19,20
 666 1495 666 1495 653.5 1533.5 c 128,-1,21
 641 1572 641 1572 641 1616 c 0,22,23
 641 1733 641 1733 724.5 1817 c 128,-1,24
 808 1901 808 1901 926 1901 c 0,25,26
 1043 1901 1043 1901 1126.5 1817 c 128,-1,27
 1210 1733 1210 1733 1210 1616 c 0,28,29
 1210 1568 1210 1568 1197 1529.5 c 128,-1,30
 1184 1491 1184 1491 1155 1456 c 1,12,-1
555 543 m 1,31,-1
 956 543 l 1,32,-1
 866 1118 l 1,33,-1
 555 543 l 1,31,-1
EndSplineSet
Ligature: 0 0 'liga' A uni030A
EndChar
StartChar: AE
Encoding: 198 198 198
Width: 2222
Flags: W
Fore
985 1237 m 1,0,-1
 610 627 l 1,1,-1
 987 627 l 1,2,-1
 1106 1237 l 1,3,-1
 985 1237 l 1,0,-1
774 1493 m 1,4,-1
 2195 1493 l 1,5,-1
 2138 1202 l 1,6,-1
 1485 1202 l 1,7,-1
 1432 924 l 1,8,-1
 2046 924 l 1,9,-1
 1989 633 l 1,10,-1
 1374 633 l 1,11,-1
 1309 291 l 1,12,-1
 1982 291 l 1,13,-1
 1927 0 l 1,14,-1
 866 0 l 1,15,-1
 934 350 l 1,16,-1
 442 350 l 1,17,-1
 225 0 l 1,18,-1
 -160 0 l 1,19,-1
 774 1493 l 1,4,-1
EndSplineSet
KernsSLIFO: 45 -36 0 0
EndChar
StartChar: Eth
Encoding: 208 208 208
Width: 1731
Flags: W
Fore
696 1202 m 1,0,-1
 639 903 l 1,1,-1
 885 903 l 1,2,-1
 834 643 l 1,3,-1
 588 643 l 1,4,-1
 518 291 l 1,5,-1
 655 291 l 2,6,7
 926 291 926 291 1083.5 442.5 c 128,-1,8
 1241 594 1241 594 1241 850 c 0,9,10
 1241 1024 1241 1024 1137.5 1113 c 128,-1,11
 1034 1202 1034 1202 831 1202 c 2,12,-1
 696 1202 l 1,0,-1
367 1493 m 1,13,-1
 772 1493 l 2,14,15
 1062 1493 1062 1493 1207 1458.5 c 128,-1,16
 1352 1424 1352 1424 1448 1343 c 0,17,18
 1545 1262 1545 1262 1595 1146 c 128,-1,19
 1645 1030 1645 1030 1645 885 c 0,20,21
 1645 684 1645 684 1560.5 504 c 128,-1,22
 1476 324 1476 324 1325 201 c 0,23,24
 1193 92 1193 92 1018.5 46 c 128,-1,25
 844 0 844 0 481 0 c 2,26,-1
 76 0 l 1,27,-1
 201 643 l 1,28,-1
 -4 643 l 1,29,-1
 47 903 l 1,30,-1
 252 903 l 1,31,-1
 367 1493 l 1,13,-1
EndSplineSet
KernsSLIFO: 7922 -159 0 0 562 -159 0 0 374 -159 0 0 221 -159 0 0 8222 -36 0 0 8218 -36 0 0 376 -159 0 0 89 -159 0 0 45 38 0 0
EndChar
StartChar: multiply
Encoding: 215 215 215
Width: 1716
Flags: W
Fore
1460 1075 m 1,0,-1
 1026 641 l 1,1,-1
 1460 209 l 1,2,-1
 1292 41 l 1,3,-1
 858 473 l 1,4,-1
 424 41 l 1,5,-1
 256 209 l 1,6,-1
 690 641 l 1,7,-1
 256 1075 l 1,8,-1
 424 1243 l 1,9,-1
 858 809 l 1,10,-1
 1292 1243 l 1,11,-1
 1460 1075 l 1,0,-1
EndSplineSet
EndChar
StartChar: Oslash
Encoding: 216 216 216
Width: 1741
Flags: W
Fore
1196 1128 m 1,0,1
 1156 1185 1156 1185 1095 1213 c 128,-1,2
 1034 1241 1034 1241 952 1241 c 0,3,4
 750 1241 750 1241 615.5 1062.5 c 128,-1,5
 481 884 481 884 481 612 c 0,6,7
 481 590 481 590 485 538 c 0,8,9
 485 532 l 1,10,-1
 1196 1128 l 1,0,1
158 258 m 1,11,12
 116 332 116 332 95 410.5 c 128,-1,13
 74 489 74 489 74 569 c 0,14,15
 74 752 74 752 129 914 c 128,-1,16
 184 1076 184 1076 291 1206 c 0,17,18
 420 1365 420 1365 596.5 1442.5 c 128,-1,19
 773 1520 773 1520 1006 1520 c 0,20,21
 1154 1520 1154 1520 1270.5 1481 c 128,-1,22
 1387 1442 1387 1442 1475 1364 c 1,23,-1
 1733 1579 l 1,24,-1
 1835 1456 l 1,25,-1
 1577 1243 l 1,26,27
 1622 1167 1622 1167 1644.5 1086 c 128,-1,28
 1667 1005 1667 1005 1667 920 c 0,29,30
 1667 738 1667 738 1611.5 576 c 128,-1,31
 1556 414 1556 414 1450 285 c 0,32,33
 1320 127 1320 127 1142 49 c 128,-1,34
 964 -29 964 -29 733 -29 c 0,35,36
 586 -29 586 -29 468 12 c 128,-1,37
 350 53 350 53 258 135 c 1,38,-1
 6 -78 l 1,39,-1
 -96 45 l 1,40,-1
 158 258 l 1,11,12
539 371 m 1,41,42
 578 312 578 312 639 281 c 128,-1,43
 700 250 700 250 778 250 c 0,44,45
 893 250 893 250 982.5 298.5 c 128,-1,46
 1072 347 1072 347 1135 442 c 0,47,48
 1195 534 1195 534 1228.5 648.5 c 128,-1,49
 1262 763 1262 763 1262 879 c 0,50,51
 1262 904 1262 904 1255 957 c 0,52,53
 1254 965 1254 965 1253 969 c 1,54,-1
 539 371 l 1,41,42
EndSplineSet
KernsSLIFO: 221 -36 0 0 193 -36 0 0 194 -36 0 0 376 -36 0 0 195 -36 0 0 192 -36 0 0 196 -36 0 0 89 -36 0 0 88 -73 0 0 86 -36 0 0 65 -36 0 0 46 -45 0 0 45 38 0 0 44 -45 0 0
EndChar
StartChar: Thorn
Encoding: 222 222 222
Width: 1520
Flags: W
Fore
334 1493 m 1,0,-1
 719 1493 l 1,1,-1
 676 1270 l 1,2,-1
 922 1270 l 2,3,4
 1157 1270 1157 1270 1290 1162.5 c 128,-1,5
 1423 1055 1423 1055 1423 864 c 0,6,7
 1423 747 1423 747 1379.5 642.5 c 128,-1,8
 1336 538 1336 538 1253 459 c 0,9,10
 1164 373 1164 373 1039.5 334 c 128,-1,11
 915 295 915 295 731 295 c 2,12,-1
 485 295 l 1,13,-1
 428 0 l 1,14,-1
 43 0 l 1,15,-1
 334 1493 l 1,0,-1
621 993 m 1,16,-1
 541 573 l 1,17,-1
 745 573 l 2,18,19
 881 573 881 573 953.5 638 c 128,-1,20
 1026 703 1026 703 1026 825 c 0,21,22
 1026 907 1026 907 975.5 950 c 128,-1,23
 925 993 925 993 827 993 c 2,24,-1
 621 993 l 1,16,-1
EndSplineSet
EndChar
StartChar: germandbls
Encoding: 223 223 223
Width: 1473
Flags: W
Fore
279 1114 m 1,0,1
 321 1338 321 1338 475.5 1447 c 128,-1,2
 630 1556 630 1556 903 1556 c 0,3,4
 1129 1556 1129 1556 1246.5 1468 c 128,-1,5
 1364 1380 1364 1380 1364 1210 c 0,6,7
 1364 1190 1364 1190 1361.5 1166 c 128,-1,8
 1359 1142 1359 1142 1354 1115 c 1,9,-1
 1339 1042 l 1,10,11
 1188 1037 1188 1037 1099 990.5 c 128,-1,12
 1010 944 1010 944 1010 872 c 0,13,14
 1010 817 1010 817 1112 745 c 0,15,16
 1121 739 1121 739 1127 735 c 2,17,-1
 1188 692 l 2,18,19
 1272 633 1272 633 1311 563.5 c 128,-1,20
 1350 494 1350 494 1350 403 c 0,21,22
 1350 210 1350 210 1211 90.5 c 128,-1,23
 1072 -29 1072 -29 844 -29 c 0,24,25
 766 -29 766 -29 690.5 -16.5 c 128,-1,26
 615 -4 615 -4 541 20 c 1,27,-1
 590 264 l 1,28,29
 646 237 646 237 701.5 223 c 128,-1,30
 757 209 757 209 809 209 c 0,31,32
 891 209 891 209 941 247 c 128,-1,33
 991 285 991 285 991 346 c 0,34,35
 991 386 991 386 968 418.5 c 128,-1,36
 945 451 945 451 868 506 c 2,37,-1
 807 549 l 2,38,39
 740 596 740 596 710 646.5 c 128,-1,40
 680 697 680 697 680 760 c 0,41,42
 680 898 680 898 771.5 997 c 128,-1,43
 863 1096 863 1096 1036 1145 c 1,44,45
 1037 1151 1037 1151 1037.5 1159 c 128,-1,46
 1038 1167 1038 1167 1038 1182 c 0,47,48
 1038 1249 1038 1249 997 1284 c 128,-1,49
 956 1319 956 1319 877 1319 c 0,50,51
 775 1319 775 1319 716.5 1265.5 c 128,-1,52
 658 1212 658 1212 637 1100 c 1,53,-1
 422 0 l 1,54,-1
 63 0 l 1,55,-1
 279 1114 l 1,0,1
EndSplineSet
EndChar
StartChar: ae
Encoding: 230 230 230
Width: 2146
Flags: W
Fore
674 504 m 2,0,1
 540 504 540 504 471.5 462.5 c 128,-1,2
 403 421 403 421 403 340 c 0,3,4
 403 279 403 279 443.5 244 c 128,-1,5
 484 209 484 209 555 209 c 0,6,7
 665 209 665 209 739 275.5 c 128,-1,8
 813 342 813 342 838 463 c 1,9,-1
 846 504 l 1,10,-1
 674 504 l 2,0,1
291 1090 m 1,11,12
 408 1118 408 1118 519.5 1132.5 c 128,-1,13
 631 1147 631 1147 735 1147 c 0,14,15
 884 1147 884 1147 982 1110.5 c 128,-1,16
 1080 1074 1080 1074 1137 997 c 1,17,18
 1232 1074 1232 1074 1338.5 1110.5 c 128,-1,19
 1445 1147 1445 1147 1575 1147 c 0,20,21
 1798 1147 1798 1147 1931 1025 c 128,-1,22
 2064 903 2064 903 2064 702 c 0,23,24
 2064 657 2064 657 2059 611 c 128,-1,25
 2054 565 2054 565 2044 518 c 1,26,-1
 2030 461 l 1,27,-1
 1194 461 l 1,28,29
 1194 455 1194 455 1193 443.5 c 128,-1,30
 1192 432 1192 432 1192 426 c 0,31,32
 1192 317 1192 317 1257.5 263 c 128,-1,33
 1323 209 1323 209 1454 209 c 0,34,35
 1566 209 1566 209 1690.5 242.5 c 128,-1,36
 1815 276 1815 276 1954 344 c 1,37,-1
 1901 66 l 1,38,39
 1770 18 1770 18 1639.5 -5.5 c 128,-1,40
 1509 -29 1509 -29 1374 -29 c 0,41,42
 1201 -29 1201 -29 1083 22.5 c 128,-1,43
 965 74 965 74 899 178 c 1,44,45
 782 73 782 73 658.5 22 c 128,-1,46
 535 -29 535 -29 397 -29 c 0,47,48
 227 -29 227 -29 131 52 c 128,-1,49
 35 133 35 133 35 274 c 0,50,51
 35 490 35 490 200.5 603.5 c 128,-1,52
 366 717 366 717 682 717 c 2,53,-1
 887 717 l 1,54,-1
 893 746 l 1,55,56
 896 759 896 759 896.5 765 c 128,-1,57
 897 771 897 771 897 776 c 0,58,59
 897 842 897 842 835 875.5 c 128,-1,60
 773 909 773 909 653 909 c 0,61,62
 539 909 539 909 435.5 886 c 128,-1,63
 332 863 332 863 238 817 c 1,64,-1
 291 1090 l 1,11,12
1706 682 m 1,65,66
 1709 695 1709 695 1710.5 708.5 c 128,-1,67
 1712 722 1712 722 1712 735 c 0,68,69
 1712 815 1712 815 1663.5 862 c 128,-1,70
 1615 909 1615 909 1534 909 c 0,71,72
 1429 909 1429 909 1354.5 851 c 128,-1,73
 1280 793 1280 793 1243 682 c 1,74,-1
 1706 682 l 1,65,66
EndSplineSet
EndChar
StartChar: eth
Encoding: 240 240 240
Width: 1407
Flags: W
Fore
958 743 m 1,0,1
 906 770 906 770 855 783.5 c 128,-1,2
 804 797 804 797 752 797 c 0,3,4
 612 797 612 797 530.5 703 c 128,-1,5
 449 609 449 609 449 451 c 0,6,7
 449 342 449 342 499 284.5 c 128,-1,8
 549 227 549 227 643 227 c 0,9,10
 783 227 783 227 873 353.5 c 128,-1,11
 963 480 963 480 963 678 c 0,12,13
 963 691 963 691 959 731 c 0,14,15
 959 738 959 738 958 743 c 1,0,1
1204 1100 m 2,16,17
 1268 1008 1268 1008 1300.5 902 c 128,-1,18
 1333 796 1333 796 1333 680 c 0,19,20
 1333 550 1333 550 1287.5 428.5 c 128,-1,21
 1242 307 1242 307 1155 207 c 0,22,23
 1054 91 1054 91 914.5 31 c 128,-1,24
 775 -29 775 -29 604 -29 c 0,25,26
 363 -29 363 -29 218.5 96 c 128,-1,27
 74 221 74 221 74 426 c 0,28,29
 74 706 74 706 256 880.5 c 128,-1,30
 438 1055 438 1055 731 1055 c 0,31,32
 780 1055 780 1055 823.5 1048 c 128,-1,33
 867 1041 867 1041 903 1028 c 1,34,-1
 752 1243 l 1,35,-1
 367 1135 l 1,36,-1
 332 1264 l 1,37,-1
 672 1358 l 1,38,-1
 535 1556 l 1,39,-1
 887 1556 l 1,40,-1
 969 1440 l 1,41,-1
 1354 1546 l 1,42,-1
 1389 1419 l 1,43,-1
 1049 1325 l 1,44,-1
 1204 1100 l 2,16,17
EndSplineSet
EndChar
StartChar: divide
Encoding: 247 247 247
Width: 1716
Flags: W
Fore
705 395 m 1,0,-1
 1012 395 l 1,1,-1
 1012 86 l 1,2,-1
 705 86 l 1,3,-1
 705 395 l 1,0,-1
705 1198 m 1,4,-1
 1012 1198 l 1,5,-1
 1012 889 l 1,6,-1
 705 889 l 1,7,-1
 705 1198 l 1,4,-1
217 760 m 1,8,-1
 1499 760 l 1,9,-1
 1499 524 l 1,10,-1
 217 524 l 1,11,-1
 217 760 l 1,8,-1
EndSplineSet
EndChar
StartChar: oslash
Encoding: 248 248 248
Width: 1407
Flags: W
Fore
905 842 m 1,0,1
 882 866 882 866 847.5 878.5 c 128,-1,2
 813 891 813 891 768 891 c 0,3,4
 628 891 628 891 543.5 771.5 c 128,-1,5
 459 652 459 652 449 438 c 1,6,-1
 905 842 l 1,0,1
152 174 m 1,7,8
 113 233 113 233 93.5 301.5 c 128,-1,9
 74 370 74 370 74 446 c 0,10,11
 74 572 74 572 119.5 691.5 c 128,-1,12
 165 811 165 811 252 911 c 0,13,14
 352 1028 352 1028 490.5 1087.5 c 128,-1,15
 629 1147 629 1147 801 1147 c 0,16,17
 905 1147 905 1147 991 1124 c 128,-1,18
 1077 1101 1077 1101 1145 1055 c 1,19,-1
 1337 1223 l 1,20,-1
 1434 1112 l 1,21,-1
 1251 950 l 1,22,23
 1292 891 1292 891 1312.5 822 c 128,-1,24
 1333 753 1333 753 1333 674 c 0,25,26
 1333 547 1333 547 1288 427.5 c 128,-1,27
 1243 308 1243 308 1157 209 c 0,28,29
 1056 93 1056 93 915.5 32 c 128,-1,30
 775 -29 775 -29 606 -29 c 0,31,32
 497 -29 497 -29 409.5 -4.5 c 128,-1,33
 322 20 322 20 254 70 c 1,34,-1
 61 -102 l 1,35,-1
 -35 10 l 1,36,-1
 152 174 l 1,7,8
498 283 m 1,37,38
 523 255 523 255 557.5 241 c 128,-1,39
 592 227 592 227 639 227 c 0,40,41
 780 227 780 227 865.5 351 c 128,-1,42
 951 475 951 475 958 692 c 1,43,-1
 498 283 l 1,37,38
EndSplineSet
EndChar
StartChar: thorn
Encoding: 254 254 254
Width: 1466
Flags: W
Fore
455 162 m 1,0,-1
 340 -426 l 1,1,-1
 -20 -426 l 1,2,-1
 365 1556 l 1,3,-1
 725 1556 l 1,4,-1
 608 956 l 1,5,6
 690 1054 690 1054 780 1100.5 c 128,-1,7
 870 1147 870 1147 977 1147 c 0,8,9
 1166 1147 1166 1147 1276 1027 c 128,-1,10
 1386 907 1386 907 1386 700 c 0,11,12
 1386 571 1386 571 1347.5 449 c 128,-1,13
 1309 327 1309 327 1237 227 c 0,14,15
 1146 101 1146 101 1031.5 36 c 128,-1,16
 917 -29 917 -29 786 -29 c 0,17,18
 671 -29 671 -29 590.5 17.5 c 128,-1,19
 510 64 510 64 455 162 c 1,0,-1
831 887 m 0,20,21
 693 887 693 887 605.5 759.5 c 128,-1,22
 518 632 518 632 518 428 c 0,23,24
 518 336 518 336 567.5 283.5 c 128,-1,25
 617 231 617 231 705 231 c 0,26,27
 840 231 840 231 928 356.5 c 128,-1,28
 1016 482 1016 482 1016 678 c 0,29,30
 1016 780 1016 780 968.5 833.5 c 128,-1,31
 921 887 921 887 831 887 c 0,20,21
EndSplineSet
EndChar
StartChar: Dcroat
Encoding: 272 272 272
Width: 1731
Flags: W
Fore
696 1202 m 1,0,-1
 639 903 l 1,1,-1
 885 903 l 1,2,-1
 834 643 l 1,3,-1
 588 643 l 1,4,-1
 518 291 l 1,5,-1
 655 291 l 2,6,7
 926 291 926 291 1083.5 442.5 c 128,-1,8
 1241 594 1241 594 1241 850 c 0,9,10
 1241 1024 1241 1024 1137.5 1113 c 128,-1,11
 1034 1202 1034 1202 831 1202 c 2,12,-1
 696 1202 l 1,0,-1
367 1493 m 1,13,-1
 772 1493 l 2,14,15
 1062 1493 1062 1493 1207 1458.5 c 128,-1,16
 1352 1424 1352 1424 1448 1343 c 0,17,18
 1545 1262 1545 1262 1595 1146 c 128,-1,19
 1645 1030 1645 1030 1645 885 c 0,20,21
 1645 684 1645 684 1560.5 504 c 128,-1,22
 1476 324 1476 324 1325 201 c 0,23,24
 1193 92 1193 92 1018.5 46 c 128,-1,25
 844 0 844 0 481 0 c 2,26,-1
 76 0 l 1,27,-1
 201 643 l 1,28,-1
 -4 643 l 1,29,-1
 47 903 l 1,30,-1
 252 903 l 1,31,-1
 367 1493 l 1,13,-1
EndSplineSet
KernsSLIFO: 7922 -159 0 0 562 -159 0 0 374 -159 0 0 221 -159 0 0 8222 -36 0 0 8218 -36 0 0 376 -159 0 0 89 -159 0 0 45 38 0 0
EndChar
StartChar: dcroat
Encoding: 273 273 273
Width: 1466
Flags: W
Fore
629 231 m 0,0,1
 767 231 767 231 853.5 358 c 128,-1,2
 940 485 940 485 940 690 c 0,3,4
 940 783 940 783 891.5 835 c 128,-1,5
 843 887 843 887 756 887 c 0,6,7
 620 887 620 887 532 761.5 c 128,-1,8
 444 636 444 636 444 440 c 0,9,10
 444 338 444 338 491.5 284.5 c 128,-1,11
 539 231 539 231 629 231 c 0,0,1
1006 956 m 1,12,-1
 1063 1251 l 1,13,-1
 668 1251 l 1,14,-1
 705 1440 l 1,15,-1
 1100 1440 l 1,16,-1
 1122 1556 l 1,17,-1
 1483 1556 l 1,18,-1
 1460 1440 l 1,19,-1
 1673 1440 l 1,20,-1
 1636 1251 l 1,21,-1
 1423 1251 l 1,22,-1
 1180 0 l 1,23,-1
 819 0 l 1,24,-1
 852 162 l 1,25,26
 770 64 770 64 680 17.5 c 128,-1,27
 590 -29 590 -29 483 -29 c 0,28,29
 294 -29 294 -29 184 91 c 128,-1,30
 74 211 74 211 74 418 c 0,31,32
 74 547 74 547 112.5 669 c 128,-1,33
 151 791 151 791 223 891 c 0,34,35
 314 1017 314 1017 428.5 1082 c 128,-1,36
 543 1147 543 1147 674 1147 c 0,37,38
 789 1147 789 1147 869.5 1100.5 c 128,-1,39
 950 1054 950 1054 1006 956 c 1,12,-1
EndSplineSet
EndChar
StartChar: Hbar
Encoding: 294 294 294
Width: 1994
Flags: W
Fore
473 1493 m 1,0,-1
 858 1493 l 1,1,-1
 822 1306 l 1,2,-1
 1390 1306 l 1,3,-1
 1426 1493 l 1,4,-1
 1811 1493 l 1,5,-1
 1775 1306 l 1,6,-1
 1915 1306 l 1,7,-1
 1877 1112 l 1,8,-1
 1737 1112 l 1,9,-1
 1521 0 l 1,10,-1
 1136 0 l 1,11,-1
 1259 633 l 1,12,-1
 691 633 l 1,13,-1
 568 0 l 1,14,-1
 183 0 l 1,15,-1
 399 1112 l 1,16,-1
 259 1112 l 1,17,-1
 297 1306 l 1,18,-1
 437 1306 l 1,19,-1
 473 1493 l 1,0,-1
784 1112 m 1,20,-1
 748 924 l 1,21,-1
 1316 924 l 1,22,-1
 1352 1112 l 1,23,-1
 784 1112 l 1,20,-1
EndSplineSet
EndChar
StartChar: hbar
Encoding: 295 295 295
Width: 1618
Flags: W
Fore
1433.5 682 m 2,0,-1
 1301 0 l 1,1,-1
 941 0 l 1,2,-1
 1042 520 l 18,3,4
 1069.5 662 1069.5 662 1074.5 722 c 0,5,6
 1075.5 737 1075.5 737 1075.5 750 c 0,7,8
 1075.5 784 1075.5 784 1067.5 803 c 0,9,10
 1053.5 838 1053.5 838 1021.5 857.5 c 0,11,12
 990 877 990 877 943 877 c 0,13,14
 831 877 831 877 750.5 790.5 c 128,-1,15
 670 704 670 704 640 551 c 9,16,-1
 533 0 l 1,17,-1
 175 0 l 1,18,-1
 419 1255 l 1,19,-1
 259 1255 l 1,20,-1
 296 1449 l 1,21,-1
 456 1449 l 1,22,-1
 477 1556 l 1,23,-1
 835 1556 l 1,24,-1
 814 1449 l 1,25,-1
 1177 1449 l 1,26,-1
 1140 1255 l 1,27,-1
 777 1255 l 1,28,-1
 719 956 l 1,29,30
 819 1054 819 1054 918.5 1100.5 c 0,31,32
 1018.5 1147 1018.5 1147 1128.5 1147 c 0,33,34
 1322.5 1147 1322.5 1147 1400 1028 c 0,35,36
 1449.5 952 1449.5 952 1449.5 832.5 c 0,37,38
 1449.5 764.5 1449.5 764.5 1433.5 682 c 2,0,-1
EndSplineSet
EndChar
StartChar: dotlessi
Encoding: 305 305 305
Width: 702
Flags: W
Fore
281 1120 m 1,0,-1
 641 1120 l 1,1,-1
 422 0 l 1,2,-1
 63 0 l 1,3,-1
 281 1120 l 1,0,-1
EndSplineSet
EndChar
StartChar: kgreenlandic
Encoding: 312 312 312
Width: 1362
Flags: W
Fore
281 1120 m 1,0,-1
 639 1120 l 1,1,-1
 559 709 l 1,2,-1
 1051 1120 l 1,3,-1
 1467 1120 l 1,4,-1
 820 606 l 1,5,-1
 1292 0 l 1,6,-1
 858 0 l 1,7,-1
 512 467 l 1,8,-1
 421 0 l 1,9,-1
 63 0 l 1,10,-1
 281 1120 l 1,0,-1
EndSplineSet
EndChar
StartChar: Lslash
Encoding: 321 321 321
Width: 1352
Flags: W
Fore
410 1493 m 1,0,-1
 795 1493 l 1,1,-1
 694 977 l 1,2,-1
 1034 1128 l 1,3,-1
 1139 918 l 1,4,-1
 639 698 l 1,5,-1
 561 291 l 1,6,-1
 1235 291 l 1,7,-1
 1180 0 l 1,8,-1
 119 0 l 1,9,-1
 217 502 l 1,10,-1
 57 428 l 1,11,-1
 -47 643 l 1,12,-1
 270 778 l 1,13,-1
 410 1493 l 1,0,-1
EndSplineSet
KernsSLIFO: 366 -73 0 0 356 -339 0 0 253 -253 0 0 221 -319 0 0 217 -73 0 0 219 -73 0 0 218 -73 0 0 210 -73 0 0 212 -73 0 0 211 -73 0 0 376 -319 0 0 255 -253 0 0 8217 -264 0 0 8221 -264 0 0 338 -73 0 0 213 -73 0 0 216 -73 0 0 220 -73 0 0 214 -73 0 0 121 -253 0 0 89 -319 0 0 87 -159 0 0 86 -282 0 0 85 -73 0 0 84 -339 0 0 79 -73 0 0
EndChar
StartChar: lslash
Encoding: 322 322 322
Width: 768
Flags: W
Fore
408 1556 m 1,0,-1
 768 1556 l 1,1,-1
 666 1040 l 1,2,-1
 834 1118 l 1,3,-1
 934 915 l 1,4,-1
 614 770 l 1,5,-1
 465 0 l 1,6,-1
 104 0 l 1,7,-1
 221 598 l 1,8,-1
 82 530 l 1,9,-1
 -14 733 l 1,10,-1
 274 868 l 1,11,-1
 408 1556 l 1,0,-1
EndSplineSet
EndChar
StartChar: Eng
Encoding: 330 330 330
Width: 1714
Flags: W
Fore
354 1493 m 1,0,-1
 700 1493 l 1,1,-1
 1121 529 l 1,2,-1
 1308 1493 l 1,3,-1
 1655 1493 l 1,4,-1
 1369 20 l 2,5,-1
 1325 -203 1325 -203 1192 -324 c 128,-1,4
 1061 -442 1061 -442 856 -442 c 2,5,-1
 575 -442 l 1,6,-1
 620.5 -207 l 1,7,-1
 786.5 -207 l 2,8,9
 888.5 -207 888.5 -207 935.5 -161 c 128,-1,10
 983 -115 983 -115 1009 20 c 1,0,0
 597 964 l 1,7,-1
 410 0 l 1,8,-1
 64 0 l 1,9,-1
 354 1493 l 1,0,-1
EndSplineSet
EndChar
StartChar: eng
Encoding: 331 331 331
Width: 1458
Flags: W
Fore
1362 682 m 2,0,-1
 1233 20 l 2,2,3
 1190 -203 1190 -203 1057 -324 c 128,-1,4
 926 -442 926 -442 721 -442 c 2,5,-1
 440 -442 l 1,6,-1
 485 -207 l 1,7,-1
 651 -207 l 2,8,9
 753 -207 753 -207 800 -161 c 128,-1,10
 847 -115 847 -115 873 20 c 2,11,-1
 971 522 l 2,4,5
 999 667 999 667 1004 722 c 128,-1,6
 1005 736 1005 736 1005 748 c 0,0,0
 1005 784 1005 784 997 803 c 0,7,8
 982 838 982 838 950 858 c 128,-1,9
 918 877 918 877 872 877 c 0,10,11
 760 877 760 877 679 790 c 128,-1,12
 598 704 598 704 569 551 c 2,13,-1
 461 0 l 1,14,-1
 103 0 l 1,15,-1
 321 1120 l 1,16,-1
 679 1120 l 1,17,-1
 647 956 l 1,18,19
 747 1054 747 1054 847 1100 c 128,-1,20
 947 1147 947 1147 1057 1147 c 0,21,22
 1251 1147 1251 1147 1329 1028 c 128,-1,23
 1378 952 1378 952 1378 833 c 0,0,0
 1378 765 1378 765 1362 682 c 2,0,-1
EndSplineSet
EndChar
StartChar: OE
Encoding: 338 338 338
Width: 2390
Flags: W
Fore
1268 1202 m 1,0,-1
 1163 1202 l 2,1,2
 1023 1202 1023 1202 919 1178.5 c 128,-1,3
 815 1155 815 1155 739 1106 c 0,4,5
 626 1032 626 1032 557.5 907 c 128,-1,6
 489 782 489 782 489 647 c 0,7,8
 489 464 489 464 609.5 377.5 c 128,-1,9
 730 291 730 291 985 291 c 2,10,-1
 1092 291 l 1,11,-1
 1268 1202 l 1,0,-1
1235 1493 m 1,12,-1
 2363 1493 l 1,13,-1
 2306 1202 l 1,14,-1
 1655 1202 l 1,15,-1
 1599 924 l 1,16,-1
 2214 924 l 1,17,-1
 2157 633 l 1,18,-1
 1542 633 l 1,19,-1
 1477 291 l 1,20,-1
 2152 291 l 1,21,-1
 2095 0 l 1,22,-1
 936 0 l 1,23,-1
 881 0 l 2,24,25
 502 0 502 0 294 151 c 128,-1,26
 86 302 86 302 86 575 c 0,27,28
 86 817 86 817 204 1022.5 c 128,-1,29
 322 1228 322 1228 530 1350 c 1,30,31
 658 1423 658 1423 815.5 1458 c 128,-1,32
 973 1493 973 1493 1178 1493 c 2,33,-1
 1235 1493 l 1,12,-1
EndSplineSet
EndChar
StartChar: oe
Encoding: 339 339 339
Width: 2241
Flags: W
Fore
1798 682 m 1,0,1
 1801 695 1801 695 1802.5 708.5 c 128,-1,2
 1804 722 1804 722 1804 735 c 0,3,4
 1804 815 1804 815 1756 862 c 128,-1,5
 1708 909 1708 909 1626 909 c 0,6,7
 1521 909 1521 909 1445.5 850.5 c 128,-1,8
 1370 792 1370 792 1333 682 c 1,9,-1
 1798 682 l 1,0,1
2136 518 m 2,10,-1
 2124 461 l 1,11,-1
 1286 461 l 1,12,13
 1286 455 1286 455 1285 443.5 c 128,-1,14
 1284 432 1284 432 1284 426 c 0,15,16
 1284 317 1284 317 1349.5 263 c 128,-1,17
 1415 209 1415 209 1546 209 c 0,18,19
 1658 209 1658 209 1784 243 c 128,-1,20
 1910 277 1910 277 2048 344 c 1,21,-1
 1993 66 l 1,22,23
 1862 18 1862 18 1732 -5.5 c 128,-1,24
 1602 -29 1602 -29 1466 -29 c 0,25,26
 1311 -29 1311 -29 1211 10 c 128,-1,27
 1111 49 1111 49 1053 131 c 1,28,29
 963 49 963 49 856 10 c 128,-1,30
 749 -29 749 -29 612 -29 c 0,31,32
 361 -29 361 -29 217.5 97.5 c 128,-1,33
 74 224 74 224 74 444 c 0,34,35
 74 571 74 571 119.5 691.5 c 128,-1,36
 165 812 165 812 250 911 c 0,37,38
 351 1028 351 1028 491 1087.5 c 128,-1,39
 631 1147 631 1147 803 1147 c 0,40,41
 943 1147 943 1147 1044.5 1106.5 c 128,-1,42
 1146 1066 1146 1066 1210 985 c 1,43,44
 1304 1066 1304 1066 1418 1106.5 c 128,-1,45
 1532 1147 1532 1147 1669 1147 c 0,46,47
 1892 1147 1892 1147 2025.5 1025 c 128,-1,48
 2159 903 2159 903 2159 702 c 0,49,50
 2159 662 2159 662 2153 615.5 c 128,-1,51
 2147 569 2147 569 2136 518 c 2,10,-1
768 891 m 0,52,53
 629 891 629 891 539 765 c 128,-1,54
 449 639 449 639 449 444 c 0,55,56
 449 338 449 338 497.5 282.5 c 128,-1,57
 546 227 546 227 639 227 c 0,58,59
 778 227 778 227 868 353.5 c 128,-1,60
 958 480 958 480 958 676 c 0,61,62
 958 781 958 781 909.5 836 c 128,-1,63
 861 891 861 891 768 891 c 0,52,53
EndSplineSet
EndChar
StartChar: Tbar
Encoding: 358 358 358
Width: 1397
Flags: W
TeX: 0 0 0 0
Fore
155 1493 m 1,0,-1
 1531 1493 l 1,1,-1
 1475 1202 l 1,2,-1
 980 1202 l 1,3,-1
 881 697 l 1,0,0
 1128 697 l 1,0,0
 1091 505 l 1,0,0
 844 505 l 1,0,0
 746 0 l 1,4,-1
 361 0 l 1,5,-1
 459 505 l 1,0,0
 212 505 l 1,0,0
 249 697 l 1,0,0
 496 697 l 1,0,0
 595 1202 l 1,6,-1
 99 1202 l 1,7,-1
 155 1493 l 1,0,-1
EndSplineSet
EndChar
StartChar: tbar
Encoding: 359 359 359
Width: 979
Flags: W
TeX: 0 0 0 0
Fore
703 1438 m 1,0,-1
 641 1120 l 1,1,-1
 1010 1120 l 1,2,-1
 960 864 l 1,3,-1
 591 864 l 1,4,-1
 564 722 l 1,0,0
 748 722 l 1,0,0
 710 530 l 1,0,0
 526 530 l 1,0,0
 499 389 l 2,5,6
 493 360 493 360 493 338 c 0,0,0
 493 301 493 301 509 284 c 128,-1,7
 535 256 535 256 627 256 c 2,8,-1
 811 256 l 1,9,-1
 761 0 l 1,10,-1
 454 0 l 2,11,12
 242 0 242 0 171 88 c 128,-1,13
 126 145 126 145 126 250 c 0,0,0
 126 311 126 311 141 389 c 2,14,-1
 168 530 l 1,0,0
 -10 530 l 1,0,0
 28 722 l 1,0,0
 206 722 l 1,0,0
 233 864 l 1,15,-1
 55 864 l 1,16,-1
 105 1120 l 1,17,-1
 283 1120 l 1,18,-1
 345 1438 l 1,19,-1
 703 1438 l 1,0,-1
EndSplineSet
EndChar
StartChar: longs
Encoding: 383 383 383
Width: 891
Flags: W
TeX: 0 0 0 0
Fore
471 0 m 1,10,-1
 111 0 l 1,11,-1
 279 864 l 1,12,-1
 102 864 l 1,13,-1
 152 1120 l 1,14,-1
 328 1120 l 1,15,-1
 344 1198 l 1,16,17
 381 1384 381 1384 498 1470 c 128,-1,18
 615 1556 615 1556 831 1556 c 2,19,-1
 1106 1556 l 1,0,-1
 1059 1321 l 1,1,-1
 862 1321 l 2,2,3
 787 1321 787 1321 752.5 1293.5 c 128,-1,4
 718 1266 718 1266 705 1199 c 1,5,-1
 471 0 l 1,10,-1
EndSplineSet
EndChar
StartChar: uni0186
Encoding: 390 390 390
Width: 1503
Flags: W
TeX: 117 0 0 0
Fore
-26.9717 82 m 1,0,1
 33.0918 391 l 1,25,-1
 125.902 318 125.902 318 223.294 284 c 128,-1,24
 320.685 250 320.685 250 435.685 250 c 0,22,23
 641.685 250 641.685 250 785.343 382 c 128,-1,21
 929.001 514 929.001 514 973.902 745 c 0,19,20
 1019 977 1019 977 926.657 1109 c 128,-1,18
 834.315 1241 834.315 1241 628.315 1241 c 0,16,17
 513.315 1241 513.315 1241 402.706 1207 c 128,-1,15
 292.098 1173 292.098 1173 170.908 1100 c 1,13,14
 230.972 1409 l 1,12,-1
 347.662 1464 347.662 1464 468.104 1492 c 128,-1,11
 588.548 1520 588.548 1520 713.548 1520 c 0,9,10
 1086.55 1520 1086.55 1520 1264.02 1311.5 c 128,-1,8
 1441.49 1103 1441.49 1103 1371.9 745 c 0,6,7
 1302.51 388 1302.51 388 1043.98 179.5 c 128,-1,5
 785.452 -29 785.452 -29 412.452 -29 c 0,3,4
 287.452 -29 287.452 -29 177.896 -1 c 128,-1,2
 68.3379 27 68.3379 27 -26.9717 82 c 1,0,1
EndSplineSet
EndChar
StartChar: uni0190
Encoding: 400 400 400
Width: 1425
Flags: W
TeX: 117 0 0 0
Fore
456.565 805 m 1,0,1
 328.175 839 328.175 839 275.405 922.5 c 128,-1,40
 222.636 1006 222.636 1006 248.1 1137 c 0,38,39
 285.421 1329 285.421 1329 448.484 1424.5 c 128,-1,37
 611.548 1520 611.548 1520 902.548 1520 c 0,35,36
 1010.55 1520 1010.55 1520 1119.44 1504 c 128,-1,34
 1228.33 1488 1228.33 1488 1336.11 1456 c 1,32,33
 1281.29 1174 l 1,31,-1
 1195.26 1215 1195.26 1215 1104.34 1236 c 128,-1,30
 1013.43 1257 1013.43 1257 920.426 1257 c 0,28,29
 794.426 1257 794.426 1257 716.29 1210 c 128,-1,27
 638.154 1163 638.154 1163 621.438 1077 c 0,25,26
 603.359 984 603.359 984 665.516 938.5 c 128,-1,24
 727.671 893 727.671 893 872.671 893 c 2,22,23
 1034.67 893 l 1,21,-1
 986.465 645 l 1,20,-1
 832.465 645 l 2,19,-1
 669.465 645 669.465 645 575.76 592.5 c 128,-1,18
 482.055 540 482.055 540 462.229 438 c 0,16,17
 442.984 339 442.984 339 514.183 286 c 128,-1,15
 585.38 233 585.38 233 738.38 233 c 0,13,14
 841.38 233 841.38 233 953.226 260.5 c 128,-1,12
 1065.07 288 1065.07 288 1183.57 342 c 1,10,11
 1125.84 45 l 1,9,-1
 1005.64 8 1005.64 8 886.549 -10.5 c 128,-1,8
 767.452 -29 767.452 -29 652.452 -29 c 0,6,7
 326.452 -29 326.452 -29 178.903 86.5 c 128,-1,5
 31.3545 202 31.3545 202 74.5068 424 c 0,3,4
 103.47 573 103.47 573 200.728 669.5 c 128,-1,2
 297.984 766 297.984 766 456.565 805 c 1,0,1
EndSplineSet
EndChar
StartChar: florin
Encoding: 402 402 402
Width: 1425
Flags: W
Fore
1354 1520 m 1,0,-1
 1305 1276 l 1,1,2
 1265 1299 1265 1299 1231 1309 c 128,-1,3
 1197 1319 1197 1319 1159 1319 c 0,4,5
 1069 1319 1069 1319 1019 1261.5 c 128,-1,6
 969 1204 969 1204 942 1063 c 1,7,-1
 909 895 l 1,8,-1
 1217 895 l 1,9,-1
 1171 657 l 1,10,-1
 862 657 l 1,11,-1
 727 -16 l 1,12,13
 685 -223 685 -223 571.5 -324.5 c 128,-1,14
 458 -426 458 -426 268 -426 c 0,15,16
 183 -426 183 -426 111.5 -418.5 c 128,-1,17
 40 -411 40 -411 -23 -395 c 1,18,-1
 25 -145 l 1,19,20
 65 -167 65 -167 102 -177.5 c 128,-1,21
 139 -188 139 -188 174 -188 c 0,22,23
 264 -188 264 -188 313.5 -132 c 128,-1,24
 363 -76 363 -76 391 68 c 1,25,-1
 508 657 l 1,26,-1
 242 657 l 1,27,-1
 289 895 l 1,28,-1
 555 895 l 1,29,-1
 604 1147 l 1,30,31
 646 1353 646 1353 760.5 1454.5 c 128,-1,32
 875 1556 875 1556 1065 1556 c 0,33,34
 1134 1556 1134 1556 1206 1547 c 128,-1,35
 1278 1538 1278 1538 1354 1520 c 1,0,-1
EndSplineSet
EndChar
StartChar: uni0194
Encoding: 404 404 404
Width: 1539
Flags: W
TeX: 0 0 0 0
Fore
750.223 510 m 1,3,-1
568.206 762 m 1,0,0
 212.298 1493 l 1,7,-1
 614.298 1493 l 1,8,-1
 847.801 1012 l 1,9,-1
 1267.3 1493 l 1,10,-1
 1671.3 1493 l 1,11,-1
 1031.21 762 l 1,5,-1
 1217.29 380.296 1217.29 380.296 1143.37 -14 c 0,0,0
 1092.66 -285.237 1092.66 -285.237 586.718 -290 c 0,0,0
 80.8311 -294.857 80.8311 -294.857 133.367 -14 c 0,0,0
 198.444 335.34 198.444 335.34 568.206 762 c 1,0,0
750.223 510 m 1,0,0
 520.711 245 520.711 245 497.502 125.6 c 0,0,0
 474.841 -0.0126953 474.841 -0.0126953 645.088 0 c 16,0,0
 818.091 0.0146484 818.091 0.0146484 843.357 130 c 0,0,0
 872.301 278.899 872.301 278.899 750.223 510 c 1,0,0
EndSplineSet
EndChar
StartChar: dotlessj
Encoding: 567 567 567
Width: 702
Flags: W
Fore
281 1120 m 1,0,-1
 641 1120 l 1,1,-1
 426 20 l 2,2,3
 380 -215 380 -215 254.5 -328.5 c 128,-1,4
 129 -442 129 -442 -84 -442 c 2,5,-1
 -262 -442 l 1,6,-1
 -217 -207 l 1,7,-1
 -154 -207 l 2,8,9
 -53 -207 -53 -207 -6.5 -161.5 c 128,-1,10
 40 -116 40 -116 66 20 c 1,11,-1
 281 1120 l 1,0,-1
EndSplineSet
EndChar
StartChar: uni0250
Encoding: 592 592 592
Width: 1382
Flags: W
Fore
645.691 614 m 2,0,1
 757.691 614 757.691 614 821.577 652 c 128,-1,2
 885.464 690 885.464 690 899.848 764 c 0,3,4
 913.065 832 913.065 832 875.05 870.5 c 128,-1,5
 837.033 909 837.033 909 756.033 909 c 0,6,7
 655.033 909 655.033 909 571.94 836.5 c 128,-1,8
 488.848 764 488.848 764 467.66 655 c 2,9,-1
 459.691 614 l 1,10,-1
 645.691 614 l 2,0,1
72.4492 479 m 2,11,-1
 196.658 1118 l 1,12,-1
 557.658 1118 l 1,13,-1
 525.392 952 l 1,14,15
 617.218 1054 617.218 1054 716.257 1100.5 c 128,-1,16
 815.296 1147 815.296 1147 944.296 1147 c 0,17,18
 1118.3 1147 1118.3 1147 1207.07 1045.5 c 128,-1,19
 1295.84 944 1295.84 944 1264.35 782 c 0,20,21
 1226.05 585 1226.05 585 1072.67 493 c 128,-1,22
 919.288 401 919.288 401 629.288 401 c 2,23,-1
 418.288 401 l 1,24,-1
 412.846 373 l 2,25,26
 396.323 288 396.323 288 455.645 248.5 c 128,-1,27
 514.967 209 514.967 209 656.967 209 c 0,28,29
 771.967 209 771.967 209 875.438 232 c 128,-1,30
 978.908 255 978.908 255 1072.85 301 c 1,31,-1
 1019.78 28 l 1,32,33
 899.342 0 899.342 0 780.522 -14.5 c 128,-1,34
 661.704 -29 661.704 -29 545.704 -29 c 0,35,36
 242.704 -29 242.704 -29 131.433 90.5 c 128,-1,37
 20.1611 210 20.1611 210 72.4492 479 c 2,11,-1
EndSplineSet
EndChar
StartChar: uni0251
Encoding: 593 593 593
Width: 1466
Flags: W
TeX: 0 0 0 0
Fore
1011.17 956 m 1,0,-1
 1043.05 1120 l 1,1,-1
 1403.05 1120 l 1,2,-1
 1185.34 0 l 1,3,-1
 825.342 0 l 1,4,-1
 856.831 162 l 1,5,6
 763.587 63 763.587 63 665.646 17 c 128,-1,7
 567.704 -29 567.704 -29 450.704 -29 c 0,8,9
 243.704 -29 243.704 -29 142.68 135.5 c 128,-1,10
 41.6553 300 41.6553 300 92 559 c 0,11,12
 142.345 818 142.345 818 307.32 982.5 c 128,-1,13
 472.296 1147 472.296 1147 679.296 1147 c 0,14,15
 795.296 1147 795.296 1147 875.757 1100.5 c 128,-1,16
 956.218 1054 956.218 1054 1011.17 956 c 1,0,-1
634.243 231 m 0,17,18
 749.243 231 749.243 231 826.071 315 c 128,-1,19
 902.899 399 902.899 399 934 559 c 0,20,21
 965.101 719 965.101 719 920.929 803 c 128,-1,22
 876.757 887 876.757 887 761.757 887 c 0,23,24
 647.757 887 647.757 887 570.929 803 c 128,-1,25
 494.101 719 494.101 719 463 559 c 0,26,27
 431.899 399 431.899 399 476.071 315 c 128,-1,28
 520.243 231 520.243 231 634.243 231 c 0,17,18
EndSplineSet
EndChar
StartChar: uni0252
Encoding: 594 594 594
Width: 1466
Flags: W
TeX: 0 0 0 0
Fore
374.831 162 m 1,0,-1
 342.953 -2 l 1,1,-1
 -17.0469 -2 l 1,2,-1
 200.658 1118 l 1,3,-1
 560.658 1118 l 1,4,-1
 529.169 956 l 1,5,6
 622.413 1055 622.413 1055 720.354 1101 c 128,-1,7
 818.296 1147 818.296 1147 935.296 1147 c 0,8,9
 1142.3 1147 1142.3 1147 1243.32 982.5 c 128,-1,10
 1344.34 818 1344.34 818 1294 559 c 0,11,12
 1243.66 300 1243.66 300 1078.68 135.5 c 128,-1,13
 913.704 -29 913.704 -29 706.704 -29 c 0,14,15
 590.704 -29 590.704 -29 510.243 17.5 c 128,-1,16
 429.782 64 429.782 64 374.831 162 c 1,0,-1
751.757 887 m 0,17,18
 636.757 887 636.757 887 559.929 803 c 128,-1,19
 483.101 719 483.101 719 452 559 c 0,20,21
 420.899 399 420.899 399 465.071 315 c 128,-1,22
 509.243 231 509.243 231 624.243 231 c 0,23,24
 738.243 231 738.243 231 815.071 315 c 128,-1,25
 891.899 399 891.899 399 923 559 c 0,26,27
 954.101 719 954.101 719 909.929 803 c 128,-1,28
 865.757 887 865.757 887 751.757 887 c 0,17,18
EndSplineSet
EndChar
StartChar: uni0253
Encoding: 595 595 595
Width: 1466
Flags: W
TeX: 0 0 0 0
Fore
664.492 231 m 0,0,1
 779.492 231 779.492 231 856.32 315 c 0,2,3
 933.148 399 933.148 399 964.249 559 c 0,4,5
 995.35 719 995.35 719 951.178 803 c 0,6,7
 907.006 887 907.006 887 792.006 887 c 0,8,9
 677.006 887 677.006 887 599.081 802.5 c 0,10,11
 521.155 718 521.155 718 490.249 559 c 0,12,13
 459.343 400 459.343 400 504.418 315.5 c 0,14,15
 549.492 231 549.492 231 664.492 231 c 0,0,1
569.931 958.635 m 1,16,17
 661.804 1054.63 661.804 1054.63 759.506 1100.5 c 0,18,19
 858.545 1147 858.545 1147 975.545 1147 c 0,20,21
 1182.54 1147 1182.54 1147 1283.57 982.5 c 0,22,23
 1384.59 818 1384.59 818 1334.25 559 c 0,24,25
 1283.9 300 1283.9 300 1118.93 135.5 c 0,26,27
 953.953 -29 953.953 -29 746.953 -29 c 0,28,29
 629.953 -29 629.953 -29 548.992 17.5 c 0,30,31
 468.031 64 468.031 64 413.08 162 c 1,32,-1
 381.591 0 l 1,33,-1
 23.5908 0 l 1,34,-1
 236.243 1094 l 2,35,36
 279.59 1317 279.59 1317 413.109 1438 c 0,37,38
 544.047 1556 544.047 1556 749.047 1556 c 2,39,-1
 1030.05 1556 l 1,40,-1
 984.367 1321 l 1,41,-1
 818.367 1321 l 2,42,43
 716.367 1321 716.367 1321 669.426 1275 c 0,44,45
 622.484 1229 622.484 1229 596.243 1094 c 2,46,-1
 569.931 958.635 l 1,16,17
EndSplineSet
EndChar
StartChar: uni0254
Encoding: 596 596 596
Width: 1214
Flags: W
Fore
190.244 1085 m 1,0,-1
 133.485 793 l 1,1,2
 216.204 843 216.204 843 294.369 867 c 128,-1,3
 372.534 891 372.534 891 451.534 891 c 0,4,5
 601.534 891 601.534 891 668.026 803.5 c 128,-1,6
 734.518 716 734.518 716 704 559 c 0,7,8
 673.482 402 673.482 402 572.974 314.5 c 128,-1,9
 472.466 227 472.466 227 322.466 227 c 0,10,11
 238.466 227 238.466 227 167.825 252 c 128,-1,12
 97.1846 277 97.1846 277 42.709 326 c 1,13,-1
 -14.2441 33 l 1,14,15
 63.7305 2 63.7305 2 147.217 -13.5 c 128,-1,16
 230.704 -29 230.704 -29 317.704 -29 c 0,17,18
 620.704 -29 620.704 -29 821.931 126.5 c 128,-1,19
 1023.16 282 1023.16 282 1077 559 c 0,20,21
 1130.84 836 1130.84 836 990.069 991.5 c 128,-1,22
 849.296 1147 849.296 1147 546.296 1147 c 0,23,24
 458.296 1147 458.296 1147 369.783 1131.5 c 128,-1,25
 281.27 1116 281.27 1116 190.244 1085 c 1,0,-1
EndSplineSet
EndChar
StartChar: uni0255
Encoding: 597 597 597
Width: 1214
Flags: W
TeX: 0 0 0 0
Fore
608.323 232 m 1,0,1
 660.658 208 660.658 208 714.464 207 c 2,2,-1
 719.464 207 l 2,3,4
 866.464 207 866.464 207 876.543 264 c 0,5,6
 890.122 339 890.122 339 759.122 339 c 0,7,8
 676.122 339 676.122 339 608.323 232 c 1,0,1
1190.13 1085 m 1,9,-1
 1133.37 793 l 1,10,11
 1070.09 843 1070.09 843 1000.75 867 c 0,12,13
 932.42 891 932.42 891 853.42 891 c 0,14,15
 703.42 891 703.42 891 602.509 804 c 0,16,17
 502.403 716 502.403 716 471.886 559 c 0,18,19
 447.977 436 447.977 436 483.426 356 c 1,20,21
 619.637 532 619.637 532 786.637 532 c 0,22,23
 1071.67 527 1071.67 527 1029.38 294 c 0,24,25
 971.59 -29 971.59 -29 656.59 -29 c 2,26,-1
 633.59 -29 l 2,27,28
 629.59 -29 l 0,29,30
 625.59 -29 625.59 -29 622.59 -29 c 0,31,32
 553.59 -29 553.59 -29 550.784 -28 c 0,33,34
 547.784 -28 547.784 -28 544.979 -27 c 1,35,-1
 522.819 -141 l 1,36,-1
 323.014 -140 l 1,37,38
 339.925 -53 339.925 -53 354.143 15 c 1,39,40
 251.529 53 251.529 53 185.719 126 c 0,41,42
 45.042 282 45.042 282 98.8857 559 c 0,43,44
 152.729 836 152.729 836 354.052 992 c 0,45,46
 555.181 1147 555.181 1147 858.181 1147 c 0,47,48
 946.181 1147 946.181 1147 1028.27 1132 c 0,49,50
 1111.16 1116 1111.16 1116 1190.13 1085 c 1,9,-1
EndSplineSet
EndChar
StartChar: uni0256
Encoding: 598 598 598
Width: 1466
Flags: W
TeX: 0 0 0 0
Fore
971.418 956 m 1,0,-1
 1088.05 1556 l 1,1,-1
 1448.05 1556 l 1,2,-1
 1145.59 0 l 1,3,-1
 785.591 0 l 1,4,-1
 817.08 162 l 1,5,6
 723.837 63 723.837 63 625.896 17 c 128,-1,7
 527.953 -29 527.953 -29 410.953 -29 c 0,8,9
 203.953 -29 203.953 -29 102.929 135.5 c 128,-1,10
 1.9043 300 1.9043 300 52.249 559 c 0,11,12
 102.594 818 102.594 818 267.569 982.5 c 128,-1,13
 432.545 1147 432.545 1147 639.545 1147 c 0,14,15
 755.545 1147 755.545 1147 836.006 1100.5 c 128,-1,16
 916.468 1054 916.468 1054 971.418 956 c 1,0,-1
594.492 231 m 0,17,18
 709.492 231 709.492 231 786.32 315 c 128,-1,19
 863.148 399 863.148 399 894.249 559 c 0,20,21
 925.35 719 925.35 719 881.178 803 c 128,-1,22
 837.006 887 837.006 887 722.006 887 c 0,23,24
 608.006 887 608.006 887 531.178 803 c 128,-1,25
 454.35 719 454.35 719 423.249 559 c 0,26,27
 392.148 399 392.148 399 436.32 315 c 128,-1,28
 480.492 231 480.492 231 594.492 231 c 0,17,18
EndSplineSet
EndChar
StartChar: uni0257
Encoding: 599 599 599
Width: 1622
Flags: W
TeX: 0 0 0 0
Fore
594.492 231 m 0,0,1
 709.492 231 709.492 231 786.32 315 c 0,2,3
 863.148 399 863.148 399 894.249 559 c 0,4,5
 925.35 719 925.35 719 881.178 803 c 0,6,7
 837.006 887 837.006 887 722.006 887 c 0,8,9
 608.006 887 608.006 887 531.178 803 c 0,10,11
 454.35 719 454.35 719 423.249 559 c 0,12,13
 392.148 399 392.148 399 436.32 315 c 0,14,15
 480.492 231 480.492 231 594.492 231 c 0,0,1
971.418 956 m 1,16,-1
 1000.24 1094 l 2,17,18
 1047.58 1320.61 1047.58 1320.61 1177.11 1438 c 0,19,20
 1308.05 1556 1308.05 1556 1513.05 1556 c 2,21,-1
 1794.05 1556 l 1,22,-1
 1748.37 1321 l 1,23,-1
 1582.37 1321 l 2,24,25
 1480.37 1321 1480.37 1321 1433.43 1275 c 0,26,27
 1386.48 1229 1386.48 1229 1360.24 1094 c 2,28,-1
 1145.59 0 l 1,29,-1
 785.591 0 l 1,30,-1
 817.08 162 l 1,31,32
 723.837 63 723.837 63 625.896 17 c 0,33,34
 527.953 -29 527.953 -29 410.953 -29 c 0,35,36
 203.953 -29 203.953 -29 102.929 135.5 c 0,37,38
 1.9043 300 1.9043 300 52.249 559 c 0,39,40
 102.594 818 102.594 818 267.569 982.5 c 0,41,42
 432.545 1147 432.545 1147 639.545 1147 c 0,43,44
 755.545 1147 755.545 1147 836.006 1100.5 c 0,45,46
 877.248 1076.67 877.248 1076.67 927.477 1012.17 c 0,47,48
 965.654 963.155 965.654 963.155 971.418 956 c 1,16,-1
EndSplineSet
EndChar
StartChar: uni0258
Encoding: 600 600 600
Width: 1389
Flags: W
Fore
88.7773 563 m 2,0,-1
 140.482 829 140.482 829 329.889 988 c 128,-1,20
 519.296 1147 519.296 1147 783.296 1147 c 0,18,19
 1073.3 1147 1073.3 1147 1208.28 990 c 128,-1,17
 1343.26 833 1343.26 833 1290 559 c 0,15,16
 1235.77 280 1235.77 280 1037.24 125.5 c 128,-1,14
 838.704 -29 838.704 -29 534.704 -29 c 0,12,13
 407.704 -29 407.704 -29 285.467 -4.5 c 128,-1,11
 163.229 20 163.229 20 45.5596 68 c 1,9,10
 99.208 344 l 1,8,-1
 210.99 276 210.99 276 322.979 242.5 c 128,-1,7
 434.967 209 434.967 209 547.967 209 c 0,5,6
 687.967 209 687.967 209 778.213 272 c 128,-1,4
 868.459 335 868.459 335 905.951 461 c 1,2,3
 68.9512 461 l 1,1,-1
 88.7773 563 l 2,0,-1
479.909 682 m 1,21,22
 944.909 682 l 1,27,-1
 950.291 792 950.291 792 896.662 850.5 c 128,-1,26
 843.033 909 843.033 909 739.033 909 c 0,24,25
 643.033 909 643.033 909 571.385 846.5 c 128,-1,23
 499.735 784 499.735 784 479.909 682 c 1,21,22
EndSplineSet
EndChar
StartChar: uni0259
Encoding: 601 601 601
Width: 1389
Flags: W
Fore
87.2227 555 m 2,0,-1
 107.049 657 l 1,1,-1
 944.049 657 l 1,2,3
 955.541 783 955.541 783 889.787 846 c 128,-1,4
 824.033 909 824.033 909 684.033 909 c 0,5,6
 571.033 909 571.033 909 446.021 875.5 c 128,-1,7
 321.01 842 321.01 842 182.792 774 c 1,8,-1
 236.44 1050 l 1,9,10
 372.771 1098 372.771 1098 504.533 1122.5 c 128,-1,11
 636.296 1147 636.296 1147 763.296 1147 c 0,12,13
 1067.3 1147 1067.3 1147 1205.76 992.5 c 128,-1,14
 1344.23 838 1344.23 838 1290 559 c 0,15,16
 1236.74 285 1236.74 285 1040.72 128 c 128,-1,17
 844.704 -29 844.704 -29 554.704 -29 c 0,18,19
 290.704 -29 290.704 -29 163.111 130 c 128,-1,20
 35.5176 289 35.5176 289 87.2227 555 c 2,0,-1
432.091 436 m 1,21,22
 412.265 334 412.265 334 459.615 271.5 c 128,-1,23
 506.967 209 506.967 209 602.967 209 c 0,24,25
 706.967 209 706.967 209 783.338 267.5 c 128,-1,26
 859.709 326 859.709 326 897.091 436 c 1,27,-1
 432.091 436 l 1,21,22
EndSplineSet
EndChar
StartChar: uni025A
Encoding: 602 602 602
Width: 1794
Flags: W
TeX: 0 0 0 0
Fore
917.331 540.125 m 1,0,-1
 444.923 294.961 l 1,1,2
 451.288 282.638 451.288 282.638 459.615 271.5 c 0,3,4
 506.967 209 506.967 209 602.967 209 c 0,5,6
 706.967 209 706.967 209 783.338 267.5 c 0,7,8
 859.709 326 859.709 326 897.091 436 c 2,9,-1
 917.331 540.125 l 1,0,-1
1304.51 736.047 m 1,10,11
 1308.64 654.875 1308.64 654.875 1290 559 c 0,12,13
 1236.74 285 1236.74 285 1040.72 128 c 0,14,15
 844.704 -29 844.704 -29 554.704 -29 c 0,16,17
 290.704 -29 290.704 -29 163.111 130 c 0,18,19
 93.9951 216.131 93.9951 216.131 77.4932 333.671 c 1,20,-1
 932.469 777.484 l 1,21,22
 918.569 818.459 918.569 818.459 889.787 846 c 0,23,24
 823.948 909 823.948 909 684.033 909 c 0,25,26
 571.033 909 571.033 909 446.021 875.5 c 0,27,28
 321.01 842 321.01 842 182.792 774 c 1,29,-1
 236.44 1050 l 1,30,31
 372.771 1098 372.771 1098 504.533 1122.5 c 0,32,33
 636.296 1147 636.296 1147 763.296 1147 c 0,34,35
 1067.3 1147 1067.3 1147 1205.76 992.5 c 0,36,37
 1226.97 968.836 1226.97 968.836 1243.66 942.25 c 1,38,-1
 1488.72 1072 l 1,39,-1
 1688.02 1073.55 l 1,40,-1
 1654.93 903.35 l 2,41,42
 1620.73 727.396 1620.73 727.396 1647.78 671.05 c 0,43,44
 1675.05 615.85 1675.05 615.85 1780.05 615.85 c 2,45,-1
 1823.05 615.85 l 1,46,-1
 1788.18 436.45 l 1,47,-1
 1692.18 436.45 l 2,48,49
 1509.04 436.45 1509.04 436.45 1451.64 546.85 c 0,50,51
 1404.22 638.067 1404.22 638.067 1436.62 804 c 1,52,-1
 1304.51 736.047 l 1,10,11
EndSplineSet
EndChar
StartChar: uni025B
Encoding: 603 603 603
Width: 1116
Flags: W
TeX: 0 0 0 0
Fore
324.041 573 m 1,0,1
 189.132 598.553 189.132 598.553 129.936 663 c 128,-1,40
 69.1904 729.134 69.1904 729.134 86.0752 816 c 0,38,39
 119.703 989 119.703 989 275.359 1068 c 128,-1,37
 431.016 1147 431.016 1147 671.365 1147 c 0,35,36
 764.516 1147 764.516 1147 866.833 1135 c 128,-1,34
 970.3 1123 970.3 1123 1086.38 1099 c 1,32,33
 1040.51 863 l 1,31,-1
 910.111 893.789 910.111 893.789 828.637 903 c 128,-1,30
 722.489 915 722.489 915 718.87 915 c 0,28,29
 596.52 915 596.52 915 541.954 891 c 128,-1,27
 449.514 853.238 449.514 853.238 439.942 804 c 0,25,26
 426.53 735 426.53 735 503.499 705 c 128,-1,24
 560.994 681 560.994 681 665.334 681 c 2,22,23
 782.034 681 l 1,21,-1
 739.465 462 l 1,20,-1
 556.615 462 l 2,19,-1
 506.676 462 506.676 462 438.982 441 c 128,-1,18
 336.184 409.11 336.184 409.11 320.807 330 c 0,16,17
 303.467 240.796 303.467 240.796 402.147 216 c 128,-1,15
 434.017 201 434.017 201 547.281 201 c 0,13,14
 661.132 201 661.132 201 769.28 219 c 128,-1,12
 877.234 236 877.234 236 972.394 270 c 1,10,11
 926.52 34 l 1,9,-1
 809.527 6 809.527 6 703.306 -8 c 128,-1,8
 595.935 -22 595.935 -22 497.035 -22 c 0,6,7
 202.06 -22 202.06 -22 62.7734 69 c 128,-1,5
 -78.0439 161 -78.0439 161 -56.2734 273 c 0,3,4
 -31.1982 402 -31.1982 402 68.2861 476 c 128,-1,2
 167.771 550 167.771 550 324.041 573 c 1,0,1
EndSplineSet
EndChar
StartChar: uni025C
Encoding: 604 604 604
Width: 1116
Flags: W
TeX: 0 0 0 0
Fore
709.291 573 m 1,0,1
 856.62 550 856.62 550 927.336 476 c 128,-1,2
 998.052 402 998.052 402 972.977 273 c 0,3,4
 951.206 161 951.206 161 774.623 69 c 128,-1,5
 599.96 -22 599.96 -22 304.984 -22 c 0,6,7
 206.085 -22 206.085 -22 104.156 -8 c 128,-1,8
 3.37695 6 3.37695 6 -102.73 34 c 1,9,-1
 -56.8564 270 l 1,10,11
 25.085 236 25.085 236 126.431 219 c 128,-1,12
 227.581 201 227.581 201 341.432 201 c 0,13,14
 454.697 201 454.697 201 492.397 216 c 128,-1,15
 600.717 240.796 600.717 240.796 618.057 330 c 0,16,17
 633.434 409.11 633.434 409.11 543.033 441 c 128,-1,18
 483.504 462 483.504 462 433.564 462 c 2,19,-1
 250.715 462 l 1,20,-1
 293.284 681 l 1,21,-1
 409.984 681 l 2,22,23
 514.324 681 514.324 681 581.149 705 c 128,-1,24
 669.78 735 669.78 735 683.192 804 c 0,25,26
 692.764 853.238 692.764 853.238 615.004 891 c 128,-1,27
 569.77 915 569.77 915 447.418 915 c 0,28,29
 443.798 915 443.798 915 332.986 903 c 128,-1,30
 247.931 893.789 247.931 893.789 105.562 863 c 1,31,-1
 151.436 1099 l 1,32,33
 276.851 1123 276.851 1123 384.982 1135 c 128,-1,34
 491.965 1147 491.965 1147 585.115 1147 c 0,35,36
 825.465 1147 825.465 1147 950.409 1068 c 128,-1,37
 1075.35 989 1075.35 989 1041.73 816 c 0,38,39
 1024.84 729.134 1024.84 729.134 938.385 663 c 128,-1,40
 854.134 598.553 854.134 598.553 709.291 573 c 1,0,1
EndSplineSet
EndChar
StartChar: uni025D
Encoding: 605 605 605
Width: 1585
Flags: W
TeX: 0 0 0 0
Fore
709.291 573 m 1,0,1
 856.62 550 856.62 550 927.336 476 c 0,2,3
 998.052 402 998.052 402 972.977 273 c 0,4,5
 951.206 161 951.206 161 774.623 69 c 0,6,7
 599.96 -22 599.96 -22 304.984 -22 c 0,8,9
 206.085 -22 206.085 -22 104.156 -8 c 0,10,11
 3.37695 6 3.37695 6 -102.73 34 c 1,12,-1
 -56.8564 270 l 1,13,14
 25.085 236 25.085 236 126.431 219 c 0,15,16
 227.581 201 227.581 201 341.432 201 c 0,17,18
 454.697 201 454.697 201 492.397 216 c 0,19,20
 600.717 240.796 600.717 240.796 618.057 330 c 0,21,22
 633.434 409.11 633.434 409.11 543.033 441 c 0,23,24
 483.504 462 483.504 462 433.564 462 c 2,25,-1
 250.715 462 l 1,26,-1
 293.284 681 l 1,27,-1
 409.984 681 l 2,28,29
 514.324 681 514.324 681 581.149 705 c 0,30,31
 669.78 735 669.78 735 683.192 804 c 0,32,33
 692.764 853.238 692.764 853.238 615.004 891 c 0,34,35
 569.77 915 569.77 915 447.418 915 c 0,36,37
 443.798 915 443.798 915 332.986 903 c 0,38,39
 247.931 893.789 247.931 893.789 105.562 863 c 1,40,-1
 151.436 1099 l 1,41,42
 276.044 1122.85 276.044 1122.85 384.982 1135 c 0,43,44
 492.537 1147 492.537 1147 585.115 1147 c 0,45,46
 825.465 1147 825.465 1147 950.409 1068 c 0,47,48
 1023 1022.1 1023 1022.1 1042.07 944.467 c 1,49,-1
 1279.04 1072 l 1,50,-1
 1478.34 1073.55 l 1,51,-1
 1445.25 903.35 l 2,52,53
 1411.05 727.396 1411.05 727.396 1438.1 671.05 c 0,54,55
 1465.37 615.85 1465.37 615.85 1570.37 615.85 c 2,56,-1
 1613.37 615.85 l 1,57,-1
 1578.5 436.45 l 1,58,-1
 1482.5 436.45 l 2,59,60
 1299.36 436.45 1299.36 436.45 1241.96 546.85 c 0,61,62
 1194.54 638.067 1194.54 638.067 1226.94 804 c 1,63,-1
 878.936 623.389 l 1,64,-1
 878.706 625.961 l 1,65,66
 808.097 590.431 808.097 590.431 709.291 573 c 1,0,1
EndSplineSet
EndChar
StartChar: uni025E
Encoding: 606 606 606
Width: 1396
Flags: W
TeX: 0 0 0 0
Fore
803.62 914.8 m 0,28,29
 471.487 914.8 471.487 914.8 400.099 552 c 1,0,0
 329.383 188.2 329.383 188.2 702.383 188.2 c 0,28,29
 789.349 188.2 789.349 188.2 844.787 216 c 128,-1,27
 917.915 252.671 917.915 252.671 930.225 316 c 0,25,26
 944.161 387.697 944.161 387.697 878.44 420 c 128,-1,24
 834.496 441.6 834.496 441.6 742.639 441.6 c 2,22,23
 577.639 441.6 l 9,0,0
 620.363 661.4 l 1,21,-1
 786.363 661.4 l 2,22,23
 866.201 661.4 866.201 661.4 923.757 684 c 128,-1,24
 1008.36 717.988 1008.36 717.988 1022.75 792 c 0,25,26
 1033.38 846.689 1033.38 846.689 966.244 882 c 128,-1,27
 902.5 915.527 902.5 915.527 803.62 914.8 c 0,28,29
538.425 1099 m 0,32,33
 658.617 1144 658.617 1144 906.366 1145 c 0,35,36
 1167 1145 1167 1145 1288.3 1059 c 128,-1,37
 1409.41 972 1409.41 972 1380.64 824 c 0,38,39
 1361.55 725.807 1361.55 725.807 1273.69 650 c 128,-1,40
 1190.41 578.158 1190.41 578.158 1016.1 552 c 1,0,1
 1174.52 525.859 1174.52 525.859 1235.39 453 c 128,-1,40
 1294.72 382 1294.72 382 1274.7 279 c 0,38,39
 1245.93 131 1245.93 131 1091.2 45 c 128,-1,37
 938.466 -40.7676 938.466 -40.7676 675.637 -42 c 0,35,36
 428.485 -42.9268 428.485 -42.9268 328.3 18 c 0,0,0
 -8.375 220.312 -8.375 220.312 56.0986 552 c 0,0,0
 133.06 947.931 133.06 947.931 538.425 1099 c 0,32,33
EndSplineSet
EndChar
StartChar: uni025F
Encoding: 607 607 607
Width: 702
Flags: W
Fore
323.811 1120 m 1,0,-1
 681.811 1120 l 1,1,-1
 513.866 256 l 1,2,-1
 691.866 256 l 1,3,-1
 642.105 0 l 1,4,-1
 464.105 0 l 1,5,6
 418.37 -210.323 418.37 -210.323 293.223 -323.5 c 0,7,8
 162.189 -442 162.189 -442 -42.8105 -442 c 2,9,-1
 -219.811 -442 l 1,10,-1
 -174.132 -207 l 1,11,-1
 -112.132 -207 l 2,12,13
 -10.1318 -207 -10.1318 -207 36.8096 -161 c 0,14,15
 80.1846 -118.495 80.1846 -118.495 105.886 -0 c 1,16,-1
 -105.895 0 l 1,17,-1
 -56.1338 256 l 1,18,-1
 155.866 256 l 1,19,-1
 323.811 1120 l 1,0,-1
EndSplineSet
EndChar
StartChar: uni0260
Encoding: 608 608 608
Width: 1622
Flags: W
TeX: 0 0 0 0
Fore
762.146 887 m 2,0,1
 651.146 887 651.146 887 573.206 805 c 0,2,3
 495.268 723 495.268 723 466.11 573 c 0,4,5
 436.176 419 436.176 419 480.723 339.5 c 0,6,7
 525.27 260 525.27 260 640.27 260 c 0,8,9
 752.27 260 752.27 260 830.208 342 c 0,10,11
 908.147 424 908.147 424 937.11 573 c 2,12,-1
 998.146 887 l 1,13,-1
 762.146 887 l 2,0,1
862.662 190 m 1,14,15
 769.613 92 769.613 92 671.672 46 c 0,16,17
 573.73 0 573.73 0 456.73 0 c 0,18,19
 251.73 0 251.73 0 149.123 161.5 c 0,20,21
 46.5146 323 46.5146 323 95.1104 573 c 0,22,23
 139.04 799 139.04 799 304.238 959.5 c 0,24,25
 469.437 1120 469.437 1120 674.437 1120 c 2,26,-1
 1043.44 1120 l 1,27,-1
 1045.82 1120 l 1,28,29
 1091.62 1324.15 1091.62 1324.15 1217.25 1438 c 0,30,31
 1348.19 1556 1348.19 1556 1553.19 1556 c 2,32,-1
 1834.19 1556 l 1,33,-1
 1788.51 1321 l 1,34,-1
 1622.51 1321 l 2,35,36
 1520.51 1321 1520.51 1321 1473.57 1275 c 0,37,38
 1426.62 1229 1426.62 1229 1400.38 1094 c 2,39,-1
 1357.62 874 l 1,40,-1
 1355.62 874 l 1,41,-1
 1207.7 113 l 2,42,43
 1155.21 -157 1155.21 -157 957.014 -299.5 c 0,44,45
 758.814 -442 758.814 -442 434.814 -442 c 0,46,47
 329.814 -442 329.814 -442 234.924 -426 c 0,48,49
 140.034 -410 140.034 -410 47.4492 -377 c 1,50,-1
 101.681 -98 l 1,51,52
 185.185 -152 185.185 -152 270.033 -178.5 c 0,53,54
 354.882 -205 354.882 -205 445.882 -205 c 0,55,56
 621.882 -205 621.882 -205 718.85 -128 c 0,57,58
 815.816 -51 815.816 -51 847.695 113 c 2,59,-1
 862.662 190 l 1,14,15
EndSplineSet
EndChar
StartChar: uni0261
Encoding: 609 609 609
Width: 1466
Flags: W
TeX: 0 0 0 0
Fore
905.037 190 m 1,0,1
 811.988 92 811.988 92 714.047 46 c 128,-1,2
 616.105 0 616.105 0 499.105 0 c 0,3,4
 294.105 0 294.105 0 191.497 161.5 c 128,-1,5
 88.8896 323 88.8896 323 137.485 573 c 0,6,7
 181.415 799 181.415 799 346.613 959.5 c 128,-1,8
 511.811 1120 511.811 1120 716.811 1120 c 2,9,10
 1085.81 1120 l 1,13,-1
 1445.81 1120 l 1,14,-1
 1250.07 113 l 2,15,16
 1197.59 -157 1197.59 -157 999.388 -299.5 c 128,-1,17
 801.189 -442 801.189 -442 477.189 -442 c 0,18,19
 372.189 -442 372.189 -442 277.299 -426 c 128,-1,20
 182.409 -410 182.409 -410 89.8232 -377 c 1,21,-1
 144.056 -98 l 1,22,23
 227.56 -152 227.56 -152 312.408 -178.5 c 128,-1,24
 397.257 -205 397.257 -205 488.257 -205 c 0,25,26
 664.257 -205 664.257 -205 761.225 -128 c 128,-1,27
 858.191 -51 858.191 -51 890.07 113 c 2,28,-1
 905.037 190 l 1,0,1
804.521 887 m 1,29,30
 693.521 887 693.521 887 615.581 805 c 128,-1,31
 537.642 723 537.642 723 508.485 573 c 0,32,33
 478.551 419 478.551 419 523.098 339.5 c 128,-1,34
 567.644 260 567.644 260 682.644 260 c 0,35,36
 794.644 260 794.644 260 872.583 342 c 128,-1,37
 950.522 424 950.522 424 979.485 573 c 1,38,39
 1040.52 887 l 129,-1,40
 804.521 887 l 1,29,30
EndSplineSet
EndChar
StartChar: uni0262
Encoding: 610 610 610
Width: 1285
Flags: W
TeX: 0 0 0 0
Fore
1027.05 101.15 m 1,0,1
 913.54 50.5752 913.54 50.5752 797.025 25.2871 c 128,-1,2
 680.509 0 680.509 0 561.709 0 c 0,3,4
 293.149 0 293.149 0 165.472 150.642 c 128,-1,5
 37.793 301.282 37.793 301.282 87.9297 559.215 c 0,6,7
 138.629 820.037 138.629 820.037 327.54 969.595 c 128,-1,8
 516.45 1119.15 516.45 1119.15 794.37 1119.15 c 0,9,10
 901.65 1119.15 901.65 1119.15 995.998 1098.92 c 128,-1,11
 1090.34 1078.69 1090.34 1078.69 1169.74 1038.96 c 1,12,-1
 1123.85 802.878 l 1,13,14
 1043.33 851.61 1043.33 851.61 959.075 875.634 c 128,-1,15
 874.826 899.657 874.826 899.657 785.544 899.657 c 0,16,17
 619.945 899.657 619.945 899.657 513.161 811.457 c 128,-1,18
 406.378 723.259 406.378 723.259 374.491 559.215 c 0,19,20
 342.871 396.544 342.871 396.544 412.06 308.002 c 128,-1,21
 481.248 219.459 481.248 219.459 640.367 219.459 c 0,22,23
 683.568 219.459 683.568 219.459 721.648 224.607 c 128,-1,24
 759.729 229.755 759.729 229.755 791.384 240.736 c 1,25,-1
 822.731 409 l 1,26,-1
 546.731 409 l 1,27,-1
 589.689 630 l 1,28,-1
 1129.69 630 l 1,29,-1
 1027.05 101.15 l 1,0,1
EndSplineSet
EndChar
StartChar: uni0263
Encoding: 611 611 611
Width: 1505
Flags: W
TeX: 0 0 0 0
Fore
973.717 590 m 1,5,-1
 1186.88 205 1186.88 205 1112.24 -179 c 0,0,0
 1068.67 -410.721 1068.67 -410.721 586.364 -415 c 0,0,0
 58.207 -419.848 58.207 -419.848 102.238 -179 c 0,0,0
 167.175 162.713 167.175 162.713 562.328 588 c 1,0,0
 264.654 1135 l 1,0,-1
 643.654 1135 l 1,1,-1
 808.12 803 l 1,2,-1
 1104.65 1135 l 1,3,-1
 1483.65 1135 l 1,4,-1
 973.717 590 l 1,5,-1
723.759 369 m 1,0,0
 438.858 58.5127 438.858 58.5127 417.087 -66.5996 c 0,0,0
 395.433 -190.809 395.433 -190.809 608.944 -190.8 c 16,0,0
 812.947 -190.785 812.947 -190.785 837.087 -66.5996 c 0,0,0
 868.498 95 868.498 95 723.759 369 c 1,0,0
EndSplineSet
EndChar
StartChar: uni0264
Encoding: 612 612 612
Width: 1301
Flags: W
TeX: 0 0 0 0
Fore
587.245 136 m 0,0,0
 639.245 136 639.245 136 656.108 222.75 c 0,0,0
 667.671 282.235 667.671 282.235 630.62 354 c 1,0,0
 564.674 280 564.674 280 553.546 222.75 c 0,0,0
 537.255 140 537.255 140 587.245 136 c 0,0,0
465.717 586 m 1,0,0
 171.516 1120 l 1,8,-1
 550.516 1120 l 1,9,-1
 714.981 788 l 1,10,-1
 1011.52 1120 l 1,11,-1
 1390.52 1120 l 1,0,-1
 879.578 575 l 1,0,0
 1010.4 335.898 1010.4 335.898 972.517 132.25 c 0,0,0
 926.664 -120 926.664 -120 540.734 -120 c 0,0,0
 144.484 -120 144.484 -120 193.517 132.25 c 0,0,0
 234.677 344 234.677 344 465.717 586 c 1,0,0
EndSplineSet
EndChar
StartChar: uni0265
Encoding: 613 613 613
Width: 1458
Flags: W
Fore
180.66 436 m 2,0,-1
 313.228 1118 l 1,1,-1
 673.228 1118 l 1,2,-1
 651.651 1007 l 1,3,-1
 572.15 598 l 2,4,5
 543.576 451 543.576 451 539.386 396 c 128,-1,6
 535.194 341 535.194 341 546.141 315 c 0,7,8
 560.337 280 560.337 280 592.547 260.5 c 128,-1,9
 624.756 241 624.756 241 670.756 241 c 0,10,11
 782.756 241 782.756 241 863.57 327.5 c 128,-1,12
 944.384 414 944.384 414 974.124 567 c 2,13,-1
 1081.23 1118 l 1,14,-1
 1439.23 1118 l 1,15,-1
 1136.77 -438 l 1,16,-1
 778.772 -438 l 1,17,-1
 895.4 162 l 1,18,19
 795.351 64 795.351 64 695.312 17.5 c 128,-1,20
 595.273 -29 595.273 -29 485.273 -29 c 0,21,22
 291.273 -29 291.273 -29 213.905 90 c 128,-1,23
 136.536 209 136.536 209 180.66 436 c 2,0,-1
EndSplineSet
EndChar
StartChar: uni0266
Encoding: 614 614 614
Width: 1458
Flags: W
Fore
1279.34 682 m 2,0,-1
 1146.77 0 l 1,1,-1
 786.772 0 l 1,2,-1
 808.349 111 l 1,3,-1
 887.85 520 l 2,4,5
 916.424 667 916.424 667 920.614 722 c 0,6,7
 924.806 777 924.806 777 913.859 803 c 0,8,9
 899.663 838 899.663 838 867.453 857.5 c 0,10,11
 835.244 877 835.244 877 789.243 877 c 0,12,13
 677.244 877 677.244 877 596.43 790.5 c 0,14,15
 515.616 704 515.616 704 485.876 551 c 2,16,-1
 378.772 0 l 1,17,-1
 20.7725 0 l 1,18,-1
 233.424 1094 l 2,19,20
 276.771 1317 276.771 1317 410.291 1438 c 0,21,22
 541.228 1556 541.228 1556 746.228 1556 c 2,23,-1
 1027.23 1556 l 1,24,-1
 981.549 1321 l 1,25,-1
 815.549 1321 l 2,26,27
 713.549 1321 713.549 1321 666.607 1275 c 0,28,29
 619.666 1229 619.666 1229 593.424 1094 c 2,30,-1
 567.068 958.41 l 1,31,32
 665.883 1054.57 665.883 1054.57 764.688 1100.5 c 0,33,34
 864.727 1147 864.727 1147 974.727 1147 c 0,35,36
 1168.73 1147 1168.73 1147 1246.09 1028 c 0,37,38
 1323.46 909 1323.46 909 1279.34 682 c 2,0,-1
EndSplineSet
EndChar
StartChar: uni0267
Encoding: 615 615 615
Width: 1458
Flags: W
Fore
610.026 958.41 m 1,0,1
 708.841 1054.57 708.841 1054.57 807.646 1100.5 c 0,2,3
 907.685 1147 907.685 1147 1017.68 1147 c 0,4,5
 1211.68 1147 1211.68 1147 1289.05 1028 c 0,6,7
 1366.42 909 1366.42 909 1322.3 682 c 2,8,-1
 1236.38 240 l 1,9,-1
 1193.62 20 l 1,10,-1
 1189.73 0 l 2,11,12
 1144.23 -208.483 1144.23 -208.483 1016.75 -324 c 0,13,14
 885.814 -442 885.814 -442 680.814 -442 c 2,15,-1
 399.814 -442 l 1,16,-1
 445.493 -207 l 1,17,-1
 611.493 -207 l 2,18,19
 713.493 -207 713.493 -207 760.435 -161 c 0,20,21
 807.376 -115 807.376 -115 833.618 20 c 2,22,-1
 851.307 111 l 1,23,-1
 876.382 240 l 1,24,-1
 930.808 520 l 2,25,26
 959.382 667 959.382 667 963.572 722 c 0,27,28
 967.764 777 967.764 777 956.817 803 c 0,29,30
 942.621 838 942.621 838 910.411 857.5 c 0,31,32
 878.202 877 878.202 877 832.202 877 c 0,33,34
 720.202 877 720.202 877 639.388 790.5 c 0,35,36
 558.574 704 558.574 704 528.834 551 c 2,37,-1
 421.73 0 l 1,38,-1
 63.7305 0 l 1,39,-1
 276.382 1094 l 2,40,41
 319.729 1317 319.729 1317 453.249 1438 c 0,42,43
 584.186 1556 584.186 1556 789.186 1556 c 2,44,-1
 1070.19 1556 l 1,45,-1
 1024.51 1321 l 1,46,-1
 858.507 1321 l 2,47,48
 756.507 1321 756.507 1321 709.565 1275 c 0,49,50
 662.624 1229 662.624 1229 636.382 1094 c 2,51,-1
 610.026 958.41 l 1,0,1
EndSplineSet
EndChar
StartChar: uni0268
Encoding: 616 616 616
Width: 1117
Flags: W
Fore
537.228 1556 m 1,0,-1
 895.228 1556 l 1,1,-1
 838.469 1264 l 1,2,-1
 480.469 1264 l 1,3,-1
 537.228 1556 l 1,0,-1
452.479 1120 m 1,4,-1
 810.479 1120 l 1,5,-1
 715.62 632 l 1,6,-1
 916.62 632 l 1,7,-1
 878.911 438 l 1,8,-1
 677.911 438 l 1,9,-1
 592.772 0 l 1,10,-1
 234.772 0 l 1,11,-1
 319.911 438 l 1,12,-1
 105.911 438 l 1,13,-1
 143.62 632 l 1,14,-1
 357.62 632 l 1,15,-1
 452.479 1120 l 1,4,-1
EndSplineSet
EndChar
StartChar: uni0269
Encoding: 617 617 617
Width: 902
Flags: W
TeX: 0 0 0 0
Fore
279.054 1120 m 9,0,0
 639.054 1120 l 9,0,0
 510.763 460 l 2,11,-1
 484.521 325 484.521 325 513.58 279 c 128,-1,10
 548.087 224.375 548.087 224.375 644.639 233 c 2,8,9
 667.027 235 l 1,7,-1
 621.349 0 l 1,6,-1
 483.959 -2 l 2,5,-1
 282.091 -4.93848 282.091 -4.93848 193.896 116 c 128,-1,4
 107.188 235.829 107.188 235.829 150.763 460 c 2,2,3
 279.054 1120 l 9,0,0
EndSplineSet
EndChar
StartChar: uni026A
Encoding: 618 618 618
Width: 1117
Flags: W
TeX: 0 0 0 0
Fore
881.826 235 m 1,0,-1
 836.147 0 l 1,1,-1
 636.147 0 l 1,2,-1
 278.147 0 l 1,3,-1
 63.1475 0 l 1,4,-1
 108.826 235 l 1,5,-1
 323.826 235 l 1,6,-1
 450.174 885 l 1,7,-1
 235.174 885 l 1,8,-1
 280.853 1120 l 1,9,-1
 495.853 1120 l 1,10,-1
 853.853 1120 l 1,11,-1
 1053.85 1120 l 1,12,-1
 1008.17 885 l 1,13,-1
 808.174 885 l 1,14,-1
 681.826 235 l 1,15,-1
 881.826 235 l 1,0,-1
EndSplineSet
EndChar
StartChar: uni026B
Encoding: 619 619 619
Width: 1144
Flags: W
Fore
546.428 1556 m 1,0,-1
 904.428 1556 l 1,1,-1
 755.991 792.358 l 1,2,3
 779.277 799.809 779.277 799.809 797.714 820 c 0,4,5
 826.935 852 826.935 852 838.014 909 c 2,6,-1
 839.568 917 l 1,7,-1
 999.419 917 l 1,8,9
 972.983 781 972.983 781 899.374 707 c 0,10,11
 827.912 635.159 827.912 635.159 725.027 633.062 c 1,12,-1
 601.972 0 l 1,13,-1
 243.972 0 l 1,14,-1
 392.002 761.546 l 1,15,16
 364.985 755.277 364.985 755.277 344.953 733 c 0,17,18
 317.078 702 317.078 702 305.609 643 c 2,19,-1
 304.055 635 l 1,20,-1
 144.203 635 l 1,21,22
 170.64 771 170.64 771 244.249 845 c 0,23,24
 317.1 918.237 317.1 918.237 422.606 918.992 c 1,25,-1
 546.428 1556 l 1,0,-1
EndSplineSet
EndChar
StartChar: uni026C
Encoding: 620 620 620
Width: 1420
Flags: W
TeX: 0 0 0 0
Fore
839.279 1556 m 1,0,-1
 1197.28 1556 l 1,1,-1
 1052.85 813 l 1,2,-1
 1254.85 813 l 1,3,-1
 1213.45 600 l 1,4,-1
 1011.45 600 l 1,5,-1
 894.822 0 l 1,6,-1
 536.823 0 l 1,7,-1
 653.536 600.435 l 1,8,-1
 448.646 601 l 2,9,10
 141.525 601.846 141.525 601.846 191.295 877 c 0,11,12
 247.922 1190.08 247.922 1190.08 595.747 1188 c 0,13,14
 701.843 1187.36 701.843 1187.36 757.029 1132.86 c 1,15,-1
 839.279 1556 l 1,0,-1
661.265 918 m 0,16,17
 622.047 952 622.047 952 532.873 952 c 0,18,19
 410.45 952 410.45 952 399.044 886 c 0,20,21
 386.084 811 386.084 811 490.466 811 c 2,22,-1
 690.466 811 l 1,23,24
 686.794 895 686.794 895 661.265 918 c 0,16,17
EndSplineSet
EndChar
StartChar: uni026D
Encoding: 621 621 621
Width: 702
Flags: W
Fore
368.186 1556 m 1,0,-1
 728.186 1556 l 1,1,-1
 429.618 20 l 2,2,3
 403.594 -113.88 403.594 -113.88 432.435 -161 c 0,4,5
 460.591 -207 460.591 -207 563.493 -207 c 2,6,-1
 729.493 -207 l 1,7,-1
 683.814 -442 l 1,8,-1
 402.814 -442 l 2,9,10
 197.358 -442 197.358 -442 112.751 -324 c 0,11,12
 26.2705 -203 26.2705 -203 65.7305 0 c 2,13,-1
 368.186 1556 l 1,0,-1
EndSplineSet
EndChar
StartChar: uni026E
Encoding: 622 622 622
Width: 1723
Flags: W
TeX: 0 0 0 0
Fore
365.991 1556 m 1,0,-1
 723.991 1556 l 1,1,-1
 639.242 1120 l 1,2,-1
 1614.24 1120 l 1,3,-1
 1565.65 870 l 1,4,-1
 1063.29 436 l 1,5,6
 1223.39 426.522 1223.39 426.522 1305.07 404 c 0,7,8
 1424 371.205 1424 371.205 1488.28 258.5 c 0,9,10
 1546.83 155.854 1546.83 155.854 1519.06 13 c 0,11,12
 1475.91 -209 1475.91 -209 1283.46 -324.5 c 0,13,14
 1091.01 -440 1091.01 -440 765.009 -440 c 0,15,16
 650.008 -440 650.008 -440 538.104 -421.5 c 0,17,18
 426.2 -403 426.2 -403 320.393 -366 c 1,19,-1
 378.124 -69 l 1,20,21
 475.627 -123 475.627 -123 576.781 -150.5 c 0,22,23
 677.937 -178 677.937 -178 780.937 -178 c 0,24,25
 933.937 -178 933.937 -178 1025.74 -125 c 0,26,27
 1117.54 -72 1117.54 -72 1136.78 27 c 0,28,29
 1156.61 129 1156.61 129 1083.32 181.5 c 0,30,31
 1010.02 234 1010.02 234 847.021 234 c 2,32,-1
 660.021 234 l 1,33,-1
 707.636 478.956 l 1,34,-1
 1152.48 864 l 1,35,-1
 589.48 864 l 1,36,-1
 421.536 0 l 1,37,-1
 63.5361 0 l 1,38,-1
 365.991 1556 l 1,0,-1
EndSplineSet
EndChar
StartChar: uni026F
Encoding: 623 623 623
Width: 2134
Flags: W
Fore
853.926 184 m 1,0,1
 765.71 80 765.71 80 661.616 25.5 c 128,-1,2
 557.522 -29 557.522 -29 445.522 -29 c 0,3,4
 252.522 -29 252.522 -29 174.654 90 c 128,-1,5
 96.7852 209 96.7852 209 140.91 436 c 2,6,-1
 273.478 1118 l 1,7,-1
 633.478 1118 l 1,8,-1
 519.959 534 l 1,9,10
 516.432 521 516.432 521 513.211 507 c 128,-1,11
 509.989 493 509.989 493 504.936 467 c 0,12,13
 481.805 348 481.805 348 506.405 294.5 c 128,-1,14
 531.006 241 531.006 241 609.006 241 c 0,15,16
 711.006 241 711.006 241 782.834 325 c 128,-1,17
 854.661 409 854.661 409 887.568 568 c 1,18,-1
 994.478 1118 l 1,19,-1
 1354.48 1118 l 1,20,-1
 1240.96 534 l 2,21,22
 1204.8 348 1204.8 348 1226.41 294.5 c 128,-1,23
 1248.01 241 1248.01 241 1330.01 241 c 0,24,25
 1433.01 241 1433.01 241 1505.43 325.5 c 128,-1,26
 1577.86 410 1577.86 410 1608.37 567 c 2,27,-1
 1715.48 1118 l 1,28,-1
 2075.48 1118 l 1,29,-1
 1857.77 -2 l 1,30,-1
 1497.77 -2 l 1,31,-1
 1529.65 162 l 1,32,33
 1445.18 67 1445.18 67 1350.35 19 c 128,-1,34
 1255.52 -29 1255.52 -29 1152.52 -29 c 0,35,36
 1036.52 -29 1036.52 -29 958.408 27 c 128,-1,37
 880.293 83 880.293 83 853.926 184 c 1,0,1
EndSplineSet
EndChar
StartChar: uni0270
Encoding: 624 624 624
Width: 2134
Flags: W
Fore
892.705 184 m 1,0,1
 804.489 80 804.489 80 700.396 25.5 c 128,-1,2
 596.302 -29 596.302 -29 484.302 -29 c 0,3,4
 291.302 -29 291.302 -29 213.433 90 c 128,-1,5
 135.564 209 135.564 209 179.688 436 c 2,6,-1
 312.256 1118 l 1,7,-1
 672.256 1118 l 1,8,-1
 558.738 534 l 1,9,10
 555.211 521 555.211 521 551.989 507 c 128,-1,11
 548.769 493 548.769 493 543.715 467 c 0,12,13
 520.583 348 520.583 348 545.184 294.5 c 128,-1,14
 569.784 241 569.784 241 647.784 241 c 0,15,16
 749.784 241 749.784 241 821.612 325 c 128,-1,17
 893.44 409 893.44 409 926.347 568 c 1,18,-1
 1033.26 1118 l 1,19,-1
 1393.26 1118 l 1,20,-1
 1279.74 534 l 2,21,22
 1243.58 348 1243.58 348 1265.18 294.5 c 128,-1,23
 1286.78 241 1286.78 241 1368.78 241 c 0,24,25
 1471.78 241 1471.78 241 1544.21 325.5 c 128,-1,26
 1616.63 410 1616.63 410 1647.15 567 c 2,27,-1
 1754.26 1118 l 1,28,-1
 2114.26 1118 l 1,29,-1
 1813.74 -428 l 1,30,-1
 1453.74 -428 l 1,31,-1
 1568.43 162 l 1,32,33
 1483.96 67 1483.96 67 1389.13 19 c 128,-1,34
 1294.3 -29 1294.3 -29 1191.3 -29 c 0,35,36
 1075.3 -29 1075.3 -29 997.188 27 c 128,-1,37
 919.072 83 919.072 83 892.705 184 c 1,0,1
EndSplineSet
EndChar
StartChar: uni0271
Encoding: 625 625 625
Width: 2134
Flags: W
Fore
1323.03 934 m 1,0,1
 1411.25 1038 1411.25 1038 1515.34 1092.5 c 0,2,3
 1619.44 1147 1619.44 1147 1731.44 1147 c 0,4,5
 1924.44 1147 1924.44 1147 2002.3 1028 c 0,6,7
 2080.17 909 2080.17 909 2036.05 682 c 2,8,-1
 1909.37 20 l 2,9,10
 1866.02 -203 1866.02 -203 1732.5 -324 c 0,11,12
 1601.56 -442 1601.56 -442 1396.56 -442 c 2,13,-1
 1115.56 -442 l 1,14,-1
 1161.24 -207 l 1,15,-1
 1327.24 -207 l 2,16,17
 1429.24 -207 1429.24 -207 1476.19 -161 c 0,18,19
 1522.81 -115.313 1522.81 -115.313 1545.26 0 c 2,20,-1
 1672.02 651 l 2,21,22
 1695.15 770 1695.15 770 1670.55 823.5 c 0,23,24
 1645.95 877 1645.95 877 1567.95 877 c 0,25,26
 1465.95 877 1465.95 877 1394.12 793 c 0,27,28
 1322.3 709 1322.3 709 1289.39 550 c 2,29,-1
 1182.48 0 l 1,30,-1
 822.48 0 l 1,31,-1
 935.999 584 l 2,32,33
 972.154 770 972.154 770 950.553 823.5 c 0,34,35
 928.952 877 928.952 877 846.952 877 c 0,36,37
 743.952 877 743.952 877 671.527 792.5 c 0,38,39
 599.103 708 599.103 708 568.585 551 c 2,40,-1
 461.48 0 l 1,41,-1
 101.48 0 l 1,42,-1
 319.187 1120 l 1,43,-1
 679.187 1120 l 1,44,-1
 647.309 956 l 1,45,46
 731.774 1051 731.774 1051 826.604 1099 c 0,47,48
 921.436 1147 921.436 1147 1024.44 1147 c 0,49,50
 1140.44 1147 1140.44 1147 1218.55 1091 c 0,51,52
 1296.66 1035 1296.66 1035 1323.03 934 c 1,0,1
EndSplineSet
EndChar
StartChar: uni0272
Encoding: 626 626 626
Width: 1458
Flags: W
Fore
1362.05 682 m 2,0,-1
 1229.48 0 l 1,1,-1
 869.48 0 l 1,2,-1
 891.058 111 l 1,3,-1
 970.947 522 l 2,4,5
 999.133 667 999.133 667 1003.32 722 c 0,6,7
 1007.51 777 1007.51 777 996.568 803 c 0,8,9
 982.372 838 982.372 838 950.162 857.5 c 0,10,11
 917.952 877 917.952 877 871.952 877 c 0,12,13
 759.952 877 759.952 877 679.139 790.5 c 0,14,15
 598.324 704 598.324 704 568.585 551 c 2,16,-1
 508.132 240 l 1,17,-1
 465.368 20 l 1,18,-1
 461.48 0 l 2,19,20
 415.972 -208.483 415.972 -208.483 288.502 -324 c 0,21,22
 157.564 -442 157.564 -442 -47.4355 -442 c 2,23,-1
 -328.436 -442 l 1,24,-1
 -282.756 -207 l 1,25,-1
 -116.756 -207 l 2,26,27
 -16.6631 -207 -16.6631 -207 32.1855 -161 c 0,28,29
 81.1455 -114.895 81.1455 -114.895 107.366 20 c 2,30,-1
 150.13 240 l 1,31,-1
 321.185 1120 l 1,32,-1
 679.187 1120 l 1,33,-1
 647.309 956 l 1,34,35
 747.357 1054 747.357 1054 847.396 1100.5 c 0,36,37
 947.436 1147 947.436 1147 1057.44 1147 c 0,38,39
 1251.44 1147 1251.44 1147 1328.8 1028 c 0,40,41
 1406.17 909 1406.17 909 1362.05 682 c 2,0,-1
EndSplineSet
EndChar
StartChar: uni0273
Encoding: 627 627 627
Width: 1624
Flags: W
Fore
1003.82 722 m 2,0,1
 1010.78 771.598 1010.78 771.598 996.568 803 c 0,2,3
 982.596 836.725 982.596 836.725 950.259 858 c 0,4,5
 915.952 877 915.952 877 871.952 877 c 0,6,7
 768.717 877 768.717 877 679.041 790 c 0,8,9
 600.438 714.87 600.438 714.87 568.585 551 c 2,10,-1
 461.48 0 l 1,11,-1
 103.48 0 l 1,12,-1
 321.187 1120 l 1,13,-1
 679.187 1120 l 1,14,-1
 647.309 956 l 1,15,16
 750.286 1056.45 750.286 1056.45 847.299 1100 c 0,17,18
 946.029 1147 946.029 1147 1057.44 1147 c 0,19,20
 1250 1147 1250 1147 1329.3 1028 c 0,21,22
 1406.04 908.303 1406.04 908.303 1362.05 682 c 2,23,-1
 1233.37 20 l 2,24,25
 1207.34 -113.88 1207.34 -113.88 1236.19 -161 c 0,26,27
 1264.34 -207 1264.34 -207 1367.24 -207 c 2,28,-1
 1533.24 -207 l 1,29,-1
 1487.56 -442 l 1,30,-1
 1206.56 -442 l 2,31,32
 1001.1 -442 1001.1 -442 916.502 -324 c 0,33,34
 825.305 -196.4 825.305 -196.4 863.48 0 c 2,35,-1
 1003.82 722 l 2,0,1
EndSplineSet
EndChar
StartChar: uni0274
Encoding: 628 628 628
Width: 1315
Flags: W
TeX: 0 0 0 0
Fore
151.853 1120 m 1,0,-1
 581.853 1120 l 1,1,-1
 763.312 469 l 1,2,-1
 889.853 1120 l 1,3,-1
 1254.85 1120 l 1,4,-1
 1037.15 0 l 1,5,-1
 607.147 0 l 1,6,-1
 425.688 651 l 1,7,-1
 299.147 0 l 1,8,-1
 -65.8525 0 l 1,9,-1
 151.853 1120 l 1,0,-1
EndSplineSet
EndChar
StartChar: uni0275
Encoding: 629 629 629
Width: 1407
Flags: W
Fore
819.296 1147 m 0,0,1
 1108.3 1147 1108.3 1147 1240.47 991 c 0,2,3
 1372.65 835 1372.65 835 1319 559 c 0,4,5
 1265.35 283 1265.35 283 1072.53 127 c 0,6,7
 879.704 -29 879.704 -29 590.704 -29 c 0,8,9
 300.704 -29 300.704 -29 167.527 127 c 0,10,11
 34.3506 283 34.3506 283 88 559 c 0,12,13
 141.649 835 141.649 835 335.473 991 c 0,14,15
 529.296 1147 529.296 1147 819.296 1147 c 0,0,1
769.534 891 m 0,16,17
 650.534 891 650.534 891 571.415 805.5 c 0,18,19
 511.303 740.541 511.303 740.541 478.797 632 c 1,20,-1
 921.189 632 l 1,21,-1
 956.611 632 l 1,22,23
 966.393 740.541 966.393 740.541 931.915 805.5 c 0,24,25
 886.534 891 886.534 891 769.534 891 c 0,16,17
911.728 438 m 1,26,-1
 525.48 438 l 1,27,-1
 448.319 438 l 1,28,29
 448.811 362.394 448.811 362.394 475.585 312.5 c 0,30,31
 521.466 227 521.466 227 640.466 227 c 0,32,33
 757.466 227 757.466 227 836.085 312.5 c 0,34,35
 881.965 362.395 881.965 362.395 911.728 438 c 1,26,-1
EndSplineSet
EndChar
StartChar: uni0276
Encoding: 630 630 630
Width: 1861
Flags: W
TeX: 0 0 0 0
Fore
964.405 901.5 m 1,0,-1
 853.405 901.5 l 2,1,2
 680.005 901.5 680.005 901.5 577.731 816.75 c 128,-1,3
 475.458 732 475.458 732 442.219 561 c 0,4,5
 408.834 389.25 408.834 389.25 478.314 303.75 c 128,-1,6
 547.795 218.25 547.795 218.25 720.595 218.25 c 2,7,-1
 831.595 218.25 l 1,8,-1
 964.405 901.5 l 1,0,-1
937.829 1119.75 m 2,9,-1
 1783.83 1119.75 l 1,10,-1
 1741.41 901.5 l 1,11,-1
 1324.41 901.5 l 1,12,-1
 1283.88 693 l 1,13,-1
 1671.63 693 l 1,14,-1
 1629.2 474.75 l 1,15,-1
 1241.45 474.75 l 1,16,-1
 1191.59 218.25 l 1,17,-1
 1625.84 218.25 l 1,18,-1
 1583.42 0 l 1,19,-1
 720.171 0 l 2,20,21
 710.421 0 710.421 0 692.65 -0.75 c 128,-1,22
 674.88 -1.5 674.88 -1.5 665.88 -1.5 c 0,23,24
 334.38 -1.5 334.38 -1.5 184.985 144.375 c 128,-1,25
 35.5898 290.25 35.5898 290.25 88.2188 561 c 0,26,27
 140.701 831 140.701 831 346.661 976.125 c 128,-1,28
 552.62 1121.25 552.62 1121.25 884.12 1121.25 c 0,29,30
 892.37 1121.25 892.37 1121.25 910.225 1120.5 c 128,-1,31
 928.079 1119.75 928.079 1119.75 937.829 1119.75 c 2,9,-1
EndSplineSet
EndChar
StartChar: uni0277
Encoding: 631 631 631
Width: 1396
Flags: W
TeX: 0 0 0 0
Fore
807.13 565.771 m 0,28,29
 875.878 919.447 875.878 919.447 658.506 920 c 1,0,0
 440.027 920 440.027 920 370.819 563.955 c 0,28,29
 339.71 403.912 339.71 403.912 342.84 334.207 c 128,-1,27
 344.992 264 344.992 264 367.992 264 c 0,25,26
 401.716 264 401.716 264 428.154 342 c 128,-1,24
 447.531 399.163 447.531 399.163 464.788 489.515 c 2,22,23
 485.129 596.01 l 9,0,0
 704.929 596.01 l 1,21,-1
 684.062 488.451 l 2,22,23
 665.265 391.56 665.265 391.56 664.121 346.972 c 128,-1,24
 661.992 264 661.992 264 688.992 264 c 0,25,26
 715.272 263.443 715.272 263.443 744.094 342.717 c 128,-1,27
 787.267 461.464 787.267 461.464 807.13 565.771 c 0,28,29
1187.72 828.495 m 0,32,33
 1212.68 725.407 1212.68 725.407 1169.17 496.42 c 0,35,36
 1122.31 255.337 1122.31 255.337 1011.49 127.668 c 128,-1,37
 899.676 0 899.676 0 751.676 0 c 0,38,39
 653.483 0 653.483 0 590.825 67.6455 c 128,-1,40
 531.444 131.753 531.444 131.753 535.715 288.295 c 1,0,1
 480.178 137.062 480.178 137.062 393.825 67.6455 c 128,-1,40
 309.676 0 309.676 0 206.676 0 c 0,38,39
 58.6758 0 58.6758 0 -2.50781 127.668 c 128,-1,37
 -63.8105 253.527 -63.8105 253.527 -17.8291 496.42 c 0,35,36
 22.5176 709.211 22.5176 709.211 93.7197 828.495 c 0,0,0
 301.324 1176.29 301.324 1176.29 708.324 1176.29 c 0,0,0
 1104.26 1176.29 1104.26 1176.29 1187.72 828.495 c 0,32,33
EndSplineSet
EndChar
StartChar: uni0278
Encoding: 632 632 632
Width: 1583
Flags: W
TeX: 0 0 0 0
Fore
1027.05 -191 m 1,0,-1
 981.369 -426 l 1,1,-1
 781.369 -426 l 1,2,-1
 423.369 -426 l 1,3,-1
 208.369 -426 l 1,4,-1
 254.049 -191 l 1,5,-1
 469.049 -191 l 1,6,-1
 502.467 -19.0801 l 1,7,8
 265.955 10.3389 265.955 10.3389 166.361 127 c 0,9,10
 33.1846 283 33.1846 283 86.834 559 c 0,11,12
 140.49 835.037 140.49 835.037 334.306 991 c 0,13,14
 479.278 1107.66 479.278 1107.66 727.201 1137.08 c 1,15,-1
 762.951 1321 l 1,16,-1
 547.951 1321 l 1,17,-1
 593.631 1556 l 1,18,-1
 808.631 1556 l 1,19,-1
 1166.63 1556 l 1,20,-1
 1366.63 1556 l 1,21,-1
 1320.95 1321 l 1,22,-1
 1120.95 1321 l 1,23,-1
 1085.09 1136.52 l 1,24,25
 1317.38 1106.57 1317.38 1106.57 1415.31 991 c 0,26,27
 1547.48 835 1547.48 835 1493.83 559 c 0,28,29
 1440.17 282.917 1440.17 282.917 1247.36 127 c 0,30,31
 1104.46 11.4375 1104.46 11.4375 860.575 -18.5186 c 1,32,-1
 827.049 -191 l 1,33,-1
 1027.05 -191 l 1,0,-1
554.846 250.388 m 1,34,-1
 674.822 867.612 l 1,35,36
 607.988 846.283 607.988 846.283 570.248 805.5 c 0,37,38
 491.129 720 491.129 720 459.834 559 c 0,39,40
 428.538 398 428.538 398 474.419 312.5 c 0,41,42
 496.304 271.717 496.304 271.717 554.846 250.388 c 1,34,-1
1032.42 865.572 m 1,43,-1
 913.237 252.405 l 1,44,45
 975.159 273.606 975.159 273.606 1010.92 312.5 c 0,46,47
 1089.54 398 1089.54 398 1120.83 559 c 0,48,49
 1152.16 720.173 1152.16 720.173 1106.75 805.5 c 0,50,51
 1086.05 844.373 1086.05 844.373 1032.42 865.572 c 1,43,-1
EndSplineSet
EndChar
StartChar: uni0279
Encoding: 633 633 633
Width: 1102
Flags: W
Fore
125.058 305 m 1,0,1
 167.781 283 167.781 283 212.24 272.5 c 128,-1,2
 256.699 262 256.699 262 303.699 262 c 0,3,4
 441.699 262 441.699 262 533.401 350.5 c 128,-1,5
 625.104 439 625.104 439 657.177 604 c 2,6,-1
 757.478 1120 l 1,7,-1
 1115.48 1120 l 1,8,-1
 897.771 0 l 1,9,-1
 539.771 0 l 1,10,-1
 575.537 184 l 1,11,12
 485.155 74 485.155 74 385.839 23.5 c 128,-1,13
 286.522 -27 286.522 -27 161.522 -27 c 0,14,15
 143.522 -27 143.522 -27 122.814 -25.5 c 128,-1,16
 102.106 -24 102.106 -24 63.0781 -19 c 1,17,-1
 125.058 305 l 1,0,1
EndSplineSet
EndChar
StartChar: uni027A
Encoding: 634 634 634
Width: 1102
Flags: W
Fore
82.585 305 m 1,0,1
 125.309 283 125.309 283 169.768 272.5 c 128,-1,2
 214.227 262 214.227 262 261.227 262 c 0,3,4
 399.227 262 399.227 262 490.93 350.5 c 128,-1,5
 582.393 437.766 582.393 437.766 614.705 604 c 2,6,-1
 799.949 1557 l 1,7,-1
 1157.95 1557 l 1,8,-1
 855.299 0 l 1,9,-1
 497.299 0 l 1,10,-1
 533.065 184 l 1,11,12
 442.684 74 442.684 74 343.367 23.5 c 128,-1,13
 244.051 -27 244.051 -27 119.051 -27 c 0,14,15
 101.051 -27 101.051 -27 80.3428 -25.5 c 128,-1,16
 59.6338 -24 59.6338 -24 20.6055 -19 c 1,17,-1
 82.585 305 l 1,0,1
EndSplineSet
EndChar
StartChar: uni027B
Encoding: 635 635 635
Width: 1331
Flags: W
Fore
165.391 305 m 1,0,1
 208.114 283 208.114 283 252.573 272.5 c 0,2,3
 297.033 262 297.033 262 344.032 262 c 0,4,5
 482.033 262 482.033 262 573.735 350.5 c 0,6,7
 665.438 439 665.438 439 697.511 604 c 2,8,-1
 797.811 1120 l 1,9,-1
 1155.81 1120 l 1,10,-1
 942.993 20 l 2,11,12
 916.751 -115 916.751 -115 945.81 -161 c 0,13,14
 974.868 -207 974.868 -207 1076.87 -207 c 2,15,-1
 1242.87 -207 l 1,16,-1
 1197.19 -442 l 1,17,-1
 916.189 -442 l 2,18,19
 711.189 -442 711.189 -442 626.126 -324 c 0,20,21
 539.646 -203 539.646 -203 582.993 20 c 2,22,-1
 614.562 182.411 l 1,23,24
 524.771 73.6348 524.771 73.6348 426.173 23.5 c 0,25,26
 326.856 -27 326.856 -27 201.856 -27 c 0,27,28
 183.856 -27 183.856 -27 163.148 -25.5 c 0,29,30
 142.44 -24 142.44 -24 103.412 -19 c 1,31,-1
 165.391 305 l 1,0,1
EndSplineSet
EndChar
StartChar: uni027C
Encoding: 636 636 636
Width: 1010
Flags: W
Fore
1092.35 815 m 1,0,1
 1049.62 837 1049.62 837 1005.16 847.5 c 128,-1,2
 960.704 858 960.704 858 913.704 858 c 0,3,4
 778.268 858 778.268 858 684.002 769.5 c 128,-1,5
 592.871 683.943 592.871 683.943 560.227 516 c 2,6,-1
 377.12 -426 l 1,7,-1
 19.1201 -426 l 1,8,-1
 319.632 1120 l 1,9,-1
 677.632 1120 l 1,10,-1
 641.866 936 l 1,11,12
 732.248 1046 732.248 1046 831.563 1096.5 c 128,-1,13
 930.88 1147 930.88 1147 1055.88 1147 c 0,14,15
 1073.88 1147 1073.88 1147 1094.59 1145.5 c 128,-1,16
 1115.3 1144 1115.3 1144 1154.33 1139 c 1,17,-1
 1092.35 815 l 1,0,1
EndSplineSet
EndChar
StartChar: uni027D
Encoding: 637 637 637
Width: 1010
Flags: W
Fore
1093.9 815 m 1,0,1
 1051.18 837 1051.18 837 1006.72 847.5 c 0,2,3
 962.259 858 962.259 858 915.259 858 c 0,4,5
 777.259 858 777.259 858 685.557 769.5 c 0,6,7
 593.854 681 593.854 681 561.781 516 c 2,8,-1
 465.368 20 l 2,9,10
 439.127 -115 439.127 -115 468.186 -161 c 0,11,12
 497.244 -207 497.244 -207 599.244 -207 c 2,13,-1
 765.244 -207 l 1,14,-1
 719.564 -442 l 1,15,-1
 438.564 -442 l 2,16,17
 233.564 -442 233.564 -442 148.502 -324 c 0,18,19
 62.0215 -203 62.0215 -203 105.368 20 c 2,20,-1
 319.187 1120 l 1,21,-1
 679.187 1120 l 1,22,-1
 643.421 936 l 1,23,24
 733.803 1046 733.803 1046 833.119 1096.5 c 0,25,26
 932.436 1147 932.436 1147 1057.44 1147 c 0,27,28
 1075.44 1147 1075.44 1147 1096.14 1145.5 c 0,29,30
 1116.85 1144 1116.85 1144 1155.88 1139 c 1,31,-1
 1093.9 815 l 1,0,1
EndSplineSet
EndChar
StartChar: uni027E
Encoding: 638 638 638
Width: 1010
Flags: W
Fore
63.1475 0 m 17,0,0
 190.049 658 l 2,2,3
 232.984 880.623 232.984 880.623 366.916 1002 c 128,-1,4
 497.853 1120 497.853 1120 702.853 1120 c 2,5,-1
 983.853 1120 l 1,6,-1
 938.174 885 l 1,7,-1
 772.174 885 l 2,8,9
 667.744 885 667.744 885 623.232 839 c 128,-1,10
 575.432 789.608 575.432 789.608 550.049 658 c 2,11,-1
 423.147 0 l 17,0,0
 63.1475 0 l 17,0,0
EndSplineSet
EndChar
StartChar: uni027F
Encoding: 639 639 639
Width: 1010
Flags: W
Fore
765.147 0 m 9,0,0
 405.147 0 l 9,0,0
 534.049 658 l 2,11,-1
 559.831 789.608 559.831 789.608 531.232 839 c 128,-1,10
 504.603 885 504.603 885 400.174 885 c 2,8,9
 234.174 885 l 1,7,-1
 279.853 1120 l 1,6,-1
 560.853 1120 l 2,5,-1
 765.853 1120 765.853 1120 850.916 1002 c 128,-1,4
 937.661 880.623 937.661 880.623 894.049 658 c 2,2,3
 765.147 0 l 9,0,0
EndSplineSet
EndChar
StartChar: uni0280
Encoding: 640 640 640
Width: 1315
Flags: W
Fore
493.606 630 m 2,0,-1
 584.606 630 584.606 630 629.827 662 c 0,9,10
 676.047 694 676.047 694 690.236 767 c 0,7,8
 704.232 839 704.232 839 670.452 871 c 0,5,6
 637.283 901 637.283 901 546.283 901 c 2,3,4
 467.283 901 l 1,2,-1
 414.606 630 l 1,1,-1
 493.606 630 l 2,0,-1
371.648 409 m 1,11,-1
 292.147 0 l 1,34,-1
 -65.8525 0 l 1,33,-1
 151.853 1120 l 1,32,-1
 646.853 1120 l 2,31,-1
 882.853 1120 882.853 1120 978.469 1046 c 0,29,30
 1073.89 971 1073.89 971 1042.79 811 c 0,27,28
 1021.21 700 1021.21 700 950.218 628 c 0,25,26
 879.417 557 879.417 557 758.002 524 c 1,23,24
 818.281 510 818.281 510 858.951 462 c 0,21,22
 899.911 414.889 899.911 414.889 931.96 318 c 2,19,20
 1037.15 0 l 1,18,-1
 674.147 0 l 1,17,-1
 583.185 278 l 2,16,-1
 559.942 349.033 559.942 349.033 522.623 378 c 0,14,15
 483.648 409 483.648 409 408.648 409 c 2,12,13
 371.648 409 l 1,11,-1
EndSplineSet
EndChar
StartChar: uni0281
Encoding: 641 641 641
Width: 1315
Flags: W
Fore
466.394 490 m 2,0,-1
 387.394 490 l 1,1,-1
 334.717 219 l 1,2,-1
 413.717 219 l 2,3,4
 504.717 219 504.717 219 549.548 249 c 0,5,6
 595.768 281 595.768 281 609.764 353 c 0,7,8
 623.953 426 623.953 426 590.173 458 c 0,9,10
 557.394 490 557.394 490 466.394 490 c 2,0,-1
430.352 711 m 1,11,-1
 467.352 711 l 2,12,13
 542.352 711 542.352 711 593.377 742 c 0,14,15
 641.958 770.967 641.958 770.967 692.815 842 c 2,16,-1
 891.853 1120 l 1,17,-1
 1254.85 1120 l 1,18,-1
 1026.04 802 l 2,19,20
 956.325 705.111 956.325 705.111 897.049 658 c 0,21,22
 837.719 610 837.719 610 771.998 596 c 1,23,24
 880.583 563 880.583 563 923.782 492 c 0,25,26
 966.787 420 966.787 420 945.211 309 c 0,27,28
 914.109 149 914.109 149 789.531 74 c 0,29,30
 665.147 0 665.147 0 429.147 0 c 2,31,-1
 -65.8525 0 l 1,32,-1
 151.853 1120 l 1,33,-1
 509.853 1120 l 1,34,-1
 430.352 711 l 1,11,-1
EndSplineSet
EndChar
StartChar: uni0282
Encoding: 642 642 642
Width: 1219
Flags: W
TeX: 0 0 0 0
Fore
1189.38 1085 m 1,0,-1
 1136.51 813 l 1,1,2
 1030.84 861 1030.84 861 928.508 885 c 0,3,4
 826.173 909 826.173 909 731.173 909 c 0,5,6
 629.173 909 629.173 909 574.716 883.5 c 0,7,8
 520.259 858 520.259 858 509.957 805 c 0,9,10
 501.599 762 501.599 762 534.628 739 c 0,11,12
 567.657 716 567.657 716 662.52 705 c 2,13,-1
 723.77 696 l 2,14,15
 991.967 661 991.967 661 1071.42 581 c 0,16,17
 1150.87 501 1150.87 501 1117.63 330 c 0,18,19
 1082.83 151 1082.83 151 933.338 61 c 0,20,21
 783.844 -29 783.844 -29 521.844 -29 c 0,22,23
 466.851 -29 466.851 -29 410.853 -24.7051 c 1,24,25
 397.234 -123.085 397.234 -123.085 421.186 -161 c 0,26,27
 450.244 -207 450.244 -207 552.244 -207 c 2,28,-1
 718.244 -207 l 1,29,-1
 672.564 -442 l 1,30,-1
 391.564 -442 l 2,31,32
 186.564 -442 186.564 -442 101.502 -324 c 0,33,34
 15.0215 -203 15.0215 -203 58.3682 20 c 2,35,-1
 62.4502 41 l 1,36,-1
 101.132 240 l 1,37,-1
 115.322 313 l 1,38,39
 212.214 261 212.214 261 319.66 235 c 0,40,41
 427.106 209 427.106 209 543.106 209 c 0,42,43
 648.106 209 648.106 209 706.743 238 c 0,44,45
 765.381 267 765.381 267 776.46 324 c 0,46,47
 785.79 372 785.79 372 753.858 395.5 c 0,48,49
 721.926 419 721.926 419 615.453 432 c 2,50,-1
 554.008 440 l 2,51,52
 320.433 470.411 320.433 470.411 240.585 551 c 0,53,54
 160.329 632 160.329 632 192.402 797 c 0,55,56
 227.002 975 227.002 975 365.719 1061 c 0,57,58
 504.436 1147 504.436 1147 756.436 1147 c 0,59,60
 855.436 1147 855.436 1147 961.52 1132 c 0,61,62
 1067.6 1117 1067.6 1117 1189.38 1085 c 1,0,-1
EndSplineSet
EndChar
StartChar: uni0283
Encoding: 643 643 643
Width: 850
Flags: W
Fore
1062.19 1556 m 1,0,-1
 1016.51 1321 l 1,1,-1
 818.507 1321 l 2,2,3
 742.507 1321 742.507 1321 707.258 1294 c 0,4,5
 671.815 1266 671.815 1266 658.598 1198 c 2,6,-1
 425.73 0 l 2,7,8
 385.882 -205 385.882 -205 254.751 -324 c 0,9,10
 123.814 -442 123.814 -442 -81.1855 -442 c 2,11,-1
 -258.186 -442 l 1,12,-1
 -212.507 -207 l 1,13,-1
 -150.507 -207 l 2,14,15
 -48.5068 -207 -48.5068 -207 -1.56543 -161 c 0,16,17
 45.376 -115 45.376 -115 71.6182 20 c 2,18,-1
 300.598 1198 l 2,19,20
 336.169 1381 336.169 1381 455.08 1468 c 0,21,22
 574.186 1556 574.186 1556 788.186 1556 c 2,23,-1
 1062.19 1556 l 1,0,-1
EndSplineSet
EndChar
StartChar: uni0284
Encoding: 644 644 644
Width: 891
Flags: W
Fore
1103.19 1556 m 1,0,-1
 1057.51 1321 l 1,1,-1
 859.507 1321 l 2,2,3
 783.507 1321 783.507 1321 748.161 1293.5 c 0,4,5
 712.815 1266 712.815 1266 699.598 1198 c 0,6,7
 684.458 1117.4 684.458 1117.4 516.491 256 c 1,8,-1
 694.491 256 l 1,9,-1
 644.73 0 l 1,10,-1
 466.73 0 l 1,11,12
 420.995 -210.323 420.995 -210.323 295.848 -323.5 c 0,13,14
 164.814 -442 164.814 -442 -40.1855 -442 c 2,15,-1
 -217.186 -442 l 1,16,-1
 -171.507 -207 l 1,17,-1
 -109.507 -207 l 2,18,19
 -7.50684 -207 -7.50684 -207 39.4346 -161 c 0,20,21
 82.8105 -118.495 82.8105 -118.495 108.511 -0 c 1,22,-1
 -103.27 0 l 1,23,-1
 -53.5088 256 l 1,24,-1
 158.491 256 l 1,25,-1
 276.675 864 l 1,26,-1
 98.6748 864 l 1,27,-1
 148.437 1120 l 1,28,-1
 326.437 1120 l 1,29,-1
 341.598 1198 l 2,30,31
 377.169 1381 377.169 1381 496.178 1468.5 c 0,32,33
 615.186 1556 615.186 1556 829.186 1556 c 2,34,-1
 1103.19 1556 l 1,0,-1
EndSplineSet
EndChar
StartChar: uni0285
Encoding: 645 645 645
Width: 1239
Flags: W
Fore
326.436 1147 m 1,0,-1
 600.436 1147 l 2,1,2
 814.436 1147 814.436 1147 899.33 1059 c 0,3,4
 984.419 972 984.419 972 948.847 789 c 2,5,-1
 799.368 20 l 2,6,7
 773.127 -115 773.127 -115 802.186 -161 c 0,8,9
 831.244 -207 831.244 -207 933.244 -207 c 2,10,-1
 995.244 -207 l 1,11,-1
 949.564 -442 l 1,12,-1
 772.564 -442 l 2,13,14
 567.564 -442 567.564 -442 482.502 -324 c 0,15,16
 397.633 -205 397.633 -205 437.48 0 c 2,17,-1
 590.847 789 l 2,18,19
 604.064 857 604.064 857 579.508 885 c 0,20,21
 554.756 912 554.756 912 478.756 912 c 2,22,-1
 280.756 912 l 1,23,-1
 326.436 1147 l 1,0,-1
EndSplineSet
EndChar
StartChar: uni0286
Encoding: 646 646 646
Width: 1130
Flags: W
TeX: 0 0 0 0
Fore
85.6719 -444 m 1,0,1
 55.498 -444.18 55.498 -444.18 28.4238 -442 c 2,2,-1
 22.0605 -442 l 1,3,-1
 22.166 -441.461 l 1,4,5
 -256.672 -415.836 -256.672 -415.836 -197.876 -133 c 0,6,7
 -140.677 142.154 -140.677 142.154 166.773 143 c 2,8,-1
 375.885 143.576 l 1,9,-1
 580.845 1198 l 2,10,11
 616.416 1381 616.416 1381 735.327 1468 c 0,12,13
 854.433 1556 854.433 1556 1068.43 1556 c 2,14,-1
 1342.43 1556 l 1,15,-1
 1296.75 1321 l 1,16,-1
 1098.75 1321 l 2,17,18
 1022.75 1321 1022.75 1321 987.505 1294 c 0,19,20
 952.062 1266 952.062 1266 938.845 1198 c 2,21,-1
 733.968 144 l 1,22,-1
 901.968 144 l 1,23,-1
 860.953 -67 l 1,24,25
 805.467 -67.3926 805.467 -67.3926 689.68 -67.5938 c 1,26,27
 643.707 -225.348 643.707 -225.348 534.998 -324 c 0,28,29
 404.061 -442 404.061 -442 199.061 -442 c 2,30,-1
 85.9258 -442 l 1,31,32
 85.7939 -443.004 85.7939 -443.004 85.6719 -444 c 1,0,1
329.636 -67.6426 m 1,33,34
 190.317 -67.4502 190.317 -67.4502 126.953 -67 c 0,35,36
 22.5713 -67 22.5713 -67 6.375 -142 c 0,37,38
 -6.12402 -199.881 -6.12402 -199.881 86.458 -207 c 2,39,-1
 129.74 -207 l 2,40,41
 231.74 -207 231.74 -207 278.682 -161 c 0,42,43
 308.272 -132.003 308.272 -132.003 329.636 -67.6426 c 1,33,34
EndSplineSet
EndChar
StartChar: uni0287
Encoding: 647 647 647
Width: 979
Flags: W
Fore
256.24 -318 m 1,0,-1
 318.054 0 l 1,1,-1
 -50.9463 0 l 1,2,-1
 -1.18555 256 l 1,3,-1
 367.814 256 l 1,4,-1
 460.146 731 l 2,5,6
 475.308 809 475.308 809 449.652 836.5 c 128,-1,7
 423.998 864 423.998 864 331.998 864 c 2,8,-1
 147.998 864 l 1,9,-1
 197.76 1120 l 1,10,-1
 504.76 1120 l 2,11,12
 716.76 1120 716.76 1120 788.057 1031.5 c 128,-1,13
 859.354 943 859.354 943 818.146 731 c 2,14,-1
 725.814 256 l 1,15,-1
 903.814 256 l 1,16,-1
 854.054 0 l 1,17,-1
 676.054 0 l 1,18,-1
 614.24 -318 l 1,19,-1
 256.24 -318 l 1,0,-1
EndSplineSet
EndChar
StartChar: uni0288
Encoding: 648 648 648
Width: 979
Flags: W
Fore
325.904 1120 m 1,0,-1
 387.718 1438 l 1,1,-1
 745.718 1438 l 1,2,-1
 683.904 1120 l 1,3,-1
 1052.9 1120 l 1,4,-1
 1003.14 864 l 1,5,-1
 634.144 864 l 1,6,-1
 470.086 20 l 2,7,8
 443.845 -115 443.845 -115 472.903 -161 c 0,9,10
 501.962 -207 501.962 -207 603.962 -207 c 2,11,-1
 768.962 -207 l 1,12,-1
 723.282 -442 l 1,13,-1
 443.282 -442 l 2,14,15
 238.282 -442 238.282 -442 153.316 -323.5 c 0,16,17
 68.3506 -205 68.3506 -205 112.086 20 c 2,18,-1
 276.144 864 l 1,19,-1
 98.1436 864 l 1,20,-1
 147.904 1120 l 1,21,-1
 325.904 1120 l 1,0,-1
EndSplineSet
EndChar
StartChar: uni0289
Encoding: 649 649 649
Width: 1885
Flags: W
Fore
1729.81 632 m 1,0,-1
 1692.1 438 l 1,1,-1
 1491.1 438 l 1,2,-1
 1405.97 0 l 1,3,-1
 1047.97 0 l 1,4,-1
 1079.46 162 l 1,5,6
 979.406 64 979.406 64 879.867 17.5 c 0,7,8
 780.328 -29 780.328 -29 671.328 -29 c 0,9,10
 529.793 3.74121 529.793 3.74121 486.86 22.8057 c 0,11,12
 429.809 48.1416 429.809 48.1416 398.96 90 c 0,13,14
 320.591 209 320.591 209 364.716 436 c 2,15,-1
 365.104 438 l 1,16,-1
 151.104 438 l 1,17,-1
 188.813 632 l 1,18,-1
 402.813 632 l 1,19,-1
 497.672 1120 l 1,20,-1
 857.672 1120 l 1,21,-1
 835.901 1008 l 2,22,23
 818.212 917 818.212 917 790.485 779.5 c 0,24,25
 771.106 683.404 771.106 683.404 760.905 632 c 1,26,-1
 1170.81 632 l 1,27,-1
 1265.67 1120 l 1,28,-1
 1623.67 1120 l 1,29,-1
 1528.81 632 l 1,30,-1
 1729.81 632 l 1,0,-1
1118.97 438 m 1,31,-1
 726.907 438 l 1,32,33
 724.21 417.141 724.21 417.141 723.009 401.5 c 0,34,35
 718.446 342.028 718.446 342.028 730.195 315 c 0,36,37
 745.417 279.985 745.417 279.985 777.199 261 c 0,38,39
 809.006 242 809.006 242 855.006 242 c 0,40,41
 967.006 242 967.006 242 1047.72 328 c 0,42,43
 1090.5 373.587 1090.5 373.587 1118.97 438 c 1,31,-1
EndSplineSet
EndChar
StartChar: uni028A
Encoding: 650 650 650
Width: 1575
Flags: W
TeX: 0 0 0 0
Fore
654.651 837 m 1,3,4
 563.762 760.86 563.762 760.86 512.783 680 c 128,-1,14
 440.279 565 440.279 565 419.481 458 c 0,12,13
 391.879 316 391.879 316 441.924 228 c 128,-1,11
 492.162 141 492.162 141 602.662 141 c 24,9,10
 713.926 141 713.926 141 797.224 228 c 128,-1,11
 881.479 316 881.479 316 909.081 458 c 0,12,13
 929.88 565 929.88 565 901.233 680 c 128,-1,14
 881.012 764 881.012 764 820.207 836 c 1,15,-1
 875.411 1120 l 1,16,-1
 1412.96 1120 l 1,17,-1
 1374.67 923 l 1,18,-1
 1132.35 923 l 1,19,20
 1209.76 863.961 1209.76 863.961 1265.27 731 c 128,-1,21
 1310.35 623 1310.35 623 1279.64 465 c 0,22,23
 1230.27 211 1230.27 211 1028.39 54 c 128,-1,24
 825.199 -104 825.199 -104 553.039 -104 c 0,25,26
 280.879 -104 280.879 -104 140.037 53 c 128,-1,27
 -1.92578 210 -1.92578 210 46.0869 457 c 0,28,29
 77.5762 619 77.5762 619 163.187 731 c 128,-1,30
 260.673 858 260.673 858 366.268 923 c 1,31,-1
 123.668 923 l 1,0,-1
 161.961 1120 l 1,1,-1
 709.661 1120 l 1,2,-1
 654.651 837 l 1,3,4
EndSplineSet
EndChar
StartChar: uni028B
Encoding: 651 651 651
Width: 1575
Flags: W
TeX: 0 0 0 0
Fore
1159.98 1027 m 24,0,0
 1227.86 967.961 1227.86 967.961 1274.66 835 c 128,-1,21
 1312.66 727 1312.66 727 1281.95 569 c 0,22,23
 1232.58 315 1232.58 315 1049.06 158 c 128,-1,24
 864.349 0 864.349 0 621.349 0 c 0,25,26
 483.959 -2 l 2,5,-1
 282.091 -4.93848 282.091 -4.93848 193.896 116 c 128,-1,4
 107.188 235.829 107.188 235.829 150.763 460 c 2,2,3
 279.054 1120 l 9,0,0
 639.054 1120 l 9,0,0
 510.763 460 l 2,11,-1
 477.958 291.23 477.958 291.23 485.181 279 c 128,-1,10
 516.133 226.574 516.133 226.574 563.25 231 c 2,8,9
 584.539 233 l 8,9,10
 702.263 233 702.263 233 803.844 330 c 128,-1,11
 895.999 418 895.999 418 923.602 560 c 0,12,13
 944.4 667 944.4 667 909.754 782 c 128,-1,14
 885.231 866 885.231 866 815.627 938 c 1,15,-1
 849.054 1120 l 0,0,0
 1058.67 1115.1 1058.67 1115.1 1159.98 1027 c 24,0,0
EndSplineSet
EndChar
StartChar: uni028C
Encoding: 652 652 652
Width: 1335
Flags: W
Fore
1196.15 0 m 1,0,-1
 838.147 0 l 1,1,-1
 709.598 774 l 1,2,-1
 281.147 0 l 1,3,-1
 -77.8525 0 l 1,4,-1
 580.853 1120 l 1,5,-1
 973.853 1120 l 1,6,-1
 1196.15 0 l 1,0,-1
EndSplineSet
EndChar
StartChar: uni028D
Encoding: 653 653 653
Width: 1892
Flags: W
Fore
1712.15 0 m 1,0,-1
 1364.15 0 l 1,1,-1
 1326.21 772 l 1,2,-1
 987.147 0 l 1,3,-1
 688.147 0 l 1,4,-1
 648.653 764 l 1,5,-1
 311.147 0 l 1,6,-1
 -36.8525 0 l 1,7,-1
 475.853 1120 l 1,8,-1
 866.853 1120 l 1,9,-1
 906.18 350 l 1,10,-1
 1243.85 1120 l 1,11,-1
 1634.85 1120 l 1,12,-1
 1712.15 0 l 1,0,-1
EndSplineSet
EndChar
StartChar: uni028E
Encoding: 654 654 654
Width: 1335
Flags: W
Fore
1146.19 0 m 1,0,-1
 788.189 0 l 1,1,-1
 634.918 760 l 1,2,-1
 231.189 0 l 1,3,-1
 -126.811 0 l 1,4,-1
 582.499 1226 l 1,5,6
 689.849 1413 689.849 1413 798.83 1487.5 c 128,-1,7
 907.811 1562 907.811 1562 1062.81 1562 c 2,8,-1
 1269.81 1562 l 1,9,-1
 1224.13 1327 l 1,10,-1
 1112.13 1327 l 2,11,12
 1021.13 1327 1021.13 1327 973.994 1298 c 128,-1,13
 926.857 1269 926.857 1269 889.279 1194 c 1,14,-1
 873.253 1163 l 1,15,-1
 1146.19 0 l 1,0,-1
EndSplineSet
EndChar
StartChar: uni028F
Encoding: 655 655 655
Width: 1483
Flags: W
TeX: 0 0 0 0
Fore
108.805 1119.75 m 1,0,-1
 480.853 1120 l 1,1,-1
 650.592 775 l 1,2,-1
 952.853 1120 l 1,3,-1
 1327.2 1119.75 l 1,4,-1
 746.046 471.75 l 1,5,-1
 654.347 0 l 1,6,-1
 346.347 0 l 1,7,-1
 438.046 471.75 l 1,8,-1
 108.805 1119.75 l 1,0,-1
EndSplineSet
EndChar
StartChar: uni0290
Encoding: 656 656 656
Width: 1421
Flags: W
TeX: 0 0 0 0
Fore
268.811 1120 m 1,0,-1
 1245.81 1120 l 1,1,-1
 1197.22 870 l 1,2,-1
 487.866 256 l 1,3,-1
 1078.87 256 l 1,4,-1
 1032.99 20 l 2,5,6
 1008.53 -105.858 1008.53 -105.858 1017.42 -138.182 c 0,7,8
 1022.39 -156.289 1022.39 -156.289 1035.81 -161 c 1,9,10
 1036.53 -207 1036.53 -207 1166.87 -207 c 2,11,-1
 1332.87 -207 l 1,12,-1
 1287.19 -442 l 1,13,-1
 1006.19 -442 l 2,14,15
 801.189 -442 801.189 -442 716.126 -324 c 0,16,17
 633.564 -208.483 633.564 -208.483 669.331 0 c 1,18,-1
 26.1055 0 l 1,19,-1
 74.7002 250 l 1,20,-1
 784.05 864 l 1,21,-1
 219.05 864 l 1,22,-1
 268.811 1120 l 1,0,-1
EndSplineSet
EndChar
StartChar: uni0291
Encoding: 657 657 657
Width: 1192
Flags: W
TeX: 0 0 0 0
Fore
225.853 1120 m 1,0,-1
 1202.85 1120 l 1,1,-1
 1154.26 870 l 1,2,-1
 444.908 256 l 1,3,-1
 1034.91 256 l 1,4,-1
 985.147 0 l 1,5,-1
 -16.8525 0 l 1,6,-1
 31.7422 250 l 1,7,-1
 741.092 864 l 1,8,-1
 176.092 864 l 1,9,-1
 225.853 1120 l 1,0,-1
EndSplineSet
EndChar
StartChar: uni0292
Encoding: 658 658 658
Width: 1312
Flags: W
TeX: 0 0 0 0
Fore
339.019 478.956 m 1,21,-1
 783.855 864 l 1,8,-1
 218.855 864 l 1,9,-1
 268.616 1120 l 1,0,-1
 1245.62 1120 l 1,1,-1
 1197.02 870 l 1,2,-1
 694.66 436 l 1,0,0
 854.764 426.522 854.764 426.522 936.44 404 c 0,0,1
 1055.67 371.123 1055.67 371.123 1119.66 258.5 c 128,-1,2
 1178.26 156.152 1178.26 156.152 1150.44 13 c 0,3,4
 1107.29 -209 1107.29 -209 914.834 -324.5 c 128,-1,5
 722.384 -440 722.384 -440 396.384 -440 c 0,6,7
 281.384 -440 281.384 -440 169.479 -421.5 c 128,-1,8
 57.5752 -403 57.5752 -403 -48.2324 -366 c 1,9,-1
 9.49805 -69 l 1,10,11
 107.002 -123 107.002 -123 208.156 -150.5 c 128,-1,12
 309.311 -178 309.311 -178 412.311 -178 c 0,13,14
 565.311 -178 565.311 -178 657.113 -125 c 128,-1,15
 748.915 -72 748.915 -72 768.159 27 c 0,16,17
 787.985 129 787.985 129 714.69 181.5 c 128,-1,18
 641.396 234 641.396 234 478.396 234 c 2,19,-1
 291.396 234 l 1,20,-1
 339.019 478.956 l 1,21,-1
EndSplineSet
EndChar
StartChar: uni0293
Encoding: 659 659 659
Width: 1312
Flags: W
TeX: 0 0 0 0
Fore
657.113 -125 m 1,0,1
 626.248 -60 626.248 -60 439.997 -51 c 0,2,3
 292.817 -45.2168 292.817 -45.2168 274.642 -130 c 0,4,5
 262.474 -187.127 262.474 -187.127 428.339 -183 c 0,6,7
 527.017 -180.545 527.017 -180.545 583.597 -161.743 c 0,8,9
 625.604 -147.785 625.604 -147.785 657.113 -125 c 1,0,1
772.369 66.1338 m 1,10,11
 773.202 139.59 773.202 139.59 714.69 181.5 c 0,12,13
 641.396 234 641.396 234 478.396 234 c 2,14,-1
 291.396 234 l 1,15,-1
 339.011 478.956 l 1,16,-1
 783.855 864 l 1,17,-1
 218.855 864 l 1,18,-1
 268.616 1120 l 1,19,-1
 1245.62 1120 l 1,20,-1
 1197.02 870 l 1,21,-1
 694.66 436 l 1,22,23
 854.764 426.522 854.764 426.522 936.44 404 c 0,24,25
 1055.38 371.205 1055.38 371.205 1119.66 258.5 c 0,26,27
 1178.21 155.854 1178.21 155.854 1150.44 13 c 0,28,29
 1107.29 -209 1107.29 -209 914.834 -324.5 c 2,30,-1
 900.65 -332.753 l 1,31,32
 897.096 -369.97 897.096 -369.97 890.215 -410 c 1,33,-1
 719.049 -416 l 1,34,-1
 721.479 -403.5 l 1,35,-1
 714.737 -405.023 l 2,36,37
 575.781 -440 575.781 -440 396.384 -440 c 1,38,-1
 398.886 -437.604 l 1,39,-1
 396.869 -437.5 l 2,40,41
 -10.7666 -419.761 -10.7666 -419.761 51.3623 -116 c 0,42,43
 108.524 159 108.524 159 479.817 159 c 0,44,45
 662.736 159 662.736 159 772.369 66.1338 c 1,10,11
EndSplineSet
EndChar
StartChar: uni0294
Encoding: 660 660 660
Width: 1173
Flags: W
Fore
263.933 736 m 9,0,0
 356.933 736 l 1,10,11
 573.933 736 573.933 736 682.092 850 c 128,-1,9
 753.865 926 753.865 926 767.666 997 c 0,7,8
 785.768 1092.81 785.768 1092.81 741.155 1159 c 128,-1,6
 664.315 1273 664.315 1273 485.315 1273 c 0,4,5
 405.315 1273 405.315 1273 322.039 1251 c 128,-1,3
 239.957 1230 239.957 1230 153.599 1187 c 1,1,2
 211.523 1485 l 1,0,-1
 294.327 1520 294.327 1520 378.632 1537 c 128,-1,25
 463.13 1555 463.13 1555 644.13 1555 c 0,23,24
 884.595 1556.01 884.595 1556.01 1053.31 1345 c 128,-1,22
 1159.5 1212.19 1159.5 1212.19 1117.67 997 c 0,20,21
 1072.76 765.984 1072.76 765.984 889.579 621 c 128,-1,19
 769.348 526.643 769.348 526.643 575.281 496 c 1,0,0
 478.869 0 l 1,0,-1
 120.869 0 l 1,1,-1
 263.933 736 l 9,0,0
EndSplineSet
EndChar
StartChar: uni0295
Encoding: 661 661 661
Width: 1173
Flags: W
Fore
868.933 736 m 17,0,0
 725.869 0 l 1,1,-1
 367.869 0 l 1,0,-1
 464.281 496 l 1,0,0
 282.128 526.643 282.128 526.643 198.579 621 c 128,-1,19
 71.7607 765.984 71.7607 765.984 116.666 997 c 0,20,21
 158.495 1212.19 158.495 1212.19 316.311 1345 c 128,-1,22
 567.059 1556.01 567.059 1556.01 807.13 1555 c 0,23,24
 988.13 1555 988.13 1555 1065.63 1537 c 128,-1,25
 1143.33 1520 1143.33 1520 1212.52 1485 c 1,0,-1
 1154.6 1187 l 1,1,2
 1084.96 1230 1084.96 1230 1011.04 1251 c 128,-1,3
 936.315 1273 936.315 1273 856.315 1273 c 0,4,5
 677.315 1273 677.315 1273 556.155 1159 c 128,-1,6
 485.812 1092.81 485.812 1092.81 466.666 997 c 0,7,8
 452.865 926 452.865 926 495.092 850 c 128,-1,9
 558.933 736 558.933 736 775.933 736 c 1,10,11
 868.933 736 l 17,0,0
EndSplineSet
EndChar
StartChar: uni0296
Encoding: 662 662 662
Width: 1173
Flags: W
Fore
280.067 819 m 17,0,0
 423.131 1555 l 1,1,-1
 781.131 1555 l 1,0,-1
 684.719 1059 l 1,0,0
 866.873 1028.36 866.873 1028.36 950.421 934 c 128,-1,19
 1077.24 789.016 1077.24 789.016 1032.33 558 c 0,20,21
 990.505 342.807 990.505 342.807 832.689 210 c 128,-1,22
 581.94 -1.01367 581.94 -1.01367 341.87 0 c 0,23,24
 160.87 0 160.87 0 83.3682 18 c 128,-1,25
 5.67285 35 5.67285 35 -63.5234 70 c 1,0,-1
 -5.59863 368 l 1,1,2
 64.043 325 64.043 325 137.961 304 c 128,-1,3
 212.685 282 212.685 282 292.685 282 c 0,4,5
 471.685 282 471.685 282 592.845 396 c 128,-1,6
 663.188 462.188 663.188 462.188 682.334 558 c 0,7,8
 696.135 629 696.135 629 653.908 705 c 128,-1,9
 590.067 819 590.067 819 373.067 819 c 1,10,11
 280.067 819 l 17,0,0
EndSplineSet
EndChar
StartChar: uni0297
Encoding: 663 663 663
Width: 1173
Flags: W
TeX: 0 0 0 0
Fore
339.931 132 m 18,0,0
 321.828 36.1865 321.828 36.1865 366.44 -30 c 128,-1,6
 443.281 -144 443.281 -144 622.281 -144 c 0,4,5
 702.281 -144 702.281 -144 785.558 -122 c 128,-1,3
 867.64 -101 867.64 -101 953.998 -58 c 1,1,2
 896.073 -356 l 1,0,-1
 813.27 -391 813.27 -391 728.965 -408 c 128,-1,25
 644.467 -426 644.467 -426 463.467 -426 c 0,23,24
 223.001 -427.014 223.001 -427.014 54.2861 -216 c 128,-1,22
 -51.8984 -83.1934 -51.8984 -83.1934 -10.0693 132 c 10,0,0
 158.069 997 l 2,20,21
 199.898 1212.19 199.898 1212.19 357.714 1345 c 128,-1,22
 608.462 1556.01 608.462 1556.01 848.534 1555 c 0,23,24
 1029.53 1555 1029.53 1555 1107.04 1537 c 128,-1,25
 1184.73 1520 1184.73 1520 1253.93 1485 c 1,0,-1
 1196 1187 l 1,1,2
 1126.36 1230 1126.36 1230 1052.44 1251 c 128,-1,3
 977.719 1273 977.719 1273 897.719 1273 c 0,4,5
 718.719 1273 718.719 1273 597.56 1159 c 128,-1,6
 526.406 1092.06 526.406 1092.06 508.069 997 c 2,7,8
 339.931 132 l 18,0,0
EndSplineSet
EndChar
StartChar: uni0298
Encoding: 664 664 664
Width: 1363
Flags: W
Fore
317.748 566.075 m 0,0,1
 291.711 432.125 291.711 432.125 369.379 338.075 c 128,-1,11
 446.098 244.025 446.098 244.025 580.048 244.025 c 0,9,10
 713.998 244.025 713.998 244.025 826.329 338.075 c 128,-1,8
 938.661 432.125 938.661 432.125 964.698 566.075 c 0,6,7
 990.182 697.175 990.182 697.175 914.017 794.075 c 128,-1,5
 836.902 890.975 836.902 890.975 705.802 890.975 c 0,3,4
 571.853 890.975 571.853 890.975 458.017 794.075 c 128,-1,2
 343.231 697.175 343.231 697.175 317.748 566.075 c 0,0,1
16.7158 564.75 m 0,0,1
 65.8936 817.75 65.8936 817.75 287.043 1004.75 c 128,-1,2
 507.092 1191.75 507.092 1191.75 765.592 1191.75 c 0,3,4
 1018.59 1191.75 1018.59 1191.75 1167.04 1004.75 c 128,-1,5
 1314.39 817.75 1314.39 817.75 1265.22 564.75 c 0,6,7
 1214.97 306.25 1214.97 306.25 998.188 124.75 c 128,-1,8
 781.408 -56.75 781.408 -56.75 522.908 -56.75 c 0,9,10
 264.408 -56.75 264.408 -56.75 115.988 124.75 c 128,-1,11
 -33.5322 306.25 -33.5322 306.25 16.7158 564.75 c 0,0,1
510.863 566.925 m 0,0,1
 521.146 619.825 521.146 619.825 567.847 658.925 c 128,-1,2
 613.396 698.025 613.396 698.025 667.446 698.025 c 0,3,4
 720.347 698.025 720.347 698.025 751.847 658.925 c 128,-1,5
 782.196 619.825 782.196 619.825 771.913 566.925 c 0,6,7
 761.407 512.875 761.407 512.875 716.08 474.925 c 128,-1,8
 670.754 436.975 670.754 436.975 616.703 436.975 c 0,9,10
 562.653 436.975 562.653 436.975 532.08 474.925 c 128,-1,11
 500.357 512.875 500.357 512.875 510.863 566.925 c 0,0,1
EndSplineSet
EndChar
StartChar: uni0299
Encoding: 665 665 665
Width: 1318
Flags: W
Fore
607.951 697.5 m 2,0,1
 687.304 697.5 687.304 697.5 737.011 722.5 c 128,-1,2
 783.895 746.079 783.895 746.079 793.646 796.25 c 0,3,4
 803.001 844.375 803.001 844.375 765.621 869.688 c 128,-1,5
 728.242 895 728.242 895 646.342 895 c 2,6,-1
 473.142 895 l 1,7,-1
 434.752 697.5 l 1,8,-1
 607.951 697.5 l 2,0,1
534.999 262 m 2,9,10
 639.399 262 639.399 262 697.002 287.479 c 128,-1,11
 754.604 312.96 754.604 312.96 764.611 364.439 c 0,12,13
 774.416 414.88 774.416 414.88 727.118 440.1 c 128,-1,14
 679.82 465.32 679.82 465.32 574.521 465.32 c 2,15,-1
 389.62 465.32 l 1,16,-1
 350.099 262 l 1,17,-1
 534.999 262 l 2,9,10
922.754 599.25 m 1,18,19
 1029.11 572.25 1029.11 572.25 1076.16 499.5 c 128,-1,20
 1123.22 426.75 1123.22 426.75 1102.67 321 c 0,21,22
 1071.18 159 1071.18 159 924.324 79.5 c 128,-1,23
 777.472 0 777.472 0 509.271 0 c 2,24,-1
 -65.8291 0 l 1,25,-1
 151.829 1119.75 l 1,26,-1
 672.028 1119.75 l 2,27,28
 951.929 1119.75 951.929 1119.75 1063.77 1049.25 c 128,-1,29
 1175.62 978.75 1175.62 978.75 1145.44 823.5 c 0,30,31
 1129.55 741.75 1129.55 741.75 1072.5 684.375 c 128,-1,32
 1015.45 627 1015.45 627 922.754 599.25 c 1,18,19
EndSplineSet
EndChar
StartChar: uni029A
Encoding: 666 666 666
Width: 1425
Flags: W
TeX: 0 0 0 0
Fore
721.29 914.8 m 0,28,29
 622.692 915.527 622.692 915.527 545.914 882 c 128,-1,27
 465.05 846.688 465.05 846.688 454.42 792 c 0,25,26
 440.033 717.987 440.033 717.987 511.427 684 c 128,-1,24
 560.197 661.4 560.197 661.4 640.034 661.4 c 2,22,23
 806.034 661.4 l 1,21,-1
 763.309 441.6 l 17,0,0
 598.309 441.6 l 2,22,23
 506.452 441.6 506.452 441.6 454.11 420 c 128,-1,24
 375.831 387.697 375.831 387.697 361.895 316 c 0,25,26
 349.585 252.671 349.585 252.671 408.457 216 c 128,-1,27
 453.087 188.2 453.087 188.2 540.053 188.2 c 0,28,29
 913.053 188.2 913.053 188.2 983.769 552 c 1,0,0
 1053.42 914.8 1053.42 914.8 721.29 914.8 c 0,28,29
1058.09 1099 m 0,32,33
 1404.73 947.932 1404.73 947.932 1327.77 552 c 0,0,0
 1263.29 220.312 1263.29 220.312 847.97 18 c 0,0,0
 724.099 -42.9268 724.099 -42.9268 477.307 -42 c 0,35,36
 214.96 -40.7676 214.96 -40.7676 95.5674 45 c 128,-1,37
 -25.7354 131 -25.7354 131 3.03223 279 c 0,38,39
 23.0537 382 23.0537 382 109.985 453 c 128,-1,40
 199.192 525.859 199.192 525.859 367.769 552 c 1,0,1
 203.619 578.158 203.619 578.158 148.277 650 c 128,-1,40
 89.8828 725.807 89.8828 725.807 108.97 824 c 0,38,39
 137.738 972 137.738 972 292.669 1059 c 128,-1,37
 447.406 1145 447.406 1145 708.036 1145 c 0,35,36
 955.396 1144 955.396 1144 1058.09 1099 c 0,32,33
EndSplineSet
EndChar
StartChar: uni029B
Encoding: 667 667 667
Width: 1402
Flags: W
TeX: 0 0 0 0
Fore
984.594 101.15 m 1,0,1
 871.083 50.5752 871.083 50.5752 754.567 25.2871 c 0,2,3
 638.051 0 638.051 0 519.251 0 c 0,4,5
 250.693 0 250.693 0 123.014 150.642 c 0,6,7
 -4.66406 301.283 -4.66406 301.283 45.4727 559.215 c 0,8,9
 96.1709 820.037 96.1709 820.037 285.082 969.595 c 0,10,11
 473.993 1119.15 473.993 1119.15 751.913 1119.15 c 0,12,13
 767.633 1119.15 767.633 1119.15 783.076 1118.72 c 1,14,15
 828.766 1323.79 828.766 1323.79 954.791 1438 c 0,16,17
 1085.73 1556 1085.73 1556 1290.73 1556 c 2,18,-1
 1571.73 1556 l 1,19,-1
 1526.05 1321 l 1,20,-1
 1360.05 1321 l 2,21,22
 1258.05 1321 1258.05 1321 1211.11 1275 c 0,23,24
 1164.17 1229 1164.17 1229 1137.92 1094 c 2,25,-1
 1127.23 1038.99 l 1,26,-1
 1127.29 1038.96 l 1,27,-1
 1081.4 802.878 l 1,28,29
 1000.87 851.61 1000.87 851.61 916.618 875.634 c 0,30,31
 832.369 899.657 832.369 899.657 743.087 899.657 c 0,32,33
 577.487 899.657 577.487 899.657 470.703 811.457 c 0,34,35
 363.92 723.259 363.92 723.259 332.033 559.215 c 0,36,37
 300.413 396.544 300.413 396.544 369.602 308.002 c 0,38,39
 438.791 219.459 438.791 219.459 597.909 219.459 c 0,40,41
 641.11 219.459 641.11 219.459 679.191 224.607 c 0,42,43
 717.272 229.755 717.272 229.755 748.927 240.736 c 1,44,-1
 780.273 409 l 1,45,-1
 504.273 409 l 1,46,-1
 547.231 630 l 1,47,-1
 1087.23 630 l 1,48,-1
 984.594 101.15 l 1,0,1
EndSplineSet
EndChar
StartChar: uni029C
Encoding: 668 668 668
Width: 1315
Flags: W
Fore
151.853 1120 m 1,0,-1
 513.853 1120 l 1,1,-1
 435.129 715 l 1,2,-1
 814.129 715 l 1,3,-1
 892.853 1120 l 1,4,-1
 1254.85 1120 l 1,5,-1
 1037.15 0 l 1,6,-1
 675.147 0 l 1,7,-1
 765.146 463 l 1,8,-1
 382.146 463 l 1,9,-1
 296.147 0 l 1,10,-1
 -65.8525 0 l 1,11,-1
 151.853 1120 l 1,0,-1
EndSplineSet
EndChar
StartChar: uni029D
Encoding: 669 669 669
Width: 702
Flags: W
TeX: 0 0 0 0
Fore
366.333 1556 m 1,0,-1
 724.333 1556 l 1,1,-1
 667.574 1264 l 1,2,-1
 309.574 1264 l 1,3,-1
 366.333 1556 l 1,0,-1
281.583 1120 m 1,4,-1
 639.583 1120 l 1,5,-1
 449.965 144.5 l 1,6,-1
 617.965 144.5 l 1,7,-1
 576.951 -66.5 l 1,8,9
 521.373 -66.8936 521.373 -66.8936 405.678 -67.0938 c 1,10,11
 359.704 -224.849 359.704 -224.849 250.995 -323.5 c 0,12,13
 119.961 -442 119.961 -442 -85.0391 -442 c 2,14,-1
 -198.142 -442 l 1,15,16
 -198.239 -442.752 -198.239 -442.752 -198.33 -443.5 c 1,17,18
 -224.797 -443.658 -224.797 -443.658 -248.879 -442 c 2,19,-1
 -262.039 -442 l 1,20,-1
 -261.837 -440.961 l 1,21,22
 -540.674 -415.336 -540.674 -415.336 -481.878 -132.5 c 0,23,24
 -424.679 142.653 -424.679 142.653 -117.229 143.5 c 2,25,-1
 91.8828 144.076 l 1,26,-1
 281.583 1120 l 1,4,-1
45.6338 -67.1426 m 1,27,28
 -93.5146 -66.9512 -93.5146 -66.9512 -157.049 -66.5 c 0,29,30
 -261.431 -66.5 -261.431 -66.5 -277.628 -141.5 c 0,31,32
 -290.126 -199.38 -290.126 -199.38 -197.545 -206.5 c 2,33,-1
 -154.263 -206.5 l 2,34,35
 -52.2627 -206.5 -52.2627 -206.5 -5.32031 -160.5 c 0,36,37
 24.2695 -131.503 24.2695 -131.503 45.6338 -67.1426 c 1,27,28
EndSplineSet
EndChar
StartChar: uni029E
Encoding: 670 670 670
Width: 1499
Flags: W
Fore
1249.77 -436 m 1,0,-1
 891.772 -436 l 1,1,-1
 1056.41 411 l 1,2,-1
 564.521 0 l 1,3,-1
 148.521 0 l 1,4,-1
 795.434 514 l 1,5,-1
 323.228 1120 l 1,6,-1
 757.228 1120 l 1,7,-1
 1103.45 653 l 1,8,-1
 1194.23 1120 l 1,9,-1
 1552.23 1120 l 1,10,-1
 1249.77 -436 l 1,0,-1
EndSplineSet
EndChar
StartChar: uni029F
Encoding: 671 671 671
Width: 1017
Flags: W
Fore
110.853 1120 m 1,0,-1
 470.853 1120 l 1,1,-1
 307.712 291 l 1,2,-1
 796.512 291 l 1,3,-1
 739.947 0 l 1,4,-1
 -108.853 0 l 1,5,-1
 110.853 1120 l 1,0,-1
EndSplineSet
EndChar
StartChar: uni02A0
Encoding: 672 672 672
Width: 1622
Flags: W
TeX: 0 0 0 0
Fore
855.665 162 m 1,0,1
 762.421 63 762.421 63 664.479 17 c 0,2,3
 566.538 -29 566.538 -29 449.538 -29 c 0,4,5
 242.538 -29 242.538 -29 141.514 135.5 c 0,6,7
 40.4893 300 40.4893 300 90.834 559 c 0,8,9
 141.178 818 141.178 818 305.959 981.5 c 0,10,11
 470.74 1145 470.74 1145 677.74 1145 c 0,12,13
 794.74 1145 794.74 1145 874.799 1099 c 0,14,15
 954.857 1053 954.857 1053 1009.61 954 c 1,16,-1
 1041.88 1120 l 1,17,-1
 1044.26 1120 l 1,18,19
 1090.06 1324.15 1090.06 1324.15 1215.69 1438 c 0,20,21
 1346.63 1556 1346.63 1556 1551.63 1556 c 2,22,-1
 1832.63 1556 l 1,23,-1
 1786.95 1321 l 1,24,-1
 1620.95 1321 l 2,25,26
 1518.95 1321 1518.95 1321 1472.01 1275 c 0,27,28
 1425.07 1229 1425.07 1229 1398.83 1094 c 2,29,-1
 1101.37 -426 l 1,30,-1
 741.369 -426 l 1,31,-1
 855.665 162 l 1,0,1
760.591 887 m 0,32,33
 646.591 887 646.591 887 569.763 803 c 0,34,35
 492.935 719 492.935 719 461.834 559 c 0,36,37
 430.732 399 430.732 399 474.905 315 c 0,38,39
 519.077 231 519.077 231 633.077 231 c 0,40,41
 748.077 231 748.077 231 824.905 315 c 0,42,43
 901.732 399 901.732 399 932.834 559 c 0,44,45
 963.935 719 963.935 719 919.763 803 c 0,46,47
 875.591 887 875.591 887 760.591 887 c 0,32,33
EndSplineSet
EndChar
StartChar: uni02A1
Encoding: 673 673 673
Width: 1173
Flags: W
Fore
263.934 736 m 1,0,-1
 356.934 736 l 2,1,2
 573.934 736 573.934 736 682.093 850 c 0,3,4
 753.865 926 753.865 926 767.666 997 c 0,5,6
 785.769 1092.81 785.769 1092.81 741.156 1159 c 0,7,8
 664.315 1273 664.315 1273 485.315 1273 c 0,9,10
 405.315 1273 405.315 1273 322.039 1251 c 0,11,12
 239.957 1230 239.957 1230 153.599 1187 c 1,13,-1
 211.524 1485 l 1,14,15
 294.327 1520 294.327 1520 378.632 1537 c 0,16,17
 463.131 1555 463.131 1555 644.131 1555 c 0,18,19
 885.402 1555 885.402 1555 1053.31 1345 c 0,20,21
 1159.5 1212.19 1159.5 1212.19 1117.67 997 c 0,22,23
 1072.76 765.984 1072.76 765.984 889.579 621 c 0,24,25
 769.349 526.643 769.349 526.643 575.282 496 c 1,26,-1
 545.348 342 l 1,27,-1
 803.348 342 l 1,28,-1
 765.638 148 l 1,29,-1
 507.638 148 l 1,30,-1
 478.869 0 l 1,31,-1
 120.869 0 l 1,32,-1
 149.638 148 l 1,33,-1
 -7.3623 148 l 1,34,-1
 30.3477 342 l 1,35,-1
 187.348 342 l 1,36,-1
 263.934 736 l 1,0,-1
EndSplineSet
EndChar
StartChar: uni02A2
Encoding: 674 674 674
Width: 1173
Flags: W
Fore
868.934 736 m 1,0,-1
 775.934 736 l 2,1,2
 558.934 736 558.934 736 495.093 850 c 0,3,4
 452.865 926 452.865 926 466.666 997 c 0,5,6
 485.812 1092.81 485.812 1092.81 556.156 1159 c 0,7,8
 677.315 1273 677.315 1273 856.315 1273 c 0,9,10
 936.315 1273 936.315 1273 1011.04 1251 c 0,11,12
 1084.96 1230 1084.96 1230 1154.6 1187 c 1,13,-1
 1212.52 1485 l 1,14,15
 1143.33 1520 1143.33 1520 1065.63 1537 c 0,16,17
 988.131 1555 988.131 1555 807.131 1555 c 0,18,19
 565.858 1555 565.858 1555 316.311 1345 c 0,20,21
 158.495 1212.19 158.495 1212.19 116.666 997 c 0,22,23
 71.7617 765.984 71.7617 765.984 198.579 621 c 0,24,25
 282.128 526.643 282.128 526.643 464.282 496 c 1,26,-1
 434.348 342 l 1,27,-1
 176.348 342 l 1,28,-1
 138.638 148 l 1,29,-1
 396.638 148 l 1,30,-1
 367.869 0 l 1,31,-1
 725.869 0 l 1,32,-1
 754.638 148 l 1,33,-1
 911.638 148 l 1,34,-1
 949.348 342 l 1,35,-1
 792.348 342 l 1,36,-1
 868.934 736 l 1,0,-1
EndSplineSet
EndChar
StartChar: uni02A3
Encoding: 675 675 675
Width: 2367
Flags: W
TeX: 0 0 0 0
Fore
594.492 231 m 0,0,1
 709.492 231 709.492 231 786.32 315 c 0,2,3
 863.148 399 863.148 399 894.249 559 c 0,4,5
 925.35 719 925.35 719 881.178 803 c 0,6,7
 837.006 887 837.006 887 722.006 887 c 0,8,9
 608.006 887 608.006 887 531.178 803 c 0,10,11
 454.35 719 454.35 719 423.249 559 c 0,12,13
 392.148 399 392.148 399 436.32 315 c 0,14,15
 480.492 231 480.492 231 594.492 231 c 0,0,1
971.418 956 m 1,16,-1
 1088.05 1556 l 1,17,-1
 1448.05 1556 l 1,18,-1
 1363.3 1120 l 1,19,-1
 2338.3 1120 l 1,20,-1
 2289.7 870 l 1,21,-1
 1580.35 256 l 1,22,-1
 2170.35 256 l 1,23,-1
 2120.59 0 l 1,24,-1
 1145.59 0 l 1,25,-1
 1118.59 0 l 1,26,-1
 785.591 0 l 1,27,-1
 817.08 162 l 1,28,29
 723.837 63 723.837 63 625.896 17 c 0,30,31
 527.953 -29 527.953 -29 410.953 -29 c 0,32,33
 203.953 -29 203.953 -29 102.929 135.5 c 0,34,35
 1.9043 300 1.9043 300 52.249 559 c 0,36,37
 102.594 818 102.594 818 267.569 982.5 c 0,38,39
 432.545 1147 432.545 1147 639.545 1147 c 0,40,41
 755.545 1147 755.545 1147 836.006 1100.5 c 0,42,43
 916.468 1054 916.468 1054 971.418 956 c 1,16,-1
1313.54 864 m 1,44,-1
 1199.65 278.098 l 1,45,-1
 1876.54 864 l 1,46,-1
 1313.54 864 l 1,44,-1
EndSplineSet
EndChar
StartChar: uni02A4
Encoding: 676 676 676
Width: 2487
Flags: W
TeX: 0 0 0 0
Fore
634.438 231 m 0,0,1
 749.438 231 749.438 231 826.266 315 c 0,2,3
 903.094 399 903.094 399 934.194 559 c 0,4,5
 965.295 719 965.295 719 921.123 803 c 0,6,7
 876.951 887 876.951 887 761.951 887 c 0,8,9
 647.951 887 647.951 887 571.123 803 c 0,10,11
 494.295 719 494.295 719 463.194 559 c 0,12,13
 432.094 399 432.094 399 476.266 315 c 0,14,15
 520.438 231 520.438 231 634.438 231 c 0,0,1
1011.36 956 m 1,16,-1
 1127.99 1556 l 1,17,-1
 1487.99 1556 l 1,18,-1
 1403.24 1120 l 1,19,-1
 2378.24 1120 l 1,20,-1
 2329.65 870 l 1,21,-1
 1827.29 436 l 1,22,23
 1987.39 426.522 1987.39 426.522 2069.07 404 c 0,24,25
 2188 371.204 2188 371.204 2252.28 258.5 c 0,26,27
 2310.83 155.854 2310.83 155.854 2283.06 13 c 0,28,29
 2239.91 -209 2239.91 -209 2047.46 -324.5 c 0,30,31
 1855.01 -440 1855.01 -440 1529.01 -440 c 0,32,33
 1414.01 -440 1414.01 -440 1302.1 -421.5 c 0,34,35
 1190.2 -403 1190.2 -403 1084.39 -366 c 1,36,-1
 1142.12 -69 l 1,37,38
 1239.63 -123 1239.63 -123 1340.78 -150.5 c 0,39,40
 1441.94 -178 1441.94 -178 1544.94 -178 c 0,41,42
 1697.94 -178 1697.94 -178 1789.74 -125 c 0,43,44
 1881.54 -72 1881.54 -72 1900.78 27 c 0,45,46
 1920.61 129 1920.61 129 1847.32 181.5 c 0,47,48
 1774.02 234 1774.02 234 1611.02 234 c 2,49,-1
 1424.02 234 l 1,50,-1
 1471.64 478.956 l 1,51,-1
 1916.48 864 l 1,52,-1
 1353.48 864 l 1,53,-1
 1185.54 0 l 1,54,-1
 825.536 0 l 1,55,-1
 857.025 162 l 1,56,57
 763.782 63 763.782 63 665.84 17 c 0,58,59
 567.898 -29 567.898 -29 450.898 -29 c 0,60,61
 243.898 -29 243.898 -29 142.874 135.5 c 0,62,63
 41.8496 300 41.8496 300 92.1943 559 c 0,64,65
 142.539 818 142.539 818 307.515 982.5 c 0,66,67
 472.49 1147 472.49 1147 679.49 1147 c 0,68,69
 795.49 1147 795.49 1147 875.951 1100.5 c 0,70,71
 956.413 1054 956.413 1054 1011.36 956 c 1,16,-1
EndSplineSet
EndChar
